{
classes = (
{
automatic = 1;
code = "A B C D E F G H I J K L M N O P Q R S T U V W X Y Z a b c d e f g h i j k l m n o p q r s t u v w x y z ordfeminine ordmasculine Agrave Aacute Acircumflex Atilde Adieresis Aring AE Ccedilla Egrave Eacute Ecircumflex Edieresis Igrave Iacute Icircumflex Idieresis Eth Ntilde Ograve Oacute Ocircumflex Otilde Odieresis Oslash Ugrave Uacute Ucircumflex Udieresis Yacute Thorn germandbls agrave aacute acircumflex atilde adieresis aring ae ccedilla egrave eacute ecircumflex edieresis igrave iacute icircumflex idieresis eth ntilde ograve oacute ocircumflex otilde odieresis oslash ugrave uacute ucircumflex udieresis yacute thorn ydieresis Abreve abreve Aogonek aogonek cacute Ccircumflex ccircumflex ccaron dcaron dcroat eogonek ecaron Gcircumflex gcircumflex Gbreve gbreve Hcircumflex hcircumflex Idotaccent dotlessi Jcircumflex jcircumflex kgreenlandic Lacute lacute Lcaron lcaron Lslash lslash nacute ncaron Eng eng omacron ohungarumlaut OE oe racute rcaron Sacute sacute Scircumflex scircumflex Scedilla scedilla Scaron scaron Tcedilla tcedilla Tcaron tcaron Ubreve ubreve uring uhungarumlaut Ydieresis zacute zdot Zcaron zcaron dotlessj uni0E01 uni0E02 uni0E03 uni0E04 uni0E05 uni0E06 uni0E07 uni0E08 uni0E09 uni0E0A uni0E0B uni0E0C uni0E0D uni0E0E uni0E0F uni0E10 uni0E11 uni0E12 uni0E13 uni0E14 uni0E15 uni0E16 uni0E17 uni0E18 uni0E19 uni0E1A uni0E1B uni0E1C uni0E1D uni0E1E uni0E1F uni0E20 uni0E21 uni0E22 uni0E23 uni0E24 uni0E25 uni0E26 uni0E27 uni0E28 uni0E29 uni0E2A uni0E2B uni0E2C uni0E2D uni0E2E uni0E30 uni0E32 uni0E33 uni0E40 uni0E41 uni0E42 uni0E43 uni0E44 uni0E45 uni0E10.descless uni0E0D.descless fi fl uni0E07.uline uni0E0D.uline uni0E19.uline uni0E21.uline Ccaron Edotaccent Eogonek Iogonek Umacron Uogonek T.medi edotaccent iogonek umacron uogonek";
name = AllLetters;
},
{
code = "zero one two three four five six seven eight nine \012";
name = digit;
},
{
code = "";
name = DevaIMatras;
}
);

glyphs = (
{
glyphname = .notdef;
layers = (
{
layerId = "8BD8650B-A4E1-42AA-8EA8-F95A9955B41A";
name = Regular;
paths = (
{
closed = 1;
nodes = (
"33 0 LINE",
"33 666 LINE",
"298 666 LINE",
"298 0 LINE"
);
},
{
closed = 1;
nodes = (
"66 33 LINE",
"265 33 LINE",
"265 633 LINE",
"66 633 LINE"
);
}
);
width = 364;
}
);
note = .notdef;
},
{
glyphname = exclam;
lastChange = "2015-11-24 16:38:11 +0000";
layers = (
{
layerId = "8BD8650B-A4E1-42AA-8EA8-F95A9955B41A";
name = Regular;
paths = (
{
closed = 1;
nodes = (
"278 -43 OFFCURVE",
"264 -38 OFFCURVE",
"245 -29 CURVE SMOOTH",
"227 -21 OFFCURVE",
"215 -18 OFFCURVE",
"210 -18 CURVE SMOOTH",
"189 -18 OFFCURVE",
"162 13 OFFCURVE",
"162 39 CURVE SMOOTH",
"162 71 OFFCURVE",
"208 144 OFFCURVE",
"235 156 CURVE",
"244 161 OFFCURVE",
"257 163 OFFCURVE",
"274 163 CURVE SMOOTH",
"334 163 OFFCURVE",
"363 141 OFFCURVE",
"363 95 CURVE SMOOTH",
"363 42 OFFCURVE",
"332 -43 OFFCURVE",
"286 -43 CURVE SMOOTH"
);
},
{
closed = 1;
nodes = (
"181 890 OFFCURVE",
"188 894 OFFCURVE",
"215 894 CURVE SMOOTH",
"223 894 OFFCURVE",
"242 892 OFFCURVE",
"273 889 CURVE",
"303 884 OFFCURVE",
"327 882 OFFCURVE",
"346 880 CURVE SMOOTH",
"406 873 LINE",
"400 810 LINE SMOOTH",
"399 781 OFFCURVE",
"383 720 OFFCURVE",
"356 630 CURVE SMOOTH",
"329 538 OFFCURVE",
"308 454 OFFCURVE",
"295 381 CURVE SMOOTH",
"290 350 OFFCURVE",
"279 335 OFFCURVE",
"266 335 CURVE SMOOTH",
"257 335 OFFCURVE",
"251 338 OFFCURVE",
"245 347 CURVE",
"235 361 OFFCURVE",
"228 410 OFFCURVE",
"225 454 CURVE SMOOTH",
"222 499 OFFCURVE",
"211 603 OFFCURVE",
"203 684 CURVE",
"199 703 OFFCURVE",
"198 725 OFFCURVE",
"198 751 CURVE SMOOTH",
"198 756 OFFCURVE",
"198 764 OFFCURVE",
"199 776 CURVE SMOOTH",
"201 788 OFFCURVE",
"201 798 OFFCURVE",
"201 804 CURVE SMOOTH",
"201 819 OFFCURVE",
"198 827 OFFCURVE",
"193 832 CURVE",
"184 838 OFFCURVE",
"181 848 OFFCURVE",
"181 863 CURVE SMOOTH"
);
}
);
width = 519;
}
);
note = exclam;
unicode = 0021;
},
{
glyphname = quotedbl;
layers = (
{
layerId = "8BD8650B-A4E1-42AA-8EA8-F95A9955B41A";
name = Regular;
paths = (
{
closed = 1;
nodes = (
"186 690 OFFCURVE",
"197 709 OFFCURVE",
"218 709 CURVE SMOOTH",
"231 709 OFFCURVE",
"242 700 OFFCURVE",
"249 683 CURVE SMOOTH",
"256 666 OFFCURVE",
"264 636 OFFCURVE",
"274 594 CURVE",
"281 569 OFFCURVE",
"285 546 OFFCURVE",
"285 525 CURVE SMOOTH",
"285 488 OFFCURVE",
"275 470 OFFCURVE",
"254 470 CURVE SMOOTH",
"247 470 OFFCURVE",
"238 473 OFFCURVE",
"229 478 CURVE SMOOTH",
"209 490 OFFCURVE",
"186 588 OFFCURVE",
"186 652 CURVE SMOOTH"
);
},
{
closed = 1;
nodes = (
"308 716 OFFCURVE",
"315 735 OFFCURVE",
"328 735 CURVE SMOOTH",
"335 735 OFFCURVE",
"345 726 OFFCURVE",
"357 708 CURVE",
"372 681 OFFCURVE",
"380 619 OFFCURVE",
"380 522 CURVE SMOOTH",
"380 503 OFFCURVE",
"379 489 OFFCURVE",
"376 482 CURVE",
"373 474 OFFCURVE",
"368 470 OFFCURVE",
"360 470 CURVE SMOOTH",
"347 470 OFFCURVE",
"337 477 OFFCURVE",
"330 492 CURVE SMOOTH",
"319 515 OFFCURVE",
"308 616 OFFCURVE",
"308 677 CURVE SMOOTH"
);
}
);
width = 572;
}
);
note = quotedbl;
unicode = 0022;
},
{
glyphname = numbersign;
layers = (
{
layerId = "8BD8650B-A4E1-42AA-8EA8-F95A9955B41A";
name = Regular;
paths = (
{
closed = 1;
nodes = (
"379 466 OFFCURVE",
"406 485 OFFCURVE",
"415 502 CURVE",
"420 510 OFFCURVE",
"424 521 OFFCURVE",
"428 534 CURVE",
"429 536 OFFCURVE",
"430 539 OFFCURVE",
"431 543 CURVE SMOOTH",
"432 547 OFFCURVE",
"432 550 OFFCURVE",
"433 552 CURVE SMOOTH",
"434 554 OFFCURVE",
"435 557 OFFCURVE",
"436 560 CURVE",
"438 567 OFFCURVE",
"438 569 OFFCURVE",
"442 574 CURVE SMOOTH",
"445 578 OFFCURVE",
"447 580 OFFCURVE",
"451 581 CURVE",
"453 582 OFFCURVE",
"455 582 OFFCURVE",
"458 582 CURVE SMOOTH",
"474 582 OFFCURVE",
"482 572 OFFCURVE",
"482 552 CURVE SMOOTH",
"482 547 OFFCURVE",
"482 542 OFFCURVE",
"481 535 CURVE SMOOTH",
"480 528 OFFCURVE",
"480 522 OFFCURVE",
"480 517 CURVE SMOOTH",
"480 496 OFFCURVE",
"485 494 OFFCURVE",
"505 494 CURVE SMOOTH",
"510 494 LINE SMOOTH",
"528 494 OFFCURVE",
"537 487 OFFCURVE",
"537 473 CURVE SMOOTH",
"537 452 OFFCURVE",
"510 422 OFFCURVE",
"491 422 CURVE SMOOTH",
"489 422 OFFCURVE",
"487 422 OFFCURVE",
"485 423 CURVE SMOOTH",
"483 424 OFFCURVE",
"481 424 OFFCURVE",
"480 424 CURVE SMOOTH",
"474 424 OFFCURVE",
"470 418 OFFCURVE",
"467 406 CURVE SMOOTH",
"464 394 OFFCURVE",
"458 360 OFFCURVE",
"449 305 CURVE SMOOTH",
"441 261 LINE",
"506 267 LINE SMOOTH",
"527 269 OFFCURVE",
"542 270 OFFCURVE",
"551 270 CURVE SMOOTH",
"563 270 OFFCURVE",
"569 267 OFFCURVE",
"569 260 CURVE SMOOTH",
"569 227 OFFCURVE",
"555 219 OFFCURVE",
"504 207 CURVE",
"421 184 OFFCURVE",
"417 182 OFFCURVE",
"416 131 CURVE SMOOTH",
"415 94 OFFCURVE",
"412 69 OFFCURVE",
"406 55 CURVE SMOOTH",
"400 41 OFFCURVE",
"389 33 OFFCURVE",
"373 31 CURVE SMOOTH",
"344 28 LINE",
"351 97 LINE",
"359 165 LINE",
"324 165 LINE SMOOTH",
"273 165 OFFCURVE",
"266 157 OFFCURVE",
"253 82 CURVE SMOOTH",
"243 21 OFFCURVE",
"230 -9 OFFCURVE",
"214 -9 CURVE SMOOTH",
"211 -9 OFFCURVE",
"208 -8 OFFCURVE",
"205 -7 CURVE",
"197 -4 OFFCURVE",
"187 12 OFFCURVE",
"187 36 CURVE SMOOTH",
"187 46 OFFCURVE",
"188 60 OFFCURVE",
"190 78 CURVE SMOOTH",
"197 145 LINE",
"140 145 LINE SMOOTH",
"122 145 OFFCURVE",
"108 146 OFFCURVE",
"98 148 CURVE",
"88 149 OFFCURVE",
"82 151 OFFCURVE",
"79 154 CURVE",
"76 156 OFFCURVE",
"75 159 OFFCURVE",
"75 163 CURVE SMOOTH",
"75 182 OFFCURVE",
"110 201 OFFCURVE",
"154 205 CURVE SMOOTH",
"210 210 OFFCURVE",
"217 219 OFFCURVE",
"229 286 CURVE",
"232 313 OFFCURVE",
"237 335 OFFCURVE",
"242 353 CURVE",
"248 378 LINE",
"175 370 LINE SMOOTH",
"143 367 OFFCURVE",
"126 366 OFFCURVE",
"125 366 CURVE SMOOTH",
"105 366 OFFCURVE",
"102 371 OFFCURVE",
"102 388 CURVE SMOOTH",
"102 408 OFFCURVE",
"111 414 OFFCURVE",
"148 425 CURVE SMOOTH",
"178 433 OFFCURVE",
"201 437 OFFCURVE",
"218 437 CURVE SMOOTH",
"234 437 OFFCURVE",
"245 442 OFFCURVE",
"250 451 CURVE SMOOTH",
"255 460 OFFCURVE",
"260 482 OFFCURVE",
"264 515 CURVE SMOOTH",
"269 562 OFFCURVE",
"275 572 OFFCURVE",
"300 572 CURVE SMOOTH",
"307 572 OFFCURVE",
"311 569 OFFCURVE",
"313 563 CURVE",
"315 556 OFFCURVE",
"317 542 OFFCURVE",
"318 519 CURVE SMOOTH",
"319 506 OFFCURVE",
"319 497 OFFCURVE",
"320 492 CURVE",
"320 480 OFFCURVE",
"324 470 OFFCURVE",
"328 468 CURVE SMOOTH",
"330 467 OFFCURVE",
"333 466 OFFCURVE",
"338 466 CURVE SMOOTH"
);
},
{
closed = 1;
nodes = (
"374 239 OFFCURVE",
"388 304 OFFCURVE",
"393 346 CURVE SMOOTH",
"396 367 OFFCURVE",
"397 379 OFFCURVE",
"397 383 CURVE SMOOTH",
"397 399 OFFCURVE",
"391 407 OFFCURVE",
"379 407 CURVE SMOOTH",
"367 407 OFFCURVE",
"319 400 OFFCURVE",
"309 379 CURVE SMOOTH",
"304 368 OFFCURVE",
"297 333 OFFCURVE",
"289 272 CURVE SMOOTH",
"282 217 LINE",
"312 223 LINE",
"339 230 OFFCURVE",
"354 234 OFFCURVE",
"358 235 CURVE SMOOTH"
);
}
);
width = 655;
}
);
note = numbersign;
unicode = 0023;
},
{
glyphname = dollar;
layers = (
{
layerId = "8BD8650B-A4E1-42AA-8EA8-F95A9955B41A";
name = Regular;
paths = (
{
closed = 1;
nodes = (
"449 474 OFFCURVE",
"432 483 OFFCURVE",
"408 501 CURVE",
"383 518 OFFCURVE",
"369 527 OFFCURVE",
"366 527 CURVE SMOOTH",
"363 527 OFFCURVE",
"360 504 OFFCURVE",
"355 458 CURVE SMOOTH",
"349 391 LINE",
"381 375 LINE SMOOTH",
"438 346 OFFCURVE",
"466 304 OFFCURVE",
"466 247 CURVE SMOOTH",
"466 182 OFFCURVE",
"417 92 OFFCURVE",
"349 72 CURVE",
"298 59 OFFCURVE",
"291 44 OFFCURVE",
"279 -57 CURVE SMOOTH",
"273 -110 OFFCURVE",
"269 -138 OFFCURVE",
"266 -141 CURVE",
"258 -145 OFFCURVE",
"246 -147 OFFCURVE",
"229 -147 CURVE SMOOTH",
"217 -147 OFFCURVE",
"214 -142 OFFCURVE",
"214 -125 CURVE SMOOTH",
"214 -88 OFFCURVE",
"219 -43 OFFCURVE",
"229 11 CURVE SMOOTH",
"241 82 LINE",
"205 113 LINE SMOOTH",
"161 150 OFFCURVE",
"126 218 OFFCURVE",
"126 255 CURVE SMOOTH",
"126 272 OFFCURVE",
"133 281 OFFCURVE",
"146 281 CURVE SMOOTH",
"154 281 OFFCURVE",
"162 276 OFFCURVE",
"169 267 CURVE",
"176 257 OFFCURVE",
"185 242 OFFCURVE",
"196 223 CURVE SMOOTH",
"207 203 OFFCURVE",
"217 186 OFFCURVE",
"227 173 CURVE SMOOTH",
"246 149 LINE",
"253 188 LINE",
"256 201 OFFCURVE",
"261 223 OFFCURVE",
"268 252 CURVE SMOOTH",
"275 281 OFFCURVE",
"278 301 OFFCURVE",
"278 312 CURVE SMOOTH",
"278 329 OFFCURVE",
"270 340 OFFCURVE",
"254 344 CURVE",
"213 356 OFFCURVE",
"171 395 OFFCURVE",
"171 430 CURVE SMOOTH",
"171 475 OFFCURVE",
"225 555 OFFCURVE",
"270 576 CURVE SMOOTH",
"305 592 OFFCURVE",
"308 597 OFFCURVE",
"319 657 CURVE SMOOTH",
"326 698 OFFCURVE",
"331 726 OFFCURVE",
"336 739 CURVE",
"339 750 OFFCURVE",
"350 756 OFFCURVE",
"367 756 CURVE SMOOTH",
"386 756 OFFCURVE",
"390 755 OFFCURVE",
"390 743 CURVE SMOOTH",
"390 738 OFFCURVE",
"387 718 OFFCURVE",
"381 681 CURVE SMOOTH",
"375 644 OFFCURVE",
"372 617 OFFCURVE",
"372 599 CURVE SMOOTH",
"372 585 OFFCURVE",
"374 578 OFFCURVE",
"378 578 CURVE SMOOTH",
"391 578 OFFCURVE",
"472 501 OFFCURVE",
"472 488 CURVE SMOOTH",
"472 479 OFFCURVE",
"468 474 OFFCURVE",
"459 474 CURVE SMOOTH"
);
},
{
closed = 1;
nodes = (
"284 380 OFFCURVE",
"288 393 OFFCURVE",
"292 419 CURVE SMOOTH",
"296 445 OFFCURVE",
"298 470 OFFCURVE",
"298 493 CURVE SMOOTH",
"298 519 OFFCURVE",
"297 536 OFFCURVE",
"294 544 CURVE",
"261 500 LINE SMOOTH",
"239 471 OFFCURVE",
"228 450 OFFCURVE",
"228 439 CURVE SMOOTH",
"228 422 OFFCURVE",
"266 380 OFFCURVE",
"281 380 CURVE SMOOTH"
);
},
{
closed = 1;
nodes = (
"410 283 OFFCURVE",
"385 313 OFFCURVE",
"366 324 CURVE",
"351 331 LINE",
"336 331 OFFCURVE",
"310 188 OFFCURVE",
"310 123 CURVE SMOOTH",
"310 104 OFFCURVE",
"313 95 OFFCURVE",
"319 95 CURVE SMOOTH",
"325 95 OFFCURVE",
"335 102 OFFCURVE",
"349 117 CURVE SMOOTH",
"377 145 OFFCURVE",
"410 201 OFFCURVE",
"410 246 CURVE SMOOTH"
);
}
);
width = 628;
}
);
note = dollar;
unicode = 0024;
},
{
glyphname = percent;
layers = (
{
layerId = "8BD8650B-A4E1-42AA-8EA8-F95A9955B41A";
name = Regular;
paths = (
{
closed = 1;
nodes = (
"440 109 OFFCURVE",
"495 195 OFFCURVE",
"530 195 CURVE SMOOTH",
"553 195 OFFCURVE",
"579 159 OFFCURVE",
"579 140 CURVE SMOOTH",
"579 112 OFFCURVE",
"535 42 OFFCURVE",
"486 42 CURVE SMOOTH",
"462 42 OFFCURVE",
"440 63 OFFCURVE",
"440 78 CURVE SMOOTH"
);
},
{
closed = 1;
nodes = (
"154 453 OFFCURVE",
"179 486 OFFCURVE",
"200 486 CURVE SMOOTH",
"219 486 OFFCURVE",
"255 460 OFFCURVE",
"255 419 CURVE SMOOTH",
"255 379 OFFCURVE",
"229 342 OFFCURVE",
"194 342 CURVE SMOOTH",
"170 342 OFFCURVE",
"154 372 OFFCURVE",
"154 408 CURVE SMOOTH"
);
},
{
closed = 1;
nodes = (
"96 -47 OFFCURVE",
"89 -46 OFFCURVE",
"82 -38 CURVE",
"78 -35 OFFCURVE",
"76 -30 OFFCURVE",
"76 -25 CURVE SMOOTH",
"76 -8 OFFCURVE",
"104 29 OFFCURVE",
"160 85 CURVE SMOOTH",
"252 176 OFFCURVE",
"381 323 OFFCURVE",
"449 415 CURVE SMOOTH",
"497 480 OFFCURVE",
"591 564 OFFCURVE",
"618 564 CURVE SMOOTH",
"627 564 OFFCURVE",
"632 555 OFFCURVE",
"632 538 CURVE SMOOTH",
"632 522 OFFCURVE",
"618 497 OFFCURVE",
"589 462 CURVE SMOOTH",
"560 427 OFFCURVE",
"523 385 OFFCURVE",
"476 334 CURVE SMOOTH",
"429 283 OFFCURVE",
"393 241 OFFCURVE",
"368 208 CURVE SMOOTH",
"343 174 OFFCURVE",
"295 122 OFFCURVE",
"223 52 CURVE SMOOTH",
"157 -14 OFFCURVE",
"116 -47 OFFCURVE",
"100 -47 CURVE SMOOTH"
);
}
);
width = 734;
}
);
note = percent;
unicode = 0025;
},
{
glyphname = ampersand;
lastChange = "2015-11-24 17:52:53 +0000";
layers = (
{
layerId = "8BD8650B-A4E1-42AA-8EA8-F95A9955B41A";
name = Regular;
paths = (
{
closed = 1;
nodes = (
"171 -45 OFFCURVE",
"116 -11 OFFCURVE",
"116 65 CURVE SMOOTH",
"116 106 OFFCURVE",
"130 154 OFFCURVE",
"158 211 CURVE SMOOTH",
"202 302 LINE",
"184 357 LINE SMOOTH",
"166 409 OFFCURVE",
"157 450 OFFCURVE",
"157 479 CURVE SMOOTH",
"157 526 OFFCURVE",
"178 555 OFFCURVE",
"229 586 CURVE SMOOTH",
"260 604 OFFCURVE",
"282 613 OFFCURVE",
"296 613 CURVE",
"308 610 LINE",
"316 609 OFFCURVE",
"323 608 OFFCURVE",
"329 608 CURVE SMOOTH",
"344 608 OFFCURVE",
"365 556 OFFCURVE",
"365 527 CURVE SMOOTH",
"365 508 OFFCURVE",
"352 469 OFFCURVE",
"325 412 CURVE SMOOTH",
"298 355 OFFCURVE",
"285 321 OFFCURVE",
"285 311 CURVE SMOOTH",
"285 284 OFFCURVE",
"377 199 OFFCURVE",
"408 199 CURVE SMOOTH",
"429 199 OFFCURVE",
"459 238 OFFCURVE",
"481 276 CURVE SMOOTH",
"503 314 OFFCURVE",
"534 352 OFFCURVE",
"559 352 CURVE SMOOTH",
"574 352 OFFCURVE",
"592 335 OFFCURVE",
"592 323 CURVE SMOOTH",
"592 313 OFFCURVE",
"574 285 OFFCURVE",
"538 238 CURVE SMOOTH",
"501 191 OFFCURVE",
"483 163 OFFCURVE",
"483 154 CURVE SMOOTH",
"483 150 OFFCURVE",
"486 148 OFFCURVE",
"492 148 CURVE SMOOTH",
"498 148 OFFCURVE",
"508 143 OFFCURVE",
"522 132 CURVE SMOOTH",
"536 121 OFFCURVE",
"549 116 OFFCURVE",
"562 116 CURVE SMOOTH",
"599 116 OFFCURVE",
"651 84 OFFCURVE",
"651 61 CURVE SMOOTH",
"651 43 OFFCURVE",
"639 34 OFFCURVE",
"616 34 CURVE SMOOTH",
"579 34 OFFCURVE",
"535 53 OFFCURVE",
"484 90 CURVE SMOOTH",
"446 117 LINE",
"389 67 LINE SMOOTH",
"342 26 OFFCURVE",
"240 -45 OFFCURVE",
"208 -45 CURVE SMOOTH"
);
},
{
closed = 1;
nodes = (
"233 417 OFFCURVE",
"237 395 OFFCURVE",
"245 395 CURVE SMOOTH",
"252 395 OFFCURVE",
"263 402 OFFCURVE",
"276 417 CURVE SMOOTH",
"293 436 OFFCURVE",
"301 463 OFFCURVE",
"301 498 CURVE SMOOTH",
"301 533 OFFCURVE",
"297 551 OFFCURVE",
"289 551 CURVE SMOOTH",
"278 551 OFFCURVE",
"245 530 OFFCURVE",
"238 511 CURVE",
"235 501 OFFCURVE",
"233 484 OFFCURVE",
"233 460 CURVE SMOOTH"
);
},
{
closed = 1;
nodes = (
"177 44 OFFCURVE",
"187 25 OFFCURVE",
"203 25 CURVE SMOOTH",
"213 25 OFFCURVE",
"240 38 OFFCURVE",
"283 64 CURVE SMOOTH",
"326 90 OFFCURVE",
"353 104 OFFCURVE",
"364 106 CURVE SMOOTH",
"379 109 OFFCURVE",
"386 114 OFFCURVE",
"386 121 CURVE SMOOTH",
"386 128 OFFCURVE",
"379 137 OFFCURVE",
"365 147 CURVE SMOOTH",
"351 157 OFFCURVE",
"334 169 OFFCURVE",
"313 183 CURVE SMOOTH",
"292 197 OFFCURVE",
"276 210 OFFCURVE",
"266 222 CURVE SMOOTH",
"245 248 LINE",
"211 182 LINE SMOOTH",
"188 139 OFFCURVE",
"177 102 OFFCURVE",
"177 71 CURVE SMOOTH"
);
}
);
width = 734;
}
);
note = ampersand;
unicode = 0026;
},
{
glyphname = quotesingle;
lastChange = "2015-11-25 18:45:33 +0000";
layers = (
{
layerId = "8BD8650B-A4E1-42AA-8EA8-F95A9955B41A";
name = Regular;
paths = (
{
closed = 1;
nodes = (
"256 695 OFFCURVE",
"267 701 OFFCURVE",
"282 701 CURVE SMOOTH",
"309 701 OFFCURVE",
"392 690 OFFCURVE",
"401 685 CURVE",
"404 683 OFFCURVE",
"406 678 OFFCURVE",
"406 669 CURVE SMOOTH",
"406 649 OFFCURVE",
"394 614 OFFCURVE",
"382 599 CURVE",
"372 588 OFFCURVE",
"364 561 OFFCURVE",
"358 519 CURVE SMOOTH",
"354 491 OFFCURVE",
"350 473 OFFCURVE",
"346 465 CURVE",
"341 457 OFFCURVE",
"334 453 OFFCURVE",
"323 453 CURVE SMOOTH",
"288 453 OFFCURVE",
"256 498 OFFCURVE",
"255 551 CURVE SMOOTH",
"254 576 OFFCURVE",
"251 594 OFFCURVE",
"246 603 CURVE SMOOTH",
"241 612 OFFCURVE",
"238 622 OFFCURVE",
"238 632 CURVE SMOOTH",
"238 653 OFFCURVE",
"242 670 OFFCURVE",
"250 684 CURVE SMOOTH"
);
}
);
width = 613;
}
);
note = quotesingle;
unicode = 0027;
},
{
glyphname = parenleft;
lastChange = "2015-11-24 17:52:12 +0000";
layers = (
{
layerId = "8BD8650B-A4E1-42AA-8EA8-F95A9955B41A";
name = Regular;
paths = (
{
closed = 1;
nodes = (
"476 -132 OFFCURVE",
"456 -140 OFFCURVE",
"440 -140 CURVE SMOOTH",
"396 -140 OFFCURVE",
"315 -44 OFFCURVE",
"252 79 CURVE SMOOTH",
"221 140 OFFCURVE",
"200 196 OFFCURVE",
"191 245 CURVE SMOOTH",
"186 270 OFFCURVE",
"183 289 OFFCURVE",
"183 302 CURVE SMOOTH",
"183 321 OFFCURVE",
"187 349 OFFCURVE",
"195 384 CURVE SMOOTH",
"203 419 OFFCURVE",
"221 490 OFFCURVE",
"248 597 CURVE SMOOTH",
"272 694 OFFCURVE",
"297 745 OFFCURVE",
"345 796 CURVE SMOOTH",
"376 828 OFFCURVE",
"402 844 OFFCURVE",
"423 844 CURVE SMOOTH",
"433 844 OFFCURVE",
"438 839 OFFCURVE",
"438 829 CURVE SMOOTH",
"438 817 OFFCURVE",
"425 790 OFFCURVE",
"398 749 CURVE SMOOTH",
"342 658 OFFCURVE",
"270 419 OFFCURVE",
"270 296 CURVE SMOOTH",
"270 229 OFFCURVE",
"277 202 OFFCURVE",
"320 121 CURVE SMOOTH",
"355 54 OFFCURVE",
"390 2 OFFCURVE",
"426 -33 CURVE SMOOTH",
"459 -65 OFFCURVE",
"476 -91 OFFCURVE",
"476 -112 CURVE SMOOTH"
);
}
);
width = 501;
}
);
note = parenleft;
unicode = 0028;
},
{
glyphname = parenright;
lastChange = "2015-11-24 17:52:22 +0000";
layers = (
{
layerId = "8BD8650B-A4E1-42AA-8EA8-F95A9955B41A";
name = Regular;
paths = (
{
closed = 1;
nodes = (
"25 830 OFFCURVE",
"33 837 OFFCURVE",
"48 837 CURVE SMOOTH",
"103 837 OFFCURVE",
"208 723 OFFCURVE",
"237 624 CURVE SMOOTH",
"259 554 OFFCURVE",
"270 458 OFFCURVE",
"270 337 CURVE SMOOTH",
"270 186 OFFCURVE",
"244 108 OFFCURVE",
"212 35 CURVE SMOOTH",
"196 -2 OFFCURVE",
"180 -34 OFFCURVE",
"164 -62 CURVE SMOOTH",
"148 -90 OFFCURVE",
"137 -112 OFFCURVE",
"131 -128 CURVE SMOOTH",
"122 -154 OFFCURVE",
"105 -167 OFFCURVE",
"82 -167 CURVE SMOOTH",
"62 -167 OFFCURVE",
"38 -160 OFFCURVE",
"38 -151 CURVE SMOOTH",
"38 -134 OFFCURVE",
"57 -89 OFFCURVE",
"96 -14 CURVE SMOOTH",
"133 57 OFFCURVE",
"148 80 OFFCURVE",
"170 185 CURVE SMOOTH",
"181 237 OFFCURVE",
"186 294 OFFCURVE",
"186 356 CURVE SMOOTH",
"186 465 OFFCURVE",
"165 567 OFFCURVE",
"141 626 CURVE SMOOTH",
"116 685 OFFCURVE",
"85 732 OFFCURVE",
"69 749 CURVE SMOOTH",
"60 758 OFFCURVE",
"55 762 OFFCURVE",
"53 763 CURVE",
"38 768 OFFCURVE",
"25 796 OFFCURVE",
"25 816 CURVE SMOOTH"
);
}
);
width = 459;
}
);
note = parenright;
unicode = 0029;
},
{
glyphname = asterisk;
lastChange = "2015-11-25 18:37:35 +0000";
layers = (
{
layerId = "8BD8650B-A4E1-42AA-8EA8-F95A9955B41A";
name = Regular;
paths = (
{
closed = 1;
nodes = (
"566 318 OFFCURVE",
"574 313 OFFCURVE",
"574 285 CURVE SMOOTH",
"574 277 OFFCURVE",
"571 270 OFFCURVE",
"564 267 CURVE SMOOTH",
"556 263 OFFCURVE",
"541 258 OFFCURVE",
"516 253 CURVE SMOOTH",
"482 246 LINE",
"513 221 LINE SMOOTH",
"531 207 OFFCURVE",
"539 197 OFFCURVE",
"539 190 CURVE SMOOTH",
"539 180 OFFCURVE",
"523 149 OFFCURVE",
"511 149 CURVE SMOOTH",
"503 149 OFFCURVE",
"486 159 OFFCURVE",
"460 179 CURVE SMOOTH",
"433 198 OFFCURVE",
"418 207 OFFCURVE",
"413 207 CURVE SMOOTH",
"410 207 OFFCURVE",
"408 203 OFFCURVE",
"408 195 CURVE SMOOTH",
"408 185 OFFCURVE",
"412 174 OFFCURVE",
"418 165 CURVE SMOOTH",
"425 156 OFFCURVE",
"428 149 OFFCURVE",
"428 146 CURVE SMOOTH",
"428 131 OFFCURVE",
"410 116 OFFCURVE",
"387 116 CURVE SMOOTH",
"384 116 OFFCURVE",
"380 116 OFFCURVE",
"376 117 CURVE SMOOTH",
"372 118 OFFCURVE",
"368 118 OFFCURVE",
"365 118 CURVE SMOOTH",
"352 118 OFFCURVE",
"339 113 OFFCURVE",
"325 102 CURVE SMOOTH",
"311 91 OFFCURVE",
"300 86 OFFCURVE",
"290 86 CURVE SMOOTH",
"275 86 OFFCURVE",
"263 96 OFFCURVE",
"263 114 CURVE SMOOTH",
"263 124 OFFCURVE",
"273 139 OFFCURVE",
"291 162 CURVE SMOOTH",
"309 183 OFFCURVE",
"318 197 OFFCURVE",
"318 202 CURVE SMOOTH",
"318 210 OFFCURVE",
"304 214 OFFCURVE",
"277 214 CURVE SMOOTH",
"242 214 OFFCURVE",
"212 228 OFFCURVE",
"212 242 CURVE SMOOTH",
"212 248 OFFCURVE",
"216 252 OFFCURVE",
"225 254 CURVE",
"248 261 OFFCURVE",
"272 270 OFFCURVE",
"296 281 CURVE SMOOTH",
"319 292 OFFCURVE",
"331 298 OFFCURVE",
"331 302 CURVE SMOOTH",
"331 305 OFFCURVE",
"324 314 OFFCURVE",
"309 330 CURVE SMOOTH",
"280 361 OFFCURVE",
"243 407 OFFCURVE",
"243 432 CURVE SMOOTH",
"243 447 OFFCURVE",
"255 457 OFFCURVE",
"268 457 CURVE SMOOTH",
"283 457 OFFCURVE",
"297 444 OFFCURVE",
"297 427 CURVE SMOOTH",
"297 409 OFFCURVE",
"314 386 OFFCURVE",
"325 386 CURVE SMOOTH",
"329 386 OFFCURVE",
"331 394 OFFCURVE",
"331 409 CURVE SMOOTH",
"331 438 OFFCURVE",
"344 478 OFFCURVE",
"363 478 CURVE SMOOTH",
"369 478 OFFCURVE",
"374 474 OFFCURVE",
"378 467 CURVE SMOOTH",
"382 460 OFFCURVE",
"384 447 OFFCURVE",
"387 431 CURVE SMOOTH",
"389 414 OFFCURVE",
"391 402 OFFCURVE",
"393 394 CURVE",
"395 381 OFFCURVE",
"397 374 OFFCURVE",
"400 374 CURVE SMOOTH",
"402 374 OFFCURVE",
"411 384 OFFCURVE",
"425 404 CURVE SMOOTH",
"455 450 OFFCURVE",
"489 478 OFFCURVE",
"509 478 CURVE SMOOTH",
"521 478 OFFCURVE",
"531 468 OFFCURVE",
"531 456 CURVE SMOOTH",
"531 445 OFFCURVE",
"525 435 OFFCURVE",
"513 425 CURVE SMOOTH",
"497 412 OFFCURVE",
"453 334 OFFCURVE",
"453 320 CURVE SMOOTH",
"453 317 OFFCURVE",
"465 316 OFFCURVE",
"488 316 CURVE SMOOTH",
"496 316 OFFCURVE",
"505 316 OFFCURVE",
"517 317 CURVE SMOOTH",
"528 318 OFFCURVE",
"536 318 OFFCURVE",
"541 318 CURVE SMOOTH"
);
}
);
width = 773;
}
);
leftKerningGroup = Operator;
note = asterisk;
rightKerningGroup = Operator;
unicode = 002A;
},
{
glyphname = plus;
lastChange = "2015-11-25 18:37:31 +0000";
layers = (
{
layerId = "8BD8650B-A4E1-42AA-8EA8-F95A9955B41A";
name = Regular;
paths = (
{
closed = 1;
nodes = (
"603 419 OFFCURVE",
"615 400 OFFCURVE",
"617 389 CURVE SMOOTH",
"618 384 OFFCURVE",
"618 379 OFFCURVE",
"618 374 CURVE SMOOTH",
"618 359 OFFCURVE",
"609 350 OFFCURVE",
"584 345 CURVE SMOOTH",
"559 340 OFFCURVE",
"538 337 OFFCURVE",
"489 332 CURVE SMOOTH",
"464 329 OFFCURVE",
"442 326 OFFCURVE",
"421 323 CURVE",
"386 316 LINE",
"378 20 LINE",
"312 20 LINE",
"304 320 LINE",
"236 309 LINE SMOOTH",
"185 302 OFFCURVE",
"150 298 OFFCURVE",
"131 298 CURVE SMOOTH",
"98 298 OFFCURVE",
"89 306 OFFCURVE",
"89 330 CURVE SMOOTH",
"89 345 OFFCURVE",
"94 356 OFFCURVE",
"105 362 CURVE",
"115 367 OFFCURVE",
"144 374 OFFCURVE",
"191 383 CURVE SMOOTH",
"292 403 LINE",
"292 471 LINE SMOOTH",
"292 514 OFFCURVE",
"295 544 OFFCURVE",
"300 560 CURVE",
"306 574 OFFCURVE",
"319 581 OFFCURVE",
"339 581 CURVE SMOOTH",
"353 581 OFFCURVE",
"362 576 OFFCURVE",
"367 567 CURVE",
"371 557 OFFCURVE",
"375 531 OFFCURVE",
"379 488 CURVE SMOOTH",
"388 395 LINE",
"462 403 LINE SMOOTH",
"505 407 OFFCURVE",
"547 413 OFFCURVE",
"567 417 CURVE",
"577 418 OFFCURVE",
"583 419 OFFCURVE",
"586 419 CURVE SMOOTH"
);
}
);
width = 715;
}
);
leftKerningGroup = Operator;
note = plus;
rightKerningGroup = Operator;
unicode = 002B;
},
{
glyphname = comma;
layers = (
{
layerId = "8BD8650B-A4E1-42AA-8EA8-F95A9955B41A";
name = Regular;
paths = (
{
closed = 1;
nodes = (
"244 102 OFFCURVE",
"265 142 OFFCURVE",
"280 164 CURVE SMOOTH",
"294 185 OFFCURVE",
"306 196 OFFCURVE",
"315 196 CURVE SMOOTH",
"336 196 OFFCURVE",
"347 187 OFFCURVE",
"347 168 CURVE SMOOTH",
"347 117 OFFCURVE",
"227 -99 OFFCURVE",
"204 -134 CURVE SMOOTH",
"192 -151 OFFCURVE",
"181 -160 OFFCURVE",
"170 -160 CURVE SMOOTH",
"155 -160 OFFCURVE",
"147 -151 OFFCURVE",
"147 -134 CURVE SMOOTH",
"147 -105 OFFCURVE",
"170 -46 OFFCURVE",
"215 45 CURVE SMOOTH"
);
}
);
width = 496;
}
);
note = comma;
unicode = 002C;
},
{
glyphname = hyphen;
lastChange = "2015-11-25 18:38:12 +0000";
layers = (
{
layerId = "8BD8650B-A4E1-42AA-8EA8-F95A9955B41A";
name = Regular;
paths = (
{
closed = 1;
nodes = (
"360 338 OFFCURVE",
"419 340 OFFCURVE",
"502 340 CURVE SMOOTH",
"570 340 OFFCURVE",
"616 339 OFFCURVE",
"638 337 CURVE SMOOTH",
"661 334 OFFCURVE",
"675 329 OFFCURVE",
"680 320 CURVE SMOOTH",
"684 314 OFFCURVE",
"687 308 OFFCURVE",
"687 303 CURVE SMOOTH",
"687 292 OFFCURVE",
"672 285 OFFCURVE",
"642 281 CURVE SMOOTH",
"612 276 OFFCURVE",
"552 273 OFFCURVE",
"463 272 CURVE SMOOTH",
"258 267 LINE",
"261 298 LINE SMOOTH",
"263 311 OFFCURVE",
"266 320 OFFCURVE",
"273 325 CURVE SMOOTH",
"279 329 OFFCURVE",
"296 332 OFFCURVE",
"324 335 CURVE SMOOTH"
);
}
);
width = 931;
}
);
leftKerningGroup = Operator;
note = hyphen;
rightKerningGroup = Operator;
unicode = 002D;
},
{
glyphname = period;
lastChange = "2015-11-25 18:42:00 +0000";
layers = (
{
layerId = "8BD8650B-A4E1-42AA-8EA8-F95A9955B41A";
name = Regular;
paths = (
{
closed = 1;
nodes = (
"137 64 OFFCURVE",
"232 157 OFFCURVE",
"255 157 CURVE SMOOTH",
"269 157 OFFCURVE",
"276 162 OFFCURVE",
"276 173 CURVE SMOOTH",
"276 181 OFFCURVE",
"288 189 OFFCURVE",
"301 189 CURVE SMOOTH",
"314 189 OFFCURVE",
"325 181 OFFCURVE",
"325 173 CURVE SMOOTH",
"325 162 OFFCURVE",
"335 157 OFFCURVE",
"354 157 CURVE SMOOTH",
"389 157 OFFCURVE",
"415 118 OFFCURVE",
"415 73 CURVE SMOOTH",
"415 0 OFFCURVE",
"333 -93 OFFCURVE",
"246 -93 CURVE SMOOTH",
"171 -93 OFFCURVE",
"137 -25 OFFCURVE",
"137 16 CURVE SMOOTH"
);
},
{
closed = 1;
nodes = (
"290 12 OFFCURVE",
"319 42 OFFCURVE",
"319 51 CURVE SMOOTH",
"319 54 OFFCURVE",
"315 56 OFFCURVE",
"306 56 CURVE SMOOTH",
"274 56 OFFCURVE",
"252 40 OFFCURVE",
"252 23 CURVE SMOOTH",
"252 16 OFFCURVE",
"257 12 OFFCURVE",
"266 12 CURVE SMOOTH"
);
}
);
width = 545;
}
);
note = period;
unicode = 002E;
},
{
glyphname = slash;
lastChange = "2015-11-25 18:42:50 +0000";
layers = (
{
layerId = "8BD8650B-A4E1-42AA-8EA8-F95A9955B41A";
name = Regular;
paths = (
{
closed = 1;
nodes = (
"495 866 OFFCURVE",
"515 851 OFFCURVE",
"515 828 CURVE SMOOTH",
"515 819 OFFCURVE",
"512 809 OFFCURVE",
"507 797 CURVE SMOOTH",
"502 785 OFFCURVE",
"493 767 OFFCURVE",
"482 742 CURVE SMOOTH",
"471 717 OFFCURVE",
"460 690 OFFCURVE",
"450 661 CURVE SMOOTH",
"430 605 OFFCURVE",
"339 424 OFFCURVE",
"276 299 CURVE SMOOTH",
"244 236 OFFCURVE",
"228 202 OFFCURVE",
"228 197 CURVE SMOOTH",
"228 188 OFFCURVE",
"211 151 OFFCURVE",
"176 84 CURVE SMOOTH",
"90 -88 LINE SMOOTH",
"67 -135 OFFCURVE",
"47 -159 OFFCURVE",
"30 -159 CURVE SMOOTH",
"10 -159 OFFCURVE",
"0 -151 OFFCURVE",
"0 -134 CURVE SMOOTH",
"0 -121 OFFCURVE",
"5 -103 OFFCURVE",
"16 -80 CURVE SMOOTH",
"26 -58 OFFCURVE",
"43 -24 OFFCURVE",
"67 22 CURVE SMOOTH",
"91 67 OFFCURVE",
"112 110 OFFCURVE",
"130 150 CURVE SMOOTH",
"390 700 LINE SMOOTH",
"409 740 OFFCURVE",
"423 794 OFFCURVE",
"428 820 CURVE SMOOTH",
"433 846 OFFCURVE",
"447 866 OFFCURVE",
"474 866 CURVE SMOOTH"
);
}
);
width = 515;
}
);
leftKerningGroup = Operator;
note = slash;
unicode = 002F;
},
{
glyphname = zero;
layers = (
{
layerId = "8BD8650B-A4E1-42AA-8EA8-F95A9955B41A";
name = Regular;
paths = (
{
closed = 1;
nodes = (
"194 481 OFFCURVE",
"206 498 OFFCURVE",
"230 523 CURVE SMOOTH",
"278 573 OFFCURVE",
"352 627 OFFCURVE",
"384 627 CURVE SMOOTH",
"431 627 OFFCURVE",
"501 552 OFFCURVE",
"501 433 CURVE SMOOTH",
"501 348 OFFCURVE",
"472 253 OFFCURVE",
"415 148 CURVE SMOOTH",
"368 61 OFFCURVE",
"324 21 OFFCURVE",
"257 2 CURVE SMOOTH",
"242 -2 OFFCURVE",
"228 -4 OFFCURVE",
"215 -4 CURVE SMOOTH",
"168 -4 OFFCURVE",
"130 26 OFFCURVE",
"103 85 CURVE SMOOTH",
"88 115 OFFCURVE",
"81 137 OFFCURVE",
"81 152 CURVE SMOOTH",
"81 181 OFFCURVE",
"100 239 OFFCURVE",
"138 326 CURVE SMOOTH",
"175 412 OFFCURVE",
"194 461 OFFCURVE",
"194 473 CURVE SMOOTH"
);
},
{
closed = 1;
nodes = (
"446 516 OFFCURVE",
"424 550 OFFCURVE",
"381 550 CURVE SMOOTH",
"363 550 OFFCURVE",
"345 544 OFFCURVE",
"328 533 CURVE SMOOTH",
"257 486 OFFCURVE",
"152 257 OFFCURVE",
"152 145 CURVE SMOOTH",
"152 97 OFFCURVE",
"188 57 OFFCURVE",
"232 57 CURVE SMOOTH",
"261 57 OFFCURVE",
"280 68 OFFCURVE",
"321 107 CURVE SMOOTH",
"355 140 OFFCURVE",
"372 161 OFFCURVE",
"372 171 CURVE SMOOTH",
"372 176 OFFCURVE",
"378 192 OFFCURVE",
"391 218 CURVE SMOOTH",
"415 270 OFFCURVE",
"446 360 OFFCURVE",
"446 447 CURVE SMOOTH"
);
}
);
width = 564;
}
);
note = zero;
unicode = 0030;
},
{
glyphname = one;
layers = (
{
layerId = "8BD8650B-A4E1-42AA-8EA8-F95A9955B41A";
name = Regular;
paths = (
{
closed = 1;
nodes = (
"75 370 OFFCURVE",
"64 378 OFFCURVE",
"64 393 CURVE SMOOTH",
"64 408 OFFCURVE",
"70 416 OFFCURVE",
"90 438 CURVE SMOOTH",
"100 449 OFFCURVE",
"109 460 OFFCURVE",
"118 472 CURVE SMOOTH",
"151 516 LINE",
"156 522 OFFCURVE",
"164 536 OFFCURVE",
"176 557 CURVE SMOOTH",
"188 578 OFFCURVE",
"200 595 OFFCURVE",
"211 610 CURVE SMOOTH",
"222 624 OFFCURVE",
"231 631 OFFCURVE",
"240 631 CURVE SMOOTH",
"254 631 OFFCURVE",
"263 610 OFFCURVE",
"268 567 CURVE SMOOTH",
"276 495 OFFCURVE",
"286 231 OFFCURVE",
"286 92 CURVE SMOOTH",
"286 48 OFFCURVE",
"285 24 OFFCURVE",
"283 19 CURVE",
"278 8 OFFCURVE",
"272 2 OFFCURVE",
"265 2 CURVE SMOOTH",
"256 2 OFFCURVE",
"247 14 OFFCURVE",
"239 37 CURVE SMOOTH",
"230 62 OFFCURVE",
"226 145 OFFCURVE",
"226 287 CURVE",
"225 431 OFFCURVE",
"221 503 OFFCURVE",
"214 503 CURVE SMOOTH",
"209 503 OFFCURVE",
"198 492 OFFCURVE",
"182 470 CURVE SMOOTH",
"150 425 OFFCURVE",
"109 370 OFFCURVE",
"86 370 CURVE SMOOTH"
);
}
);
width = 352;
}
);
note = one;
unicode = 0031;
},
{
glyphname = two;
layers = (
{
layerId = "8BD8650B-A4E1-42AA-8EA8-F95A9955B41A";
name = Regular;
paths = (
{
closed = 1;
nodes = (
"631 84 OFFCURVE",
"650 83 OFFCURVE",
"662 80 CURVE SMOOTH",
"685 75 OFFCURVE",
"686 69 OFFCURVE",
"686 52 CURVE SMOOTH",
"686 41 OFFCURVE",
"681 35 OFFCURVE",
"670 34 CURVE SMOOTH",
"659 33 OFFCURVE",
"633 31 OFFCURVE",
"593 29 CURVE SMOOTH",
"553 27 OFFCURVE",
"511 22 OFFCURVE",
"466 13 CURVE SMOOTH",
"435 7 OFFCURVE",
"401 2 OFFCURVE",
"365 -3 CURVE SMOOTH",
"329 -8 OFFCURVE",
"303 -12 OFFCURVE",
"286 -15 CURVE SMOOTH",
"269 -18 OFFCURVE",
"259 -22 OFFCURVE",
"254 -27 CURVE SMOOTH",
"249 -32 OFFCURVE",
"241 -34 OFFCURVE",
"232 -34 CURVE SMOOTH",
"211 -34 OFFCURVE",
"189 -20 OFFCURVE",
"189 -4 CURVE SMOOTH",
"189 13 OFFCURVE",
"245 88 OFFCURVE",
"284 121 CURVE SMOOTH",
"332 161 OFFCURVE",
"449 381 OFFCURVE",
"449 489 CURVE SMOOTH",
"449 533 OFFCURVE",
"427 546 OFFCURVE",
"367 546 CURVE SMOOTH",
"295 546 OFFCURVE",
"223 509 OFFCURVE",
"150 436 CURVE SMOOTH",
"105 392 OFFCURVE",
"81 370 OFFCURVE",
"78 370 CURVE SMOOTH",
"75 370 OFFCURVE",
"73 381 OFFCURVE",
"73 404 CURVE SMOOTH",
"73 427 OFFCURVE",
"82 444 OFFCURVE",
"99 453 CURVE SMOOTH",
"117 462 OFFCURVE",
"126 471 OFFCURVE",
"126 480 CURVE SMOOTH",
"126 487 OFFCURVE",
"132 496 OFFCURVE",
"145 506 CURVE",
"157 516 OFFCURVE",
"166 523 OFFCURVE",
"186 537 CURVE SMOOTH",
"196 544 OFFCURVE",
"204 549 OFFCURVE",
"210 554 CURVE SMOOTH",
"237 577 OFFCURVE",
"303 606 OFFCURVE",
"375 606 CURVE SMOOTH",
"436 606 OFFCURVE",
"475 589 OFFCURVE",
"493 556 CURVE SMOOTH",
"500 543 OFFCURVE",
"504 522 OFFCURVE",
"504 492 CURVE SMOOTH",
"504 383 OFFCURVE",
"472 313 OFFCURVE",
"394 186 CURVE SMOOTH",
"355 122 OFFCURVE",
"325 81 OFFCURVE",
"306 63 CURVE SMOOTH",
"299 56 OFFCURVE",
"295 51 OFFCURVE",
"295 49 CURVE SMOOTH",
"295 48 OFFCURVE",
"296 48 OFFCURVE",
"299 48 CURVE SMOOTH",
"300 48 OFFCURVE",
"316 51 OFFCURVE",
"349 57 CURVE SMOOTH",
"414 69 OFFCURVE",
"525 84 OFFCURVE",
"605 84 CURVE SMOOTH"
);
}
);
width = 772;
}
);
note = two;
unicode = 0032;
},
{
glyphname = three;
layers = (
{
layerId = "8BD8650B-A4E1-42AA-8EA8-F95A9955B41A";
name = Regular;
paths = (
{
closed = 1;
nodes = (
"339 539 OFFCURVE",
"239 523 OFFCURVE",
"167 510 CURVE SMOOTH",
"130 503 OFFCURVE",
"111 500 OFFCURVE",
"110 500 CURVE SMOOTH",
"101 500 OFFCURVE",
"97 504 OFFCURVE",
"97 513 CURVE SMOOTH",
"97 525 OFFCURVE",
"93 531 OFFCURVE",
"85 531 CURVE SMOOTH",
"78 531 OFFCURVE",
"74 534 OFFCURVE",
"74 541 CURVE SMOOTH",
"74 546 OFFCURVE",
"85 551 OFFCURVE",
"107 558 CURVE SMOOTH",
"150 571 OFFCURVE",
"221 585 OFFCURVE",
"285 597 CURVE SMOOTH",
"316 603 OFFCURVE",
"345 608 OFFCURVE",
"372 613 CURVE SMOOTH",
"398 617 OFFCURVE",
"412 619 OFFCURVE",
"415 620 CURVE",
"422 621 OFFCURVE",
"430 623 OFFCURVE",
"438 625 CURVE",
"445 626 OFFCURVE",
"451 627 OFFCURVE",
"455 628 CURVE",
"458 629 OFFCURVE",
"461 629 OFFCURVE",
"462 629 CURVE SMOOTH",
"475 629 OFFCURVE",
"495 603 OFFCURVE",
"495 587 CURVE SMOOTH",
"495 579 OFFCURVE",
"472 549 OFFCURVE",
"427 498 CURVE SMOOTH",
"381 446 OFFCURVE",
"358 419 OFFCURVE",
"358 416 CURVE SMOOTH",
"358 412 OFFCURVE",
"369 410 OFFCURVE",
"391 410 CURVE SMOOTH",
"428 410 OFFCURVE",
"490 351 OFFCURVE",
"502 304 CURVE",
"505 294 OFFCURVE",
"506 281 OFFCURVE",
"506 266 CURVE SMOOTH",
"506 154 OFFCURVE",
"450 71 OFFCURVE",
"363 25 CURVE SMOOTH",
"320 2 OFFCURVE",
"279 -10 OFFCURVE",
"240 -10 CURVE SMOOTH",
"153 -10 OFFCURVE",
"143 48 OFFCURVE",
"143 93 CURVE SMOOTH",
"143 120 OFFCURVE",
"149 134 OFFCURVE",
"162 134 CURVE SMOOTH",
"185 134 OFFCURVE",
"210 102 OFFCURVE",
"210 71 CURVE",
"211 48 OFFCURVE",
"216 46 OFFCURVE",
"256 46 CURVE SMOOTH",
"311 46 OFFCURVE",
"378 83 OFFCURVE",
"414 132 CURVE SMOOTH",
"430 154 OFFCURVE",
"438 188 OFFCURVE",
"438 235 CURVE SMOOTH",
"438 318 OFFCURVE",
"420 348 OFFCURVE",
"368 348 CURVE SMOOTH",
"319 348 OFFCURVE",
"285 330 OFFCURVE",
"264 315 CURVE SMOOTH",
"253 307 OFFCURVE",
"243 303 OFFCURVE",
"234 303 CURVE SMOOTH",
"214 303 OFFCURVE",
"201 316 OFFCURVE",
"201 336 CURVE SMOOTH",
"201 349 OFFCURVE",
"205 355 OFFCURVE",
"213 355 CURVE SMOOTH",
"222 355 OFFCURVE",
"235 365 OFFCURVE",
"254 385 CURVE",
"333 476 OFFCURVE",
"373 527 OFFCURVE",
"373 537 CURVE SMOOTH",
"373 538 OFFCURVE",
"371 539 OFFCURVE",
"367 539 CURVE SMOOTH"
);
}
);
width = 568;
}
);
note = three;
unicode = 0033;
},
{
glyphname = four;
layers = (
{
layerId = "8BD8650B-A4E1-42AA-8EA8-F95A9955B41A";
name = Regular;
paths = (
{
closed = 1;
nodes = (
"339 584 OFFCURVE",
"346 589 OFFCURVE",
"352 598 CURVE",
"357 607 OFFCURVE",
"363 612 OFFCURVE",
"370 612 CURVE SMOOTH",
"383 612 OFFCURVE",
"395 598 OFFCURVE",
"395 587 CURVE SMOOTH",
"395 573 OFFCURVE",
"388 559 OFFCURVE",
"373 544 CURVE",
"362 531 OFFCURVE",
"355 519 OFFCURVE",
"353 506 CURVE",
"350 493 OFFCURVE",
"349 464 OFFCURVE",
"349 417 CURVE SMOOTH",
"349 379 OFFCURVE",
"350 351 OFFCURVE",
"352 334 CURVE SMOOTH",
"354 316 OFFCURVE",
"356 306 OFFCURVE",
"359 303 CURVE",
"361 300 OFFCURVE",
"365 298 OFFCURVE",
"371 298 CURVE SMOOTH",
"390 298 OFFCURVE",
"441 316 OFFCURVE",
"450 323 CURVE",
"453 326 OFFCURVE",
"457 327 OFFCURVE",
"464 327 CURVE SMOOTH",
"485 327 OFFCURVE",
"511 313 OFFCURVE",
"511 294 CURVE SMOOTH",
"511 281 OFFCURVE",
"498 267 OFFCURVE",
"477 266 CURVE",
"457 263 OFFCURVE",
"432 257 OFFCURVE",
"403 248 CURVE SMOOTH",
"358 233 LINE",
"362 149 LINE SMOOTH",
"363 118 OFFCURVE",
"366 93 OFFCURVE",
"370 73 CURVE SMOOTH",
"374 53 OFFCURVE",
"378 39 OFFCURVE",
"381 31 CURVE SMOOTH",
"384 23 OFFCURVE",
"386 17 OFFCURVE",
"386 14 CURVE SMOOTH",
"386 1 OFFCURVE",
"367 -17 OFFCURVE",
"354 -17 CURVE SMOOTH",
"331 -17 OFFCURVE",
"315 36 OFFCURVE",
"306 141 CURVE SMOOTH",
"303 172 OFFCURVE",
"300 192 OFFCURVE",
"298 201 CURVE SMOOTH",
"296 210 OFFCURVE",
"292 214 OFFCURVE",
"287 214 CURVE",
"208 197 LINE SMOOTH",
"155 186 OFFCURVE",
"118 180 OFFCURVE",
"98 180 CURVE SMOOTH",
"74 180 OFFCURVE",
"62 187 OFFCURVE",
"62 202 CURVE SMOOTH",
"62 217 OFFCURVE",
"75 243 OFFCURVE",
"100 282 CURVE SMOOTH",
"149 355 OFFCURVE",
"198 423 OFFCURVE",
"247 487 CURVE SMOOTH",
"296 551 OFFCURVE",
"324 583 OFFCURVE",
"331 584 CURVE"
);
},
{
closed = 1;
nodes = (
"258 261 OFFCURVE",
"281 268 OFFCURVE",
"289 273 CURVE SMOOTH",
"297 278 OFFCURVE",
"301 288 OFFCURVE",
"301 305 CURVE SMOOTH",
"301 320 OFFCURVE",
"299 346 OFFCURVE",
"295 385 CURVE SMOOTH",
"288 452 LINE",
"246 401 LINE SMOOTH",
"207 353 OFFCURVE",
"143 253 OFFCURVE",
"143 240 CURVE SMOOTH",
"143 239 OFFCURVE",
"143 239 OFFCURVE",
"144 239 CURVE SMOOTH",
"151 239 OFFCURVE",
"176 244 OFFCURVE",
"221 253 CURVE SMOOTH"
);
}
);
width = 564;
}
);
note = four;
unicode = 0034;
},
{
glyphname = five;
layers = (
{
layerId = "8BD8650B-A4E1-42AA-8EA8-F95A9955B41A";
name = Regular;
paths = (
{
closed = 1;
nodes = (
"355 292 OFFCURVE",
"351 318 OFFCURVE",
"343 338 CURVE SMOOTH",
"335 358 OFFCURVE",
"324 368 OFFCURVE",
"311 368 CURVE SMOOTH",
"282 368 OFFCURVE",
"215 332 OFFCURVE",
"188 301 CURVE SMOOTH",
"171 282 OFFCURVE",
"160 273 OFFCURVE",
"153 273 CURVE SMOOTH",
"148 273 OFFCURVE",
"140 278 OFFCURVE",
"130 288 CURVE SMOOTH",
"119 299 OFFCURVE",
"113 352 OFFCURVE",
"113 445 CURVE SMOOTH",
"113 602 OFFCURVE",
"100 576 OFFCURVE",
"249 583 CURVE SMOOTH",
"324 586 OFFCURVE",
"371 590 OFFCURVE",
"392 595 CURVE SMOOTH",
"411 600 OFFCURVE",
"427 602 OFFCURVE",
"440 602 CURVE SMOOTH",
"456 602 OFFCURVE",
"464 597 OFFCURVE",
"464 588 CURVE SMOOTH",
"464 567 OFFCURVE",
"320 526 OFFCURVE",
"245 526 CURVE SMOOTH",
"229 526 LINE SMOOTH",
"184 526 OFFCURVE",
"161 509 OFFCURVE",
"161 476 CURVE SMOOTH",
"161 471 OFFCURVE",
"163 462 OFFCURVE",
"166 451 CURVE SMOOTH",
"169 439 OFFCURVE",
"170 426 OFFCURVE",
"170 413 CURVE SMOOTH",
"170 407 OFFCURVE",
"169 399 OFFCURVE",
"168 390 CURVE",
"162 359 LINE",
"196 380 LINE SMOOTH",
"237 406 OFFCURVE",
"277 419 OFFCURVE",
"316 419 CURVE SMOOTH",
"330 419 OFFCURVE",
"340 417 OFFCURVE",
"347 414 CURVE SMOOTH",
"383 398 OFFCURVE",
"412 325 OFFCURVE",
"412 252 CURVE SMOOTH",
"412 237 OFFCURVE",
"410 220 OFFCURVE",
"407 202 CURVE SMOOTH",
"379 53 OFFCURVE",
"311 -12 OFFCURVE",
"183 -12 CURVE SMOOTH",
"140 -12 OFFCURVE",
"132 -8 OFFCURVE",
"104 27 CURVE SMOOTH",
"77 60 OFFCURVE",
"64 88 OFFCURVE",
"64 111 CURVE SMOOTH",
"64 128 OFFCURVE",
"66 136 OFFCURVE",
"71 136 CURVE SMOOTH",
"74 136 OFFCURVE",
"80 128 OFFCURVE",
"87 113 CURVE",
"114 64 OFFCURVE",
"149 46 OFFCURVE",
"218 46 CURVE SMOOTH",
"279 46 OFFCURVE",
"308 70 OFFCURVE",
"336 147 CURVE SMOOTH",
"349 181 OFFCURVE",
"355 219 OFFCURVE",
"355 260 CURVE SMOOTH"
);
}
);
width = 497;
}
);
note = five;
unicode = 0035;
},
{
glyphname = six;
layers = (
{
layerId = "8BD8650B-A4E1-42AA-8EA8-F95A9955B41A";
name = Regular;
paths = (
{
closed = 1;
nodes = (
"164 272 OFFCURVE",
"176 279 OFFCURVE",
"196 292 CURVE SMOOTH",
"216 305 OFFCURVE",
"233 312 OFFCURVE",
"248 312 CURVE SMOOTH",
"283 312 OFFCURVE",
"336 288 OFFCURVE",
"359 264 CURVE",
"374 247 OFFCURVE",
"382 224 OFFCURVE",
"382 195 CURVE SMOOTH",
"382 171 OFFCURVE",
"377 161 OFFCURVE",
"364 139 CURVE SMOOTH",
"357 128 OFFCURVE",
"352 117 OFFCURVE",
"348 108 CURVE SMOOTH",
"336 80 OFFCURVE",
"263 14 OFFCURVE",
"232 2 CURVE SMOOTH",
"215 -4 OFFCURVE",
"195 -7 OFFCURVE",
"170 -7 CURVE SMOOTH",
"109 -7 OFFCURVE",
"60 64 OFFCURVE",
"60 151 CURVE SMOOTH",
"60 196 OFFCURVE",
"103 364 OFFCURVE",
"138 480 CURVE SMOOTH",
"164 566 LINE",
"173 601 OFFCURVE",
"186 619 OFFCURVE",
"204 619 CURVE SMOOTH",
"218 619 OFFCURVE",
"225 613 OFFCURVE",
"225 600 CURVE SMOOTH",
"225 581 OFFCURVE",
"212 529 OFFCURVE",
"187 444 CURVE SMOOTH",
"162 359 OFFCURVE",
"149 307 OFFCURVE",
"149 288 CURVE SMOOTH",
"149 277 OFFCURVE",
"153 272 OFFCURVE",
"160 272 CURVE SMOOTH"
);
},
{
closed = 1;
nodes = (
"121 120 OFFCURVE",
"128 93 OFFCURVE",
"136 78 CURVE SMOOTH",
"144 62 OFFCURVE",
"155 52 OFFCURVE",
"162 49 CURVE",
"165 47 OFFCURVE",
"168 46 OFFCURVE",
"171 46 CURVE SMOOTH",
"191 46 OFFCURVE",
"271 86 OFFCURVE",
"303 138 CURVE SMOOTH",
"318 164 OFFCURVE",
"326 185 OFFCURVE",
"326 201 CURVE SMOOTH",
"326 225 OFFCURVE",
"320 235 OFFCURVE",
"297 246 CURVE",
"261 267 OFFCURVE",
"240 266 OFFCURVE",
"200 245 CURVE SMOOTH",
"179 234 OFFCURVE",
"161 222 OFFCURVE",
"146 207 CURVE SMOOTH",
"126 187 OFFCURVE",
"121 178 OFFCURVE",
"121 155 CURVE SMOOTH"
);
}
);
width = 443;
}
);
note = six;
unicode = 0036;
},
{
glyphname = seven;
layers = (
{
layerId = "8BD8650B-A4E1-42AA-8EA8-F95A9955B41A";
name = Regular;
paths = (
{
closed = 1;
nodes = (
"119 360 OFFCURVE",
"112 365 OFFCURVE",
"109 374 CURVE SMOOTH",
"106 383 OFFCURVE",
"104 402 OFFCURVE",
"104 433 CURVE SMOOTH",
"104 583 LINE",
"266 614 LINE SMOOTH",
"301 621 OFFCURVE",
"325 624 OFFCURVE",
"338 624 CURVE SMOOTH",
"370 624 OFFCURVE",
"383 609 OFFCURVE",
"383 572 CURVE SMOOTH",
"383 531 OFFCURVE",
"364 419 OFFCURVE",
"347 333 CURVE SMOOTH",
"338 290 OFFCURVE",
"327 234 OFFCURVE",
"313 166 CURVE SMOOTH",
"298 98 OFFCURVE",
"288 51 OFFCURVE",
"283 25 CURVE SMOOTH",
"278 -3 OFFCURVE",
"272 -8 OFFCURVE",
"252 -8 CURVE SMOOTH",
"232 -8 OFFCURVE",
"229 -6 OFFCURVE",
"229 13 CURVE SMOOTH",
"229 43 OFFCURVE",
"241 114 OFFCURVE",
"266 225 CURVE SMOOTH",
"285 306 OFFCURVE",
"318 518 OFFCURVE",
"318 550 CURVE SMOOTH",
"318 553 OFFCURVE",
"317 554 OFFCURVE",
"315 555 CURVE",
"313 555 OFFCURVE",
"306 555 OFFCURVE",
"295 555 CURVE SMOOTH",
"270 555 OFFCURVE",
"249 554 OFFCURVE",
"232 553 CURVE SMOOTH",
"151 547 LINE",
"155 496 LINE",
"156 490 OFFCURVE",
"156 480 OFFCURVE",
"156 465 CURVE SMOOTH",
"156 437 OFFCURVE",
"155 416 OFFCURVE",
"152 402 CURVE",
"150 385 OFFCURVE",
"148 374 OFFCURVE",
"145 369 CURVE",
"142 363 OFFCURVE",
"138 360 OFFCURVE",
"132 360 CURVE SMOOTH"
);
}
);
width = 439;
}
);
note = seven;
unicode = 0037;
},
{
glyphname = eight;
layers = (
{
layerId = "8BD8650B-A4E1-42AA-8EA8-F95A9955B41A";
name = Regular;
paths = (
{
closed = 1;
nodes = (
"216 590 OFFCURVE",
"223 596 OFFCURVE",
"227 601 CURVE",
"229 604 OFFCURVE",
"235 606 OFFCURVE",
"245 609 CURVE",
"254 611 OFFCURVE",
"268 612 OFFCURVE",
"286 612 CURVE SMOOTH",
"342 612 OFFCURVE",
"387 589 OFFCURVE",
"409 561 CURVE SMOOTH",
"431 532 OFFCURVE",
"440 506 OFFCURVE",
"440 490 CURVE SMOOTH",
"440 462 OFFCURVE",
"401 418 OFFCURVE",
"361 384 CURVE SMOOTH",
"321 350 OFFCURVE",
"282 310 OFFCURVE",
"282 291 CURVE SMOOTH",
"282 282 OFFCURVE",
"290 268 OFFCURVE",
"306 249 CURVE SMOOTH",
"337 210 OFFCURVE",
"376 151 OFFCURVE",
"376 94 CURVE SMOOTH",
"376 27 OFFCURVE",
"320 -22 OFFCURVE",
"275 -22 CURVE SMOOTH",
"214 -22 OFFCURVE",
"108 104 OFFCURVE",
"108 132 CURVE SMOOTH",
"108 144 OFFCURVE",
"117 169 OFFCURVE",
"135 208 CURVE SMOOTH",
"153 247 OFFCURVE",
"162 270 OFFCURVE",
"162 279 CURVE SMOOTH",
"162 290 OFFCURVE",
"156 303 OFFCURVE",
"144 319 CURVE SMOOTH",
"120 350 OFFCURVE",
"90 394 OFFCURVE",
"90 443 CURVE SMOOTH",
"90 516 OFFCURVE",
"151 590 OFFCURVE",
"200 590 CURVE SMOOTH"
);
},
{
closed = 1;
nodes = (
"396 511 OFFCURVE",
"324 567 OFFCURVE",
"284 567 CURVE SMOOTH",
"276 567 OFFCURVE",
"274 567 OFFCURVE",
"267 564 CURVE",
"263 563 OFFCURVE",
"259 561 OFFCURVE",
"256 560 CURVE",
"249 556 OFFCURVE",
"228 546 OFFCURVE",
"207 535 CURVE",
"159 512 OFFCURVE",
"142 462 OFFCURVE",
"142 438 CURVE SMOOTH",
"142 417 OFFCURVE",
"171 375 OFFCURVE",
"193 350 CURVE SMOOTH",
"204 337 OFFCURVE",
"210 331 OFFCURVE",
"212 331 CURVE SMOOTH",
"215 331 OFFCURVE",
"227 340 OFFCURVE",
"246 357 CURVE SMOOTH",
"285 392 OFFCURVE",
"342 443 OFFCURVE",
"367 455 CURVE",
"386 466 OFFCURVE",
"396 477 OFFCURVE",
"396 486 CURVE SMOOTH"
);
},
{
closed = 1;
nodes = (
"298 35 OFFCURVE",
"325 68 OFFCURVE",
"325 97 CURVE SMOOTH",
"325 124 OFFCURVE",
"305 159 OFFCURVE",
"265 204 CURVE SMOOTH",
"249 223 OFFCURVE",
"236 232 OFFCURVE",
"226 232 CURVE SMOOTH",
"206 232 OFFCURVE",
"171 180 OFFCURVE",
"171 147 CURVE SMOOTH",
"171 100 OFFCURVE",
"237 35 OFFCURVE",
"273 35 CURVE SMOOTH"
);
}
);
width = 500;
}
);
note = eight;
unicode = 0038;
},
{
glyphname = nine;
layers = (
{
layerId = "8BD8650B-A4E1-42AA-8EA8-F95A9955B41A";
name = Regular;
paths = (
{
closed = 1;
nodes = (
"309 115 OFFCURVE",
"310 159 OFFCURVE",
"313 213 CURVE SMOOTH",
"315 266 OFFCURVE",
"316 299 OFFCURVE",
"316 310 CURVE SMOOTH",
"316 337 OFFCURVE",
"312 350 OFFCURVE",
"305 350 CURVE SMOOTH",
"302 350 OFFCURVE",
"287 341 OFFCURVE",
"262 322 CURVE SMOOTH",
"237 302 OFFCURVE",
"220 298 OFFCURVE",
"176 298 CURVE SMOOTH",
"128 299 OFFCURVE",
"119 303 OFFCURVE",
"99 324 CURVE",
"79 347 OFFCURVE",
"69 371 OFFCURVE",
"69 395 CURVE SMOOTH",
"69 406 OFFCURVE",
"71 418 OFFCURVE",
"75 430 CURVE",
"99 513 OFFCURVE",
"152 563 OFFCURVE",
"252 600 CURVE SMOOTH",
"281 611 OFFCURVE",
"301 616 OFFCURVE",
"312 616 CURVE SMOOTH",
"321 616 OFFCURVE",
"335 613 OFFCURVE",
"358 604 CURVE SMOOTH",
"381 595 OFFCURVE",
"398 570 OFFCURVE",
"398 534 CURVE SMOOTH",
"398 520 OFFCURVE",
"395 501 OFFCURVE",
"389 478 CURVE SMOOTH",
"383 455 OFFCURVE",
"377 416 OFFCURVE",
"372 363 CURVE SMOOTH",
"366 310 OFFCURVE",
"363 239 OFFCURVE",
"363 151 CURVE SMOOTH",
"363 121 OFFCURVE",
"364 97 OFFCURVE",
"365 78 CURVE SMOOTH",
"366 59 OFFCURVE",
"367 48 OFFCURVE",
"368 43 CURVE SMOOTH",
"369 38 OFFCURVE",
"370 34 OFFCURVE",
"371 31 CURVE",
"372 27 OFFCURVE",
"372 23 OFFCURVE",
"372 19 CURVE SMOOTH",
"372 -4 OFFCURVE",
"360 -22 OFFCURVE",
"341 -22 CURVE SMOOTH",
"328 -22 OFFCURVE",
"320 -15 OFFCURVE",
"316 -2 CURVE",
"311 11 OFFCURVE",
"309 39 OFFCURVE",
"309 80 CURVE SMOOTH"
);
},
{
closed = 1;
nodes = (
"197 342 OFFCURVE",
"235 357 OFFCURVE",
"272 384 CURVE SMOOTH",
"308 411 OFFCURVE",
"336 462 OFFCURVE",
"336 519 CURVE SMOOTH",
"336 556 OFFCURVE",
"335 559 OFFCURVE",
"296 559 CURVE SMOOTH",
"200 559 OFFCURVE",
"122 476 OFFCURVE",
"122 393 CURVE SMOOTH",
"122 359 OFFCURVE",
"139 342 OFFCURVE",
"172 342 CURVE SMOOTH"
);
}
);
width = 462;
}
);
note = nine;
unicode = 0039;
},
{
glyphname = colon;
lastChange = "2015-11-25 18:44:15 +0000";
layers = (
{
layerId = "8BD8650B-A4E1-42AA-8EA8-F95A9955B41A";
name = Regular;
paths = (
{
closed = 1;
nodes = (
"144 103 OFFCURVE",
"174 135 OFFCURVE",
"195 135 CURVE SMOOTH",
"220 135 OFFCURVE",
"231 100 OFFCURVE",
"231 84 CURVE SMOOTH",
"231 79 OFFCURVE",
"229 71 OFFCURVE",
"224 60 CURVE SMOOTH",
"219 49 OFFCURVE",
"216 40 OFFCURVE",
"214 33 CURVE SMOOTH",
"208 10 OFFCURVE",
"198 -2 OFFCURVE",
"185 -2 CURVE SMOOTH",
"162 -2 OFFCURVE",
"144 44 OFFCURVE",
"144 75 CURVE SMOOTH"
);
},
{
closed = 1;
nodes = (
"138 468 OFFCURVE",
"158 519 OFFCURVE",
"181 519 CURVE SMOOTH",
"198 519 OFFCURVE",
"231 485 OFFCURVE",
"231 444 CURVE SMOOTH",
"231 431 OFFCURVE",
"230 423 OFFCURVE",
"229 419 CURVE SMOOTH",
"228 415 OFFCURVE",
"225 413 OFFCURVE",
"220 413 CURVE SMOOTH",
"212 413 OFFCURVE",
"206 406 OFFCURVE",
"203 391 CURVE SMOOTH",
"199 374 OFFCURVE",
"194 369 OFFCURVE",
"181 369 CURVE SMOOTH",
"174 369 OFFCURVE",
"169 371 OFFCURVE",
"165 376 CURVE",
"156 385 OFFCURVE",
"138 425 OFFCURVE",
"138 444 CURVE SMOOTH"
);
}
);
width = 401;
}
);
note = colon;
unicode = 003A;
},
{
glyphname = semicolon;
lastChange = "2015-11-24 17:56:00 +0000";
layers = (
{
layerId = "8BD8650B-A4E1-42AA-8EA8-F95A9955B41A";
name = Regular;
paths = (
{
closed = 1;
nodes = (
"88 132 OFFCURVE",
"94 135 OFFCURVE",
"101 135 CURVE SMOOTH",
"112 135 OFFCURVE",
"118 129 OFFCURVE",
"118 117 CURVE SMOOTH",
"118 94 OFFCURVE",
"43 -90 OFFCURVE",
"30 -95 CURVE",
"26 -96 OFFCURVE",
"23 -97 OFFCURVE",
"21 -97 CURVE SMOOTH",
"10 -97 OFFCURVE",
"0 -88 OFFCURVE",
"0 -76 CURVE SMOOTH",
"0 -56 OFFCURVE",
"69 113 OFFCURVE",
"82 126 CURVE SMOOTH"
);
},
{
closed = 1;
nodes = (
"63 295 OFFCURVE",
"28 314 OFFCURVE",
"28 370 CURVE SMOOTH",
"28 409 OFFCURVE",
"36 422 OFFCURVE",
"64 431 CURVE SMOOTH",
"79 436 OFFCURVE",
"89 438 OFFCURVE",
"96 438 CURVE SMOOTH",
"104 438 OFFCURVE",
"112 433 OFFCURVE",
"119 422 CURVE SMOOTH",
"126 411 OFFCURVE",
"129 393 OFFCURVE",
"129 369 CURVE SMOOTH",
"129 337 OFFCURVE",
"119 295 OFFCURVE",
"98 295 CURVE SMOOTH"
);
}
);
width = 247;
}
);
note = semicolon;
unicode = 003B;
},
{
glyphname = less;
lastChange = "2015-11-24 17:57:16 +0000";
layers = (
{
layerId = "8BD8650B-A4E1-42AA-8EA8-F95A9955B41A";
name = Regular;
paths = (
{
closed = 1;
nodes = (
"430 7 OFFCURVE",
"404 -20 OFFCURVE",
"389 -20 CURVE SMOOTH",
"383 -20 OFFCURVE",
"378 -16 OFFCURVE",
"373 -7 CURVE",
"369 2 OFFCURVE",
"346 21 OFFCURVE",
"304 50 CURVE SMOOTH",
"199 123 OFFCURVE",
"74 276 OFFCURVE",
"74 329 CURVE SMOOTH",
"74 346 OFFCURVE",
"106 383 OFFCURVE",
"170 442 CURVE SMOOTH",
"326 583 LINE SMOOTH",
"372 625 OFFCURVE",
"403 646 OFFCURVE",
"418 646 CURVE SMOOTH",
"434 646 OFFCURVE",
"440 630 OFFCURVE",
"440 619 CURVE SMOOTH",
"440 611 OFFCURVE",
"436 603 OFFCURVE",
"429 595 CURVE SMOOTH",
"422 587 OFFCURVE",
"407 573 OFFCURVE",
"384 553 CURVE SMOOTH",
"361 533 OFFCURVE",
"341 514 OFFCURVE",
"323 496 CURVE SMOOTH",
"215 395 LINE SMOOTH",
"184 366 OFFCURVE",
"158 332 OFFCURVE",
"158 321 CURVE SMOOTH",
"158 294 OFFCURVE",
"295 136 OFFCURVE",
"351 99 CURVE SMOOTH",
"391 71 OFFCURVE",
"430 34 OFFCURVE",
"430 19 CURVE SMOOTH"
);
}
);
width = 545;
}
);
note = less;
unicode = 003C;
},
{
glyphname = equal;
lastChange = "2015-11-25 18:47:15 +0000";
layers = (
{
layerId = "8BD8650B-A4E1-42AA-8EA8-F95A9955B41A";
name = Regular;
paths = (
{
closed = 1;
nodes = (
"164 242 OFFCURVE",
"212 245 OFFCURVE",
"283 245 CURVE SMOOTH",
"355 245 OFFCURVE",
"401 243 OFFCURVE",
"425 239 CURVE SMOOTH",
"447 235 OFFCURVE",
"459 227 OFFCURVE",
"459 215 CURVE SMOOTH",
"459 200 OFFCURVE",
"432 186 OFFCURVE",
"380 175 CURVE SMOOTH",
"328 164 OFFCURVE",
"262 158 OFFCURVE",
"185 158 CURVE SMOOTH",
"122 158 OFFCURVE",
"84 159 OFFCURVE",
"70 164 CURVE",
"56 166 OFFCURVE",
"49 175 OFFCURVE",
"49 187 CURVE SMOOTH",
"49 203 OFFCURVE",
"55 213 OFFCURVE",
"66 218 CURVE",
"76 222 OFFCURVE",
"101 229 OFFCURVE",
"140 236 CURVE"
);
},
{
closed = 1;
nodes = (
"367 447 OFFCURVE",
"387 445 OFFCURVE",
"397 441 CURVE SMOOTH",
"407 437 OFFCURVE",
"411 429 OFFCURVE",
"411 416 CURVE SMOOTH",
"411 398 OFFCURVE",
"397 385 OFFCURVE",
"370 378 CURVE SMOOTH",
"342 371 OFFCURVE",
"282 363 OFFCURVE",
"189 356 CURVE SMOOTH",
"149 353 OFFCURVE",
"119 351 OFFCURVE",
"102 351 CURVE SMOOTH",
"69 351 OFFCURVE",
"62 357 OFFCURVE",
"56 378 CURVE",
"52 389 OFFCURVE",
"50 399 OFFCURVE",
"50 409 CURVE SMOOTH",
"50 413 OFFCURVE",
"56 417 OFFCURVE",
"67 420 CURVE SMOOTH",
"90 426 OFFCURVE",
"234 447 OFFCURVE",
"335 447 CURVE SMOOTH"
);
}
);
width = 515;
}
);
note = equal;
unicode = 003D;
},
{
glyphname = greater;
lastChange = "2015-11-24 17:57:07 +0000";
layers = (
{
layerId = "8BD8650B-A4E1-42AA-8EA8-F95A9955B41A";
name = Regular;
paths = (
{
closed = 1;
nodes = (
"125 579 OFFCURVE",
"152 588 OFFCURVE",
"164 588 CURVE SMOOTH",
"171 588 OFFCURVE",
"220 555 OFFCURVE",
"243 532 CURVE",
"279 499 OFFCURVE",
"319 467 OFFCURVE",
"364 434 CURVE SMOOTH",
"408 401 OFFCURVE",
"440 376 OFFCURVE",
"460 360 CURVE SMOOTH",
"479 344 OFFCURVE",
"489 330 OFFCURVE",
"489 319 CURVE SMOOTH",
"489 309 OFFCURVE",
"482 294 OFFCURVE",
"468 273 CURVE SMOOTH",
"453 252 OFFCURVE",
"422 208 OFFCURVE",
"373 143 CURVE SMOOTH",
"307 54 OFFCURVE",
"272 4 OFFCURVE",
"268 -9 CURVE",
"263 -22 OFFCURVE",
"242 -33 OFFCURVE",
"223 -33 CURVE SMOOTH",
"204 -33 OFFCURVE",
"192 -22 OFFCURVE",
"192 -13 CURVE SMOOTH",
"192 0 OFFCURVE",
"226 50 OFFCURVE",
"239 55 CURVE",
"245 57 OFFCURVE",
"256 69 OFFCURVE",
"272 91 CURVE SMOOTH",
"287 112 OFFCURVE",
"322 163 OFFCURVE",
"377 244 CURVE SMOOTH",
"402 281 OFFCURVE",
"414 304 OFFCURVE",
"414 313 CURVE SMOOTH",
"414 316 OFFCURVE",
"404 327 OFFCURVE",
"383 345 CURVE SMOOTH",
"362 362 OFFCURVE",
"338 381 OFFCURVE",
"309 401 CURVE SMOOTH",
"186 489 OFFCURVE",
"125 544 OFFCURVE",
"125 566 CURVE SMOOTH"
);
}
);
width = 594;
}
);
note = greater;
unicode = 003E;
},
{
glyphname = question;
layers = (
{
layerId = "8BD8650B-A4E1-42AA-8EA8-F95A9955B41A";
name = Regular;
paths = (
{
closed = 1;
nodes = (
"263 52 OFFCURVE",
"265 65 OFFCURVE",
"269 76 CURVE SMOOTH",
"273 87 OFFCURVE",
"277 93 OFFCURVE",
"281 96 CURVE",
"284 99 OFFCURVE",
"287 100 OFFCURVE",
"290 100 CURVE SMOOTH",
"301 100 OFFCURVE",
"355 63 OFFCURVE",
"355 55 CURVE",
"353 50 OFFCURVE",
"351 43 OFFCURVE",
"348 35 CURVE SMOOTH",
"342 18 OFFCURVE",
"316 -19 OFFCURVE",
"292 -19 CURVE SMOOTH",
"273 -19 OFFCURVE",
"263 -1 OFFCURVE",
"263 36 CURVE SMOOTH"
);
},
{
closed = 1;
nodes = (
"186 661 OFFCURVE",
"231 577 OFFCURVE",
"252 577 CURVE SMOOTH",
"280 577 OFFCURVE",
"308 624 OFFCURVE",
"308 639 CURVE SMOOTH",
"308 645 OFFCURVE",
"302 648 OFFCURVE",
"289 648 CURVE SMOOTH",
"277 648 OFFCURVE",
"271 652 OFFCURVE",
"271 661 CURVE SMOOTH",
"271 678 OFFCURVE",
"296 693 OFFCURVE",
"311 693 CURVE SMOOTH",
"327 693 OFFCURVE",
"346 672 OFFCURVE",
"346 639 CURVE SMOOTH",
"346 598 OFFCURVE",
"323 546 OFFCURVE",
"267 546 CURVE SMOOTH",
"215 546 OFFCURVE",
"143 620 OFFCURVE",
"143 687 CURVE SMOOTH",
"143 758 OFFCURVE",
"243 842 OFFCURVE",
"315 842 CURVE SMOOTH",
"391 842 OFFCURVE",
"463 747 OFFCURVE",
"463 656 CURVE SMOOTH",
"463 603 OFFCURVE",
"430 534 OFFCURVE",
"363 448 CURVE SMOOTH",
"328 402 LINE",
"329 327 LINE SMOOTH",
"329 324 OFFCURVE",
"329 319 OFFCURVE",
"330 313 CURVE",
"330 307 OFFCURVE",
"330 303 OFFCURVE",
"330 300 CURVE SMOOTH",
"330 254 OFFCURVE",
"323 231 OFFCURVE",
"310 231 CURVE SMOOTH",
"299 231 OFFCURVE",
"292 239 OFFCURVE",
"288 255 CURVE",
"283 270 OFFCURVE",
"281 298 OFFCURVE",
"281 338 CURVE SMOOTH",
"281 421 OFFCURVE",
"287 446 OFFCURVE",
"338 493 CURVE SMOOTH",
"386 536 OFFCURVE",
"417 606 OFFCURVE",
"417 667 CURVE SMOOTH",
"417 710 OFFCURVE",
"409 736 OFFCURVE",
"369 769 CURVE SMOOTH",
"348 786 OFFCURVE",
"331 794 OFFCURVE",
"317 794 CURVE SMOOTH",
"270 794 OFFCURVE",
"186 725 OFFCURVE",
"186 685 CURVE SMOOTH"
);
}
);
width = 632;
}
);
note = question;
unicode = 003F;
},
{
glyphname = at;
layers = (
{
layerId = "8BD8650B-A4E1-42AA-8EA8-F95A9955B41A";
name = Regular;
paths = (
{
closed = 1;
nodes = (
"555 249 OFFCURVE",
"561 246 OFFCURVE",
"573 243 CURVE SMOOTH",
"584 240 OFFCURVE",
"590 232 OFFCURVE",
"590 220 CURVE SMOOTH",
"590 195 OFFCURVE",
"572 131 OFFCURVE",
"521 60 CURVE SMOOTH",
"470 -12 OFFCURVE",
"438 -21 OFFCURVE",
"337 -21 CURVE SMOOTH",
"264 -21 OFFCURVE",
"246 -22 OFFCURVE",
"182 21 CURVE SMOOTH",
"150 42 OFFCURVE",
"133 58 OFFCURVE",
"130 69 CURVE",
"125 83 OFFCURVE",
"121 90 OFFCURVE",
"117 90 CURVE SMOOTH",
"109 90 OFFCURVE",
"101 112 OFFCURVE",
"93 155 CURVE SMOOTH",
"84 198 OFFCURVE",
"80 240 OFFCURVE",
"80 282 CURVE SMOOTH",
"80 393 OFFCURVE",
"97 447 OFFCURVE",
"157 523 CURVE SMOOTH",
"201 578 OFFCURVE",
"227 593 OFFCURVE",
"307 616 CURVE SMOOTH",
"339 625 OFFCURVE",
"376 630 OFFCURVE",
"419 630 CURVE SMOOTH",
"475 630 OFFCURVE",
"495 620 OFFCURVE",
"536 573 CURVE SMOOTH",
"577 525 OFFCURVE",
"589 498 OFFCURVE",
"589 422 CURVE SMOOTH",
"589 353 OFFCURVE",
"575 298 OFFCURVE",
"564 274 CURVE SMOOTH",
"558 261 OFFCURVE",
"555 254 OFFCURVE",
"555 252 CURVE SMOOTH"
);
},
{
closed = 1;
nodes = (
"441 357 OFFCURVE",
"439 345 OFFCURVE",
"435 328 CURVE",
"430 311 OFFCURVE",
"428 295 OFFCURVE",
"428 280 CURVE SMOOTH",
"428 245 OFFCURVE",
"436 228 OFFCURVE",
"451 228 CURVE SMOOTH",
"464 228 OFFCURVE",
"507 270 OFFCURVE",
"507 283 CURVE SMOOTH",
"507 289 OFFCURVE",
"511 292 OFFCURVE",
"519 292 CURVE SMOOTH",
"525 292 OFFCURVE",
"531 305 OFFCURVE",
"537 330 CURVE",
"542 355 OFFCURVE",
"545 380 OFFCURVE",
"545 405 CURVE SMOOTH",
"545 419 OFFCURVE",
"544 430 OFFCURVE",
"542 439 CURVE",
"532 476 OFFCURVE",
"525 501 OFFCURVE",
"521 513 CURVE",
"512 536 OFFCURVE",
"504 546 OFFCURVE",
"467 567 CURVE SMOOTH",
"436 584 OFFCURVE",
"411 593 OFFCURVE",
"390 593 CURVE SMOOTH",
"345 593 OFFCURVE",
"236 537 OFFCURVE",
"209 508 CURVE SMOOTH",
"181 479 OFFCURVE",
"146 400 OFFCURVE",
"140 368 CURVE SMOOTH",
"137 352 OFFCURVE",
"135 325 OFFCURVE",
"135 288 CURVE SMOOTH",
"135 209 OFFCURVE",
"140 181 OFFCURVE",
"165 116 CURVE SMOOTH",
"180 77 OFFCURVE",
"253 27 OFFCURVE",
"364 27 CURVE SMOOTH",
"401 27 OFFCURVE",
"450 61 OFFCURVE",
"470 85 CURVE SMOOTH",
"489 108 OFFCURVE",
"535 206 OFFCURVE",
"535 214 CURVE SMOOTH",
"535 215 OFFCURVE",
"535 215 OFFCURVE",
"534 215 CURVE SMOOTH",
"533 215 OFFCURVE",
"524 210 OFFCURVE",
"507 199 CURVE SMOOTH",
"490 188 OFFCURVE",
"472 182 OFFCURVE",
"451 182 CURVE SMOOTH",
"422 182 OFFCURVE",
"412 187 OFFCURVE",
"396 208 CURVE",
"383 227 OFFCURVE",
"377 240 OFFCURVE",
"377 245 CURVE SMOOTH",
"377 252 OFFCURVE",
"375 255 OFFCURVE",
"372 255 CURVE SMOOTH",
"366 255 OFFCURVE",
"357 246 OFFCURVE",
"344 227 CURVE SMOOTH",
"323 195 OFFCURVE",
"286 173 OFFCURVE",
"253 173 CURVE SMOOTH",
"213 173 OFFCURVE",
"185 218 OFFCURVE",
"185 274 CURVE SMOOTH",
"185 323 OFFCURVE",
"198 357 OFFCURVE",
"265 430 CURVE SMOOTH",
"298 466 OFFCURVE",
"321 484 OFFCURVE",
"332 484 CURVE SMOOTH",
"369 484 OFFCURVE",
"441 415 OFFCURVE",
"441 366 CURVE SMOOTH"
);
},
{
closed = 1;
nodes = (
"314 213 OFFCURVE",
"321 225 OFFCURVE",
"321 248 CURVE SMOOTH",
"321 259 OFFCURVE",
"324 264 OFFCURVE",
"330 264 CURVE SMOOTH",
"337 264 OFFCURVE",
"340 273 OFFCURVE",
"340 292 CURVE SMOOTH",
"340 312 OFFCURVE",
"344 324 OFFCURVE",
"352 342 CURVE SMOOTH",
"356 351 OFFCURVE",
"359 359 OFFCURVE",
"362 367 CURVE",
"365 378 OFFCURVE",
"373 383 OFFCURVE",
"385 383 CURVE SMOOTH",
"398 383 OFFCURVE",
"404 385 OFFCURVE",
"404 390 CURVE SMOOTH",
"404 402 OFFCURVE",
"348 438 OFFCURVE",
"329 438 CURVE SMOOTH",
"308 438 OFFCURVE",
"256 386 OFFCURVE",
"256 365 CURVE SMOOTH",
"256 359 OFFCURVE",
"252 350 OFFCURVE",
"244 338 CURVE",
"236 325 OFFCURVE",
"232 306 OFFCURVE",
"232 281 CURVE SMOOTH",
"232 254 OFFCURVE",
"246 233 OFFCURVE",
"263 225 CURVE",
"280 216 OFFCURVE",
"292 213 OFFCURVE",
"299 213 CURVE SMOOTH"
);
}
);
width = 704;
}
);
note = at;
unicode = 0040;
},
{
glyphname = A;
lastChange = "2015-11-24 17:42:32 +0000";
layers = (
{
layerId = "8BD8650B-A4E1-42AA-8EA8-F95A9955B41A";
name = Regular;
paths = (
{
closed = 1;
nodes = (
"68 4 OFFCURVE",
"75 19 OFFCURVE",
"89 40 CURVE SMOOTH",
"103 60 OFFCURVE",
"110 75 OFFCURVE",
"110 84 CURVE SMOOTH",
"110 97 OFFCURVE",
"115 105 OFFCURVE",
"124 108 CURVE",
"131 111 OFFCURVE",
"141 129 OFFCURVE",
"154 162 CURVE SMOOTH",
"166 195 OFFCURVE",
"177 218 OFFCURVE",
"186 229 CURVE SMOOTH",
"195 240 OFFCURVE",
"206 258 OFFCURVE",
"217 283 CURVE SMOOTH",
"228 308 OFFCURVE",
"250 364 OFFCURVE",
"283 449 CURVE SMOOTH",
"324 556 OFFCURVE",
"420 752 OFFCURVE",
"437 764 CURVE",
"445 769 OFFCURVE",
"450 771 OFFCURVE",
"453 771 CURVE SMOOTH",
"458 771 OFFCURVE",
"464 768 OFFCURVE",
"473 762 CURVE",
"488 751 OFFCURVE",
"549 554 OFFCURVE",
"549 514 CURVE",
"550 501 OFFCURVE",
"556 471 OFFCURVE",
"568 424 CURVE SMOOTH",
"580 377 OFFCURVE",
"588 339 OFFCURVE",
"593 312 CURVE",
"597 285 OFFCURVE",
"608 242 OFFCURVE",
"625 183 CURVE SMOOTH",
"642 124 OFFCURVE",
"650 87 OFFCURVE",
"650 73 CURVE SMOOTH",
"650 59 OFFCURVE",
"645 52 OFFCURVE",
"636 52 CURVE SMOOTH",
"629 52 OFFCURVE",
"618 56 OFFCURVE",
"605 63 CURVE SMOOTH",
"593 70 OFFCURVE",
"585 78 OFFCURVE",
"581 87 CURVE",
"576 96 OFFCURVE",
"570 119 OFFCURVE",
"566 138 CURVE SMOOTH",
"564 147 OFFCURVE",
"561 162 OFFCURVE",
"557 183 CURVE",
"552 204 OFFCURVE",
"548 224 OFFCURVE",
"543 243 CURVE SMOOTH",
"524 322 LINE",
"475 316 LINE SMOOTH",
"439 311 OFFCURVE",
"399 306 OFFCURVE",
"356 303 CURVE SMOOTH",
"286 297 LINE",
"257 242 LINE SMOOTH",
"203 141 OFFCURVE",
"167 68 OFFCURVE",
"148 23 CURVE SMOOTH",
"133 -13 OFFCURVE",
"116 -31 OFFCURVE",
"99 -31 CURVE SMOOTH",
"84 -31 OFFCURVE",
"68 -23 OFFCURVE",
"68 -6 CURVE SMOOTH"
);
},
{
closed = 1;
nodes = (
"503 442 OFFCURVE",
"462 640 OFFCURVE",
"447 640 CURVE SMOOTH",
"436 640 OFFCURVE",
"361 487 OFFCURVE",
"325 391 CURVE SMOOTH",
"313 360 LINE",
"392 366 LINE SMOOTH",
"441 370 OFFCURVE",
"471 374 OFFCURVE",
"484 379 CURVE",
"497 383 OFFCURVE",
"503 392 OFFCURVE",
"503 406 CURVE SMOOTH"
);
}
);
width = 738;
}
);
note = A;
unicode = 0041;
},
{
glyphname = B;
layers = (
{
layerId = "8BD8650B-A4E1-42AA-8EA8-F95A9955B41A";
name = Regular;
paths = (
{
closed = 1;
nodes = (
"319 24 OFFCURVE",
"307 21 OFFCURVE",
"291 16 CURVE",
"275 10 OFFCURVE",
"263 7 OFFCURVE",
"256 7 CURVE SMOOTH",
"239 7 OFFCURVE",
"228 20 OFFCURVE",
"221 46 CURVE",
"213 72 OFFCURVE",
"210 103 OFFCURVE",
"207 152 CURVE SMOOTH",
"205 177 OFFCURVE",
"203 201 OFFCURVE",
"202 226 CURVE",
"198 275 OFFCURVE",
"192 350 OFFCURVE",
"184 413 CURVE SMOOTH",
"177 479 OFFCURVE",
"171 537 OFFCURVE",
"167 587 CURVE SMOOTH",
"160 677 LINE",
"121 677 LINE SMOOTH",
"88 677 OFFCURVE",
"71 684 OFFCURVE",
"71 699 CURVE SMOOTH",
"71 742 OFFCURVE",
"247 787 OFFCURVE",
"407 787 CURVE SMOOTH",
"468 787 OFFCURVE",
"479 784 OFFCURVE",
"500 761 CURVE SMOOTH",
"517 742 OFFCURVE",
"525 726 OFFCURVE",
"525 714 CURVE SMOOTH",
"525 653 OFFCURVE",
"483 576 OFFCURVE",
"449 528 CURVE SMOOTH",
"432 504 OFFCURVE",
"423 490 OFFCURVE",
"423 485 CURVE SMOOTH",
"423 481 OFFCURVE",
"428 479 OFFCURVE",
"437 479 CURVE SMOOTH",
"464 479 OFFCURVE",
"534 437 OFFCURVE",
"550 410 CURVE SMOOTH",
"566 384 OFFCURVE",
"574 346 OFFCURVE",
"574 295 CURVE SMOOTH",
"574 136 OFFCURVE",
"461 12 OFFCURVE",
"382 12 CURVE SMOOTH",
"375 12 OFFCURVE",
"367 14 OFFCURVE",
"356 18 CURVE SMOOTH",
"345 22 OFFCURVE",
"336 24 OFFCURVE",
"328 24 CURVE SMOOTH"
);
},
{
closed = 1;
nodes = (
"447 726 OFFCURVE",
"423 731 OFFCURVE",
"384 731 CURVE SMOOTH",
"336 731 OFFCURVE",
"247 715 OFFCURVE",
"235 707 CURVE SMOOTH",
"228 702 OFFCURVE",
"225 691 OFFCURVE",
"225 672 CURVE SMOOTH",
"225 652 LINE SMOOTH",
"225 611 OFFCURVE",
"229 564 OFFCURVE",
"237 509 CURVE SMOOTH",
"242 473 OFFCURVE",
"246 450 OFFCURVE",
"250 440 CURVE SMOOTH",
"254 429 OFFCURVE",
"261 424 OFFCURVE",
"270 424 CURVE SMOOTH",
"299 424 OFFCURVE",
"413 556 OFFCURVE",
"446 628 CURVE SMOOTH",
"463 665 OFFCURVE",
"471 687 OFFCURVE",
"471 692 CURVE SMOOTH",
"471 697 OFFCURVE",
"466 704 OFFCURVE",
"457 715 CURVE"
);
},
{
closed = 1;
nodes = (
"521 368 OFFCURVE",
"489 412 OFFCURVE",
"424 412 CURVE SMOOTH",
"391 412 OFFCURVE",
"359 402 OFFCURVE",
"317 383 CURVE SMOOTH",
"296 373 OFFCURVE",
"281 367 OFFCURVE",
"273 364 CURVE",
"266 361 OFFCURVE",
"262 357 OFFCURVE",
"260 352 CURVE",
"257 347 OFFCURVE",
"256 335 OFFCURVE",
"256 317 CURVE SMOOTH",
"256 281 OFFCURVE",
"261 201 OFFCURVE",
"263 174 CURVE SMOOTH",
"265 146 OFFCURVE",
"267 116 OFFCURVE",
"274 104 CURVE SMOOTH",
"281 92 OFFCURVE",
"286 79 OFFCURVE",
"301 75 CURVE SMOOTH",
"316 71 OFFCURVE",
"328 69 OFFCURVE",
"355 68 CURVE",
"358 68 OFFCURVE",
"363 68 OFFCURVE",
"368 68 CURVE",
"373 67 OFFCURVE",
"377 67 OFFCURVE",
"379 67 CURVE SMOOTH",
"412 67 OFFCURVE",
"419 72 OFFCURVE",
"462 123 CURVE SMOOTH",
"507 174 OFFCURVE",
"521 200 OFFCURVE",
"521 281 CURVE SMOOTH"
);
}
);
width = 655;
}
);
note = B;
unicode = 0042;
},
{
glyphname = C;
layers = (
{
layerId = "8BD8650B-A4E1-42AA-8EA8-F95A9955B41A";
name = Regular;
paths = (
{
closed = 1;
nodes = (
"651 299 OFFCURVE",
"646 284 OFFCURVE",
"635 262 CURVE SMOOTH",
"613 218 OFFCURVE",
"568 156 OFFCURVE",
"517 104 CURVE SMOOTH",
"465 51 OFFCURVE",
"392 10 OFFCURVE",
"327 10 CURVE SMOOTH",
"246 10 OFFCURVE",
"181 61 OFFCURVE",
"131 164 CURVE",
"124 177 OFFCURVE",
"121 223 OFFCURVE",
"121 300 CURVE SMOOTH",
"121 579 OFFCURVE",
"133 648 OFFCURVE",
"264 741 CURVE SMOOTH",
"329 787 OFFCURVE",
"391 810 OFFCURVE",
"450 810 CURVE SMOOTH",
"511 810 OFFCURVE",
"573 763 OFFCURVE",
"573 715 CURVE SMOOTH",
"573 706 OFFCURVE",
"568 702 OFFCURVE",
"558 702 CURVE SMOOTH",
"543 702 OFFCURVE",
"525 712 OFFCURVE",
"517 727 CURVE",
"510 742 OFFCURVE",
"500 749 OFFCURVE",
"486 749 CURVE SMOOTH",
"417 749 OFFCURVE",
"300 693 OFFCURVE",
"248 636 CURVE SMOOTH",
"226 612 OFFCURVE",
"209 575 OFFCURVE",
"198 525 CURVE SMOOTH",
"187 475 OFFCURVE",
"181 399 OFFCURVE",
"181 298 CURVE SMOOTH",
"181 202 OFFCURVE",
"207 145 OFFCURVE",
"255 108 CURVE SMOOTH",
"279 89 OFFCURVE",
"304 80 OFFCURVE",
"329 80 CURVE SMOOTH",
"364 80 OFFCURVE",
"443 117 OFFCURVE",
"468 145 CURVE",
"519 196 LINE SMOOTH",
"535 211 OFFCURVE",
"552 231 OFFCURVE",
"570 256 CURVE SMOOTH",
"587 280 OFFCURVE",
"602 299 OFFCURVE",
"613 314 CURVE SMOOTH",
"624 329 OFFCURVE",
"633 336 OFFCURVE",
"640 336 CURVE SMOOTH",
"647 336 OFFCURVE",
"651 326 OFFCURVE",
"651 307 CURVE SMOOTH"
);
}
);
width = 727;
}
);
note = C;
unicode = 0043;
},
{
glyphname = D;
layers = (
{
layerId = "8BD8650B-A4E1-42AA-8EA8-F95A9955B41A";
name = Regular;
paths = (
{
closed = 1;
nodes = (
"58 690 OFFCURVE",
"80 725 OFFCURVE",
"95 725 CURVE SMOOTH",
"104 725 OFFCURVE",
"114 733 OFFCURVE",
"125 749 CURVE SMOOTH",
"146 781 OFFCURVE",
"317 792 OFFCURVE",
"361 792 CURVE SMOOTH",
"389 792 OFFCURVE",
"423 788 OFFCURVE",
"464 781 CURVE SMOOTH",
"697 741 OFFCURVE",
"781 673 OFFCURVE",
"781 516 CURVE SMOOTH",
"781 376 OFFCURVE",
"729 244 OFFCURVE",
"654 160 CURVE SMOOTH",
"579 76 OFFCURVE",
"494 19 OFFCURVE",
"415 0 CURVE SMOOTH",
"382 -8 OFFCURVE",
"366 -29 OFFCURVE",
"365 -45 CURVE SMOOTH",
"364 -61 OFFCURVE",
"353 -76 OFFCURVE",
"328 -76 CURVE SMOOTH",
"307 -76 OFFCURVE",
"297 -72 OFFCURVE",
"297 -64 CURVE SMOOTH",
"297 -55 OFFCURVE",
"284 -48 OFFCURVE",
"272 -44 CURVE SMOOTH",
"259 -40 OFFCURVE",
"246 -26 OFFCURVE",
"246 -5 CURVE SMOOTH",
"246 13 OFFCURVE",
"252 24 OFFCURVE",
"265 29 CURVE SMOOTH",
"278 34 OFFCURVE",
"284 62 OFFCURVE",
"284 114 CURVE SMOOTH",
"284 169 OFFCURVE",
"278 211 OFFCURVE",
"263 327 CURVE SMOOTH",
"255 384 OFFCURVE",
"248 448 OFFCURVE",
"241 518 CURVE SMOOTH",
"225 691 LINE",
"189 688 LINE SMOOTH",
"158 685 OFFCURVE",
"128 661 OFFCURVE",
"111 644 CURVE SMOOTH",
"102 635 OFFCURVE",
"96 631 OFFCURVE",
"91 631 CURVE SMOOTH",
"82 631 OFFCURVE",
"58 656 OFFCURVE",
"58 671 CURVE SMOOTH"
);
},
{
closed = 1;
nodes = (
"297 647 OFFCURVE",
"307 569 OFFCURVE",
"326 433 CURVE SMOOTH",
"345 297 OFFCURVE",
"354 208 OFFCURVE",
"354 167 CURVE SMOOTH",
"354 154 OFFCURVE",
"353 140 OFFCURVE",
"352 127 CURVE",
"344 76 LINE",
"398 76 LINE SMOOTH",
"517 76 OFFCURVE",
"657 250 OFFCURVE",
"687 347 CURVE SMOOTH",
"702 396 OFFCURVE",
"709 455 OFFCURVE",
"709 525 CURVE SMOOTH",
"709 584 OFFCURVE",
"704 594 OFFCURVE",
"673 629 CURVE SMOOTH",
"642 662 OFFCURVE",
"614 674 OFFCURVE",
"526 691 CURVE SMOOTH",
"446 704 OFFCURVE",
"386 711 OFFCURVE",
"345 711 CURVE SMOOTH",
"308 711 OFFCURVE",
"297 707 OFFCURVE",
"297 668 CURVE SMOOTH"
);
}
);
width = 855;
}
);
note = D;
unicode = 0044;
},
{
glyphname = E;
layers = (
{
layerId = "8BD8650B-A4E1-42AA-8EA8-F95A9955B41A";
name = Regular;
paths = (
{
closed = 1;
nodes = (
"66 663 OFFCURVE",
"80 692 OFFCURVE",
"91 701 CURVE SMOOTH",
"96 705 OFFCURVE",
"101 707 OFFCURVE",
"105 707 CURVE SMOOTH",
"120 707 OFFCURVE",
"156 729 OFFCURVE",
"196 750 CURVE SMOOTH",
"235 771 OFFCURVE",
"313 793 OFFCURVE",
"394 793 CURVE SMOOTH",
"455 793 OFFCURVE",
"485 783 OFFCURVE",
"485 764 CURVE SMOOTH",
"485 755 OFFCURVE",
"453 744 OFFCURVE",
"389 733 CURVE SMOOTH",
"285 716 OFFCURVE",
"181 679 OFFCURVE",
"149 648 CURVE SMOOTH",
"139 638 OFFCURVE",
"134 624 OFFCURVE",
"134 605 CURVE SMOOTH",
"134 601 OFFCURVE",
"135 593 OFFCURVE",
"136 582 CURVE SMOOTH",
"137 570 OFFCURVE",
"138 551 OFFCURVE",
"141 526 CURVE SMOOTH",
"144 501 OFFCURVE",
"146 476 OFFCURVE",
"148 451 CURVE SMOOTH",
"152 396 OFFCURVE",
"158 368 OFFCURVE",
"165 368 CURVE SMOOTH",
"167 368 OFFCURVE",
"169 369 OFFCURVE",
"172 371 CURVE",
"195 384 OFFCURVE",
"376 427 OFFCURVE",
"409 427 CURVE SMOOTH",
"429 427 OFFCURVE",
"439 419 OFFCURVE",
"439 402 CURVE SMOOTH",
"439 390 OFFCURVE",
"428 379 OFFCURVE",
"405 370 CURVE SMOOTH",
"382 361 OFFCURVE",
"337 347 OFFCURVE",
"269 330 CURVE SMOOTH",
"219 318 OFFCURVE",
"188 309 OFFCURVE",
"177 303 CURVE",
"165 297 OFFCURVE",
"159 288 OFFCURVE",
"159 275 CURVE SMOOTH",
"159 274 OFFCURVE",
"160 233 OFFCURVE",
"161 150 CURVE SMOOTH",
"164 64 LINE",
"215 64 LINE SMOOTH",
"275 64 OFFCURVE",
"384 93 OFFCURVE",
"445 126 CURVE SMOOTH",
"466 137 OFFCURVE",
"480 143 OFFCURVE",
"487 143 CURVE SMOOTH",
"500 143 OFFCURVE",
"517 124 OFFCURVE",
"517 109 CURVE SMOOTH",
"517 62 OFFCURVE",
"335 -11 OFFCURVE",
"196 -11 CURVE SMOOTH",
"154 -11 OFFCURVE",
"129 -5 OFFCURVE",
"120 8 CURVE",
"113 17 OFFCURVE",
"107 43 OFFCURVE",
"103 88 CURVE SMOOTH",
"99 132 OFFCURVE",
"95 198 OFFCURVE",
"90 287 CURVE SMOOTH",
"85 375 OFFCURVE",
"79 450 OFFCURVE",
"73 513 CURVE SMOOTH",
"68 562 OFFCURVE",
"66 598 OFFCURVE",
"66 623 CURVE SMOOTH"
);
}
);
width = 579;
}
);
note = E;
unicode = 0045;
},
{
glyphname = F;
layers = (
{
layerId = "8BD8650B-A4E1-42AA-8EA8-F95A9955B41A";
name = Regular;
paths = (
{
closed = 1;
nodes = (
"337 765 OFFCURVE",
"358 769 OFFCURVE",
"378 777 CURVE SMOOTH",
"397 785 OFFCURVE",
"425 789 OFFCURVE",
"461 789 CURVE SMOOTH",
"490 789 OFFCURVE",
"510 787 OFFCURVE",
"521 783 CURVE",
"532 778 OFFCURVE",
"537 770 OFFCURVE",
"537 757 CURVE SMOOTH",
"537 746 OFFCURVE",
"530 738 OFFCURVE",
"515 733 CURVE SMOOTH",
"500 728 OFFCURVE",
"463 720 OFFCURVE",
"406 709 CURVE SMOOTH",
"361 700 OFFCURVE",
"324 693 OFFCURVE",
"294 687 CURVE SMOOTH",
"193 666 LINE",
"193 586 LINE SMOOTH",
"193 532 OFFCURVE",
"195 491 OFFCURVE",
"200 463 CURVE SMOOTH",
"207 419 LINE",
"271 426 LINE SMOOTH",
"309 431 OFFCURVE",
"348 434 OFFCURVE",
"388 434 CURVE SMOOTH",
"439 434 OFFCURVE",
"465 429 OFFCURVE",
"465 419 CURVE SMOOTH",
"465 410 OFFCURVE",
"449 399 OFFCURVE",
"418 387 CURVE SMOOTH",
"387 375 OFFCURVE",
"347 365 OFFCURVE",
"300 356 CURVE SMOOTH",
"216 341 LINE",
"224 182 LINE SMOOTH",
"226 142 OFFCURVE",
"227 110 OFFCURVE",
"227 86 CURVE SMOOTH",
"227 57 OFFCURVE",
"225 37 OFFCURVE",
"222 26 CURVE",
"218 15 OFFCURVE",
"211 10 OFFCURVE",
"202 10 CURVE SMOOTH",
"190 10 OFFCURVE",
"168 13 OFFCURVE",
"163 33 CURVE",
"160 43 OFFCURVE",
"159 64 OFFCURVE",
"159 96 CURVE SMOOTH",
"159 127 OFFCURVE",
"153 186 OFFCURVE",
"142 275 CURVE SMOOTH",
"130 363 OFFCURVE",
"124 453 OFFCURVE",
"124 544 CURVE SMOOTH",
"124 713 LINE",
"197 739 LINE SMOOTH",
"246 756 OFFCURVE",
"285 765 OFFCURVE",
"314 765 CURVE SMOOTH"
);
}
);
width = 602;
}
);
note = F;
unicode = 0046;
},
{
glyphname = G;
layers = (
{
layerId = "8BD8650B-A4E1-42AA-8EA8-F95A9955B41A";
name = Regular;
paths = (
{
closed = 1;
nodes = (
"335 344 OFFCURVE",
"284 359 OFFCURVE",
"284 395 CURVE SMOOTH",
"284 418 OFFCURVE",
"308 428 OFFCURVE",
"333 436 CURVE SMOOTH",
"346 440 OFFCURVE",
"354 445 OFFCURVE",
"357 451 CURVE",
"360 456 OFFCURVE",
"372 459 OFFCURVE",
"392 459 CURVE SMOOTH",
"444 459 OFFCURVE",
"531 440 OFFCURVE",
"554 421 CURVE SMOOTH",
"573 405 OFFCURVE",
"588 365 OFFCURVE",
"599 300 CURVE SMOOTH",
"609 235 OFFCURVE",
"614 161 OFFCURVE",
"614 77 CURVE SMOOTH",
"614 33 OFFCURVE",
"608 7 OFFCURVE",
"596 -1 CURVE",
"591 -6 OFFCURVE",
"585 -8 OFFCURVE",
"578 -8 CURVE SMOOTH",
"571 -8 OFFCURVE",
"564 -5 OFFCURVE",
"557 2 CURVE SMOOTH",
"544 15 OFFCURVE",
"537 58 OFFCURVE",
"537 132 CURVE SMOOTH",
"537 246 LINE",
"505 193 LINE SMOOTH",
"429 68 OFFCURVE",
"326 -6 OFFCURVE",
"237 -6 CURVE SMOOTH",
"185 -6 OFFCURVE",
"142 21 OFFCURVE",
"126 47 CURVE SMOOTH",
"109 73 OFFCURVE",
"85 153 OFFCURVE",
"85 210 CURVE SMOOTH",
"85 250 OFFCURVE",
"95 354 OFFCURVE",
"120 415 CURVE SMOOTH",
"144 476 OFFCURVE",
"215 584 OFFCURVE",
"275 637 CURVE SMOOTH",
"305 664 OFFCURVE",
"331 682 OFFCURVE",
"353 692 CURVE SMOOTH",
"396 712 OFFCURVE",
"436 731 OFFCURVE",
"444 744 CURVE SMOOTH",
"451 755 OFFCURVE",
"468 761 OFFCURVE",
"495 761 CURVE SMOOTH",
"554 761 OFFCURVE",
"596 730 OFFCURVE",
"596 705 CURVE SMOOTH",
"596 689 OFFCURVE",
"576 646 OFFCURVE",
"559 646 CURVE SMOOTH",
"552 646 OFFCURVE",
"546 654 OFFCURVE",
"541 670 CURVE SMOOTH",
"536 685 OFFCURVE",
"529 693 OFFCURVE",
"519 693 CURVE SMOOTH",
"499 693 OFFCURVE",
"470 687 OFFCURVE",
"423 662 CURVE SMOOTH",
"375 637 OFFCURVE",
"330 604 OFFCURVE",
"275 537 CURVE SMOOTH",
"220 469 OFFCURVE",
"173 374 OFFCURVE",
"164 335 CURVE SMOOTH",
"159 316 OFFCURVE",
"157 283 OFFCURVE",
"157 238 CURVE SMOOTH",
"157 173 OFFCURVE",
"163 128 OFFCURVE",
"174 105 CURVE SMOOTH",
"185 81 OFFCURVE",
"207 69 OFFCURVE",
"238 69 CURVE SMOOTH",
"371 69 OFFCURVE",
"427 181 OFFCURVE",
"458 248 CURVE SMOOTH",
"473 281 OFFCURVE",
"481 307 OFFCURVE",
"481 324 CURVE SMOOTH",
"481 345 OFFCURVE",
"460 365 OFFCURVE",
"443 365 CURVE SMOOTH",
"438 365 OFFCURVE",
"431 362 OFFCURVE",
"422 355 CURVE SMOOTH",
"413 348 OFFCURVE",
"398 344 OFFCURVE",
"378 344 CURVE SMOOTH"
);
}
);
width = 700;
}
);
note = G;
unicode = 0047;
},
{
glyphname = H;
layers = (
{
layerId = "8BD8650B-A4E1-42AA-8EA8-F95A9955B41A";
name = Regular;
paths = (
{
closed = 1;
nodes = (
"597 52 OFFCURVE",
"582 41 OFFCURVE",
"574 39 CURVE",
"569 38 OFFCURVE",
"565 37 OFFCURVE",
"562 37 CURVE SMOOTH",
"546 37 OFFCURVE",
"535 54 OFFCURVE",
"528 87 CURVE SMOOTH",
"521 120 OFFCURVE",
"517 180 OFFCURVE",
"515 267 CURVE SMOOTH",
"512 393 OFFCURVE",
"507 456 OFFCURVE",
"500 456 CURVE SMOOTH",
"495 456 OFFCURVE",
"483 452 OFFCURVE",
"464 443 CURVE SMOOTH",
"427 426 OFFCURVE",
"341 385 OFFCURVE",
"264 356 CURVE SMOOTH",
"180 324 LINE",
"186 143 LINE SMOOTH",
"187 96 OFFCURVE",
"188 66 OFFCURVE",
"188 52 CURVE SMOOTH",
"188 -23 OFFCURVE",
"180 -60 OFFCURVE",
"165 -60 CURVE SMOOTH",
"162 -60 OFFCURVE",
"156 -58 OFFCURVE",
"149 -53 CURVE SMOOTH",
"135 -43 OFFCURVE",
"125 -9 OFFCURVE",
"118 49 CURVE SMOOTH",
"105 165 OFFCURVE",
"88 552 OFFCURVE",
"88 695 CURVE SMOOTH",
"88 753 OFFCURVE",
"91 788 OFFCURVE",
"96 801 CURVE SMOOTH",
"104 821 OFFCURVE",
"118 837 OFFCURVE",
"127 837 CURVE SMOOTH",
"138 837 OFFCURVE",
"148 768 OFFCURVE",
"159 629 CURVE SMOOTH",
"170 490 OFFCURVE",
"180 420 OFFCURVE",
"191 420 CURVE SMOOTH",
"192 420 OFFCURVE",
"197 422 OFFCURVE",
"206 426 CURVE",
"215 429 OFFCURVE",
"237 437 OFFCURVE",
"272 450 CURVE SMOOTH",
"307 463 OFFCURVE",
"351 477 OFFCURVE",
"404 494 CURVE SMOOTH",
"496 525 OFFCURVE",
"494 513 OFFCURVE",
"506 617 CURVE SMOOTH",
"511 665 OFFCURVE",
"517 697 OFFCURVE",
"522 714 CURVE SMOOTH",
"527 730 OFFCURVE",
"536 738 OFFCURVE",
"547 738 CURVE SMOOTH",
"562 738 OFFCURVE",
"572 717 OFFCURVE",
"577 675 CURVE SMOOTH",
"582 633 OFFCURVE",
"584 544 OFFCURVE",
"585 407 CURVE SMOOTH",
"586 302 OFFCURVE",
"589 218 OFFCURVE",
"591 176 CURVE SMOOTH",
"592 155 OFFCURVE",
"592 137 OFFCURVE",
"593 123 CURVE SMOOTH",
"594 108 OFFCURVE",
"594 99 OFFCURVE",
"595 94 CURVE",
"596 85 OFFCURVE",
"597 78 OFFCURVE",
"597 71 CURVE SMOOTH"
);
}
);
width = 666;
}
);
note = H;
unicode = 0048;
},
{
glyphname = I;
layers = (
{
layerId = "8BD8650B-A4E1-42AA-8EA8-F95A9955B41A";
name = Regular;
paths = (
{
closed = 1;
nodes = (
"391 117 OFFCURVE",
"393 118 OFFCURVE",
"396 121 CURVE",
"403 125 OFFCURVE",
"415 132 OFFCURVE",
"428 132 CURVE SMOOTH",
"449 132 OFFCURVE",
"467 120 OFFCURVE",
"467 101 CURVE SMOOTH",
"467 86 OFFCURVE",
"456 73 OFFCURVE",
"434 60 CURVE SMOOTH",
"390 34 OFFCURVE",
"258 -18 OFFCURVE",
"223 -18 CURVE SMOOTH",
"202 -18 OFFCURVE",
"155 -5 OFFCURVE",
"140 7 CURVE SMOOTH",
"133 13 OFFCURVE",
"129 21 OFFCURVE",
"129 30 CURVE SMOOTH",
"129 50 OFFCURVE",
"137 55 OFFCURVE",
"168 55 CURVE SMOOTH",
"191 55 OFFCURVE",
"221 63 OFFCURVE",
"257 78 CURVE",
"307 101 LINE",
"298 288 LINE SMOOTH",
"292 413 OFFCURVE",
"289 511 OFFCURVE",
"289 584 CURVE SMOOTH",
"289 691 LINE",
"260 683 LINE SMOOTH",
"227 674 OFFCURVE",
"196 669 OFFCURVE",
"165 669 CURVE SMOOTH",
"126 669 OFFCURVE",
"107 676 OFFCURVE",
"107 691 CURVE SMOOTH",
"107 700 OFFCURVE",
"119 709 OFFCURVE",
"142 720 CURVE",
"165 730 OFFCURVE",
"195 741 OFFCURVE",
"232 752 CURVE SMOOTH",
"268 763 OFFCURVE",
"291 771 OFFCURVE",
"301 775 CURVE SMOOTH",
"308 778 OFFCURVE",
"330 780 OFFCURVE",
"366 780 CURVE SMOOTH",
"412 780 OFFCURVE",
"441 778 OFFCURVE",
"454 773 CURVE",
"463 769 OFFCURVE",
"473 753 OFFCURVE",
"473 741 CURVE SMOOTH",
"473 729 OFFCURVE",
"467 720 OFFCURVE",
"456 715 CURVE",
"445 709 OFFCURVE",
"423 704 OFFCURVE",
"390 700 CURVE SMOOTH",
"360 696 LINE",
"362 522 LINE SMOOTH",
"367 252 OFFCURVE",
"376 117 OFFCURVE",
"390 117 CURVE SMOOTH"
);
}
);
width = 587;
}
);
note = I;
unicode = 0049;
},
{
glyphname = J;
lastChange = "2015-11-24 17:41:58 +0000";
layers = (
{
layerId = "8BD8650B-A4E1-42AA-8EA8-F95A9955B41A";
name = Regular;
paths = (
{
closed = 1;
nodes = (
"331 644 OFFCURVE",
"290 636 OFFCURVE",
"225 619 CURVE SMOOTH",
"159 602 OFFCURVE",
"118 594 OFFCURVE",
"103 594 CURVE SMOOTH",
"79 594 OFFCURVE",
"69 619 OFFCURVE",
"69 632 CURVE SMOOTH",
"69 647 OFFCURVE",
"87 660 OFFCURVE",
"123 673 CURVE SMOOTH",
"159 686 OFFCURVE",
"236 706 OFFCURVE",
"354 734 CURVE SMOOTH",
"591 793 LINE",
"592 793 LINE SMOOTH",
"599 793 OFFCURVE",
"638 768 OFFCURVE",
"638 753 CURVE SMOOTH",
"638 743 OFFCURVE",
"625 733 OFFCURVE",
"599 723 CURVE SMOOTH",
"573 713 OFFCURVE",
"545 704 OFFCURVE",
"514 696 CURVE SMOOTH",
"483 687 OFFCURVE",
"466 681 OFFCURVE",
"461 677 CURVE SMOOTH",
"455 672 OFFCURVE",
"452 637 OFFCURVE",
"452 571 CURVE SMOOTH",
"452 527 LINE SMOOTH",
"452 394 OFFCURVE",
"431 159 OFFCURVE",
"412 83 CURVE SMOOTH",
"393 14 OFFCURVE",
"352 -53 OFFCURVE",
"325 -53 CURVE SMOOTH",
"290 -53 OFFCURVE",
"233 -22 OFFCURVE",
"233 -3 CURVE SMOOTH",
"233 8 OFFCURVE",
"228 18 OFFCURVE",
"217 25 CURVE SMOOTH",
"190 41 OFFCURVE",
"98 206 OFFCURVE",
"98 263 CURVE SMOOTH",
"98 298 OFFCURVE",
"114 315 OFFCURVE",
"147 315 CURVE SMOOTH",
"186 315 OFFCURVE",
"188 303 OFFCURVE",
"191 238 CURVE SMOOTH",
"192 183 OFFCURVE",
"203 154 OFFCURVE",
"232 107 CURVE SMOOTH",
"251 77 OFFCURVE",
"266 56 OFFCURVE",
"277 44 CURVE",
"287 31 OFFCURVE",
"296 25 OFFCURVE",
"304 25 CURVE SMOOTH",
"311 25 OFFCURVE",
"319 30 OFFCURVE",
"327 40 CURVE SMOOTH",
"355 75 OFFCURVE",
"386 310 OFFCURVE",
"386 494 CURVE SMOOTH",
"386 547 LINE SMOOTH",
"386 586 OFFCURVE",
"384 612 OFFCURVE",
"379 625 CURVE SMOOTH",
"374 638 OFFCURVE",
"363 644 OFFCURVE",
"346 644 CURVE SMOOTH"
);
}
);
width = 689;
}
);
note = J;
unicode = 004A;
},
{
glyphname = K;
layers = (
{
layerId = "8BD8650B-A4E1-42AA-8EA8-F95A9955B41A";
name = Regular;
paths = (
{
closed = 1;
nodes = (
"94 789 OFFCURVE",
"95 807 OFFCURVE",
"98 817 CURVE SMOOTH",
"101 826 OFFCURVE",
"107 831 OFFCURVE",
"118 831 CURVE SMOOTH",
"132 831 OFFCURVE",
"144 822 OFFCURVE",
"153 805 CURVE SMOOTH",
"161 789 OFFCURVE",
"166 745 OFFCURVE",
"167 672 CURVE SMOOTH",
"167 599 OFFCURVE",
"170 544 OFFCURVE",
"176 507 CURVE SMOOTH",
"185 451 LINE",
"283 556 LINE SMOOTH",
"349 626 OFFCURVE",
"387 661 OFFCURVE",
"397 661 CURVE SMOOTH",
"405 661 OFFCURVE",
"418 670 OFFCURVE",
"436 687 CURVE SMOOTH",
"453 704 OFFCURVE",
"466 713 OFFCURVE",
"474 713 CURVE SMOOTH",
"482 713 OFFCURVE",
"493 719 OFFCURVE",
"508 732 CURVE SMOOTH",
"523 745 OFFCURVE",
"536 751 OFFCURVE",
"549 751 CURVE SMOOTH",
"572 751 OFFCURVE",
"591 734 OFFCURVE",
"591 709 CURVE SMOOTH",
"591 701 OFFCURVE",
"588 695 OFFCURVE",
"582 690 CURVE",
"575 685 OFFCURVE",
"564 680 OFFCURVE",
"547 675 CURVE SMOOTH",
"484 658 OFFCURVE",
"216 389 OFFCURVE",
"216 346 CURVE SMOOTH",
"216 343 OFFCURVE",
"272 310 OFFCURVE",
"385 249 CURVE SMOOTH",
"461 208 OFFCURVE",
"529 170 OFFCURVE",
"557 152 CURVE SMOOTH",
"585 134 OFFCURVE",
"608 119 OFFCURVE",
"617 115 CURVE",
"622 113 OFFCURVE",
"626 112 OFFCURVE",
"631 112 CURVE SMOOTH",
"655 112 OFFCURVE",
"730 46 OFFCURVE",
"730 26 CURVE SMOOTH",
"730 13 OFFCURVE",
"727 7 OFFCURVE",
"720 7 CURVE SMOOTH",
"695 7 OFFCURVE",
"573 51 OFFCURVE",
"532 75 CURVE SMOOTH",
"445 127 OFFCURVE",
"216 243 OFFCURVE",
"203 243 CURVE SMOOTH",
"196 243 OFFCURVE",
"193 234 OFFCURVE",
"193 217 CURVE SMOOTH",
"193 210 OFFCURVE",
"196 178 OFFCURVE",
"203 123 CURVE SMOOTH",
"209 67 OFFCURVE",
"212 24 OFFCURVE",
"212 -6 CURVE SMOOTH",
"212 -46 OFFCURVE",
"203 -66 OFFCURVE",
"186 -66 CURVE SMOOTH",
"163 -66 OFFCURVE",
"148 -53 OFFCURVE",
"141 -27 CURVE SMOOTH",
"134 -2 OFFCURVE",
"126 59 OFFCURVE",
"119 154 CURVE SMOOTH",
"117 173 OFFCURVE",
"116 188 OFFCURVE",
"115 199 CURVE SMOOTH",
"101 378 OFFCURVE",
"94 566 OFFCURVE",
"94 763 CURVE SMOOTH"
);
}
);
width = 779;
}
);
note = K;
unicode = 004B;
},
{
glyphname = L;
layers = (
{
layerId = "8BD8650B-A4E1-42AA-8EA8-F95A9955B41A";
name = Regular;
paths = (
{
closed = 1;
nodes = (
"97 780 OFFCURVE",
"102 788 OFFCURVE",
"112 788 CURVE SMOOTH",
"125 788 OFFCURVE",
"137 776 OFFCURVE",
"147 751 CURVE SMOOTH",
"156 729 OFFCURVE",
"164 624 OFFCURVE",
"173 436 CURVE SMOOTH",
"182 239 OFFCURVE",
"190 128 OFFCURVE",
"196 101 CURVE SMOOTH",
"201 80 OFFCURVE",
"209 69 OFFCURVE",
"222 68 CURVE",
"225 67 OFFCURVE",
"229 67 OFFCURVE",
"234 67 CURVE SMOOTH",
"269 67 OFFCURVE",
"419 103 OFFCURVE",
"531 132 CURVE SMOOTH",
"586 146 OFFCURVE",
"615 153 OFFCURVE",
"617 153 CURVE SMOOTH",
"640 153 OFFCURVE",
"655 130 OFFCURVE",
"655 119 CURVE SMOOTH",
"655 114 OFFCURVE",
"649 106 OFFCURVE",
"636 94 CURVE",
"593 59 OFFCURVE",
"327 -10 OFFCURVE",
"204 -10 CURVE SMOOTH",
"176 -10 OFFCURVE",
"158 -5 OFFCURVE",
"149 5 CURVE SMOOTH",
"121 37 OFFCURVE",
"119 148 OFFCURVE",
"108 396 CURVE SMOOTH",
"101 572 OFFCURVE",
"97 694 OFFCURVE",
"97 763 CURVE SMOOTH"
);
}
);
width = 708;
}
);
note = L;
unicode = 004C;
},
{
glyphname = M;
layers = (
{
layerId = "8BD8650B-A4E1-42AA-8EA8-F95A9955B41A";
name = Regular;
paths = (
{
closed = 1;
nodes = (
"103 -71 OFFCURVE",
"97 -65 OFFCURVE",
"92 -53 CURVE SMOOTH",
"87 -41 OFFCURVE",
"82 -15 OFFCURVE",
"79 25 CURVE SMOOTH",
"76 65 OFFCURVE",
"74 119 OFFCURVE",
"73 187 CURVE SMOOTH",
"72 254 OFFCURVE",
"71 348 OFFCURVE",
"71 467 CURVE SMOOTH",
"71 672 OFFCURVE",
"75 779 OFFCURVE",
"83 789 CURVE",
"92 802 OFFCURVE",
"105 808 OFFCURVE",
"120 808 CURVE SMOOTH",
"129 808 OFFCURVE",
"137 799 OFFCURVE",
"146 782 CURVE",
"154 765 OFFCURVE",
"165 733 OFFCURVE",
"178 687 CURVE SMOOTH",
"198 614 OFFCURVE",
"221 549 OFFCURVE",
"248 491 CURVE SMOOTH",
"274 432 OFFCURVE",
"293 403 OFFCURVE",
"304 403 CURVE SMOOTH",
"315 403 OFFCURVE",
"339 434 OFFCURVE",
"376 497 CURVE SMOOTH",
"413 559 OFFCURVE",
"455 640 OFFCURVE",
"502 741 CURVE SMOOTH",
"519 778 OFFCURVE",
"550 803 OFFCURVE",
"577 803 CURVE SMOOTH",
"586 803 OFFCURVE",
"594 800 OFFCURVE",
"599 795 CURVE",
"614 782 OFFCURVE",
"623 752 OFFCURVE",
"628 706 CURVE SMOOTH",
"633 659 OFFCURVE",
"636 562 OFFCURVE",
"637 413 CURVE SMOOTH",
"638 323 OFFCURVE",
"640 250 OFFCURVE",
"643 193 CURVE SMOOTH",
"646 136 OFFCURVE",
"650 101 OFFCURVE",
"654 86 CURVE",
"657 71 OFFCURVE",
"660 58 OFFCURVE",
"663 48 CURVE SMOOTH",
"666 38 OFFCURVE",
"667 28 OFFCURVE",
"667 19 CURVE SMOOTH",
"667 -2 OFFCURVE",
"658 -12 OFFCURVE",
"639 -12 CURVE SMOOTH",
"618 -12 OFFCURVE",
"595 3 OFFCURVE",
"587 24 CURVE SMOOTH",
"583 35 OFFCURVE",
"579 94 OFFCURVE",
"575 201 CURVE SMOOTH",
"571 308 OFFCURVE",
"567 412 OFFCURVE",
"563 513 CURVE SMOOTH",
"559 614 OFFCURVE",
"555 664 OFFCURVE",
"550 664 CURVE SMOOTH",
"544 664 OFFCURVE",
"531 642 OFFCURVE",
"511 597 CURVE SMOOTH",
"487 542 OFFCURVE",
"456 482 OFFCURVE",
"418 416 CURVE SMOOTH",
"390 367 OFFCURVE",
"323 320 OFFCURVE",
"280 320 CURVE SMOOTH",
"275 320 OFFCURVE",
"265 329 OFFCURVE",
"251 346 CURVE SMOOTH",
"237 363 OFFCURVE",
"223 383 OFFCURVE",
"209 407 CURVE SMOOTH",
"158 494 LINE",
"158 236 LINE SMOOTH",
"157 109 OFFCURVE",
"154 27 OFFCURVE",
"149 -12 CURVE SMOOTH",
"143 -51 OFFCURVE",
"131 -71 OFFCURVE",
"112 -71 CURVE SMOOTH"
);
}
);
width = 727;
}
);
note = M;
unicode = 004D;
},
{
glyphname = N;
layers = (
{
layerId = "8BD8650B-A4E1-42AA-8EA8-F95A9955B41A";
name = Regular;
paths = (
{
closed = 1;
nodes = (
"170 280 OFFCURVE",
"171 250 OFFCURVE",
"174 225 CURVE SMOOTH",
"177 200 OFFCURVE",
"178 184 OFFCURVE",
"178 177 CURVE SMOOTH",
"178 143 OFFCURVE",
"174 111 OFFCURVE",
"165 80 CURVE SMOOTH",
"147 18 OFFCURVE",
"114 31 OFFCURVE",
"102 42 CURVE",
"95 47 OFFCURVE",
"90 61 OFFCURVE",
"87 83 CURVE SMOOTH",
"84 104 OFFCURVE",
"82 140 OFFCURVE",
"82 189 CURVE SMOOTH",
"82 360 OFFCURVE",
"94 741 OFFCURVE",
"102 761 CURVE SMOOTH",
"109 778 OFFCURVE",
"123 786 OFFCURVE",
"143 786 CURVE SMOOTH",
"154 786 OFFCURVE",
"166 782 OFFCURVE",
"177 775 CURVE SMOOTH",
"194 764 OFFCURVE",
"313 595 OFFCURVE",
"313 582 CURVE SMOOTH",
"313 578 OFFCURVE",
"319 567 OFFCURVE",
"331 549 CURVE SMOOTH",
"355 512 OFFCURVE",
"422 402 OFFCURVE",
"486 275 CURVE SMOOTH",
"555 138 OFFCURVE",
"601 70 OFFCURVE",
"622 70 CURVE SMOOTH",
"625 70 OFFCURVE",
"627 71 OFFCURVE",
"629 72 CURVE SMOOTH",
"631 73 OFFCURVE",
"634 79 OFFCURVE",
"637 88 CURVE SMOOTH",
"640 97 OFFCURVE",
"643 111 OFFCURVE",
"646 128 CURVE SMOOTH",
"651 162 OFFCURVE",
"658 232 OFFCURVE",
"663 329 CURVE SMOOTH",
"675 519 OFFCURVE",
"685 630 OFFCURVE",
"693 663 CURVE SMOOTH",
"700 692 OFFCURVE",
"711 709 OFFCURVE",
"727 713 CURVE SMOOTH",
"731 714 OFFCURVE",
"736 714 OFFCURVE",
"742 714 CURVE SMOOTH",
"765 714 OFFCURVE",
"774 699 OFFCURVE",
"774 656 CURVE SMOOTH",
"774 641 OFFCURVE",
"772 618 OFFCURVE",
"769 586 CURVE SMOOTH",
"762 522 OFFCURVE",
"746 374 OFFCURVE",
"734 222 CURVE SMOOTH",
"727 121 OFFCURVE",
"719 55 OFFCURVE",
"710 25 CURVE SMOOTH",
"701 -6 OFFCURVE",
"684 -21 OFFCURVE",
"659 -21 CURVE SMOOTH",
"572 -21 OFFCURVE",
"508 46 OFFCURVE",
"435 195 CURVE SMOOTH",
"417 231 OFFCURVE",
"401 262 OFFCURVE",
"387 288 CURVE SMOOTH",
"373 313 OFFCURVE",
"364 330 OFFCURVE",
"359 338 CURVE SMOOTH",
"350 353 OFFCURVE",
"344 366 OFFCURVE",
"337 391 CURVE",
"332 412 OFFCURVE",
"309 455 OFFCURVE",
"266 521 CURVE SMOOTH",
"223 586 OFFCURVE",
"202 620 OFFCURVE",
"201 622 CURVE",
"200 623 OFFCURVE",
"199 624 OFFCURVE",
"198 624 CURVE SMOOTH",
"191 624 OFFCURVE",
"185 589 OFFCURVE",
"179 519 CURVE SMOOTH",
"173 448 OFFCURVE",
"170 380 OFFCURVE",
"170 314 CURVE SMOOTH"
);
}
);
width = 829;
}
);
note = N;
unicode = 004E;
},
{
glyphname = O;
layers = (
{
layerId = "8BD8650B-A4E1-42AA-8EA8-F95A9955B41A";
name = Regular;
paths = (
{
closed = 1;
nodes = (
"607 365 OFFCURVE",
"576 240 OFFCURVE",
"538 157 CURVE SMOOTH",
"519 116 OFFCURVE",
"499 82 OFFCURVE",
"479 55 CURVE SMOOTH",
"458 28 OFFCURVE",
"441 14 OFFCURVE",
"428 14 CURVE SMOOTH",
"417 14 OFFCURVE",
"410 9 OFFCURVE",
"407 -2 CURVE",
"405 -8 OFFCURVE",
"391 -13 OFFCURVE",
"364 -18 CURVE SMOOTH",
"337 -23 OFFCURVE",
"308 -26 OFFCURVE",
"279 -26 CURVE SMOOTH",
"243 -26 OFFCURVE",
"229 -20 OFFCURVE",
"194 7 CURVE SMOOTH",
"123 63 OFFCURVE",
"61 202 OFFCURVE",
"61 307 CURVE SMOOTH",
"61 428 OFFCURVE",
"122 564 OFFCURVE",
"206 624 CURVE SMOOTH",
"246 652 OFFCURVE",
"273 666 OFFCURVE",
"286 666 CURVE SMOOTH",
"295 666 OFFCURVE",
"308 675 OFFCURVE",
"327 693 CURVE SMOOTH",
"346 711 OFFCURVE",
"361 720 OFFCURVE",
"372 720 CURVE SMOOTH",
"385 720 OFFCURVE",
"395 725 OFFCURVE",
"404 734 CURVE",
"412 743 OFFCURVE",
"424 747 OFFCURVE",
"440 747 CURVE SMOOTH",
"540 747 OFFCURVE",
"607 640 OFFCURVE",
"607 473 CURVE SMOOTH"
);
},
{
closed = 1;
nodes = (
"552 531 OFFCURVE",
"499 633 OFFCURVE",
"484 642 CURVE SMOOTH",
"476 647 OFFCURVE",
"463 650 OFFCURVE",
"446 650 CURVE SMOOTH",
"417 650 OFFCURVE",
"379 642 OFFCURVE",
"332 627 CURVE SMOOTH",
"231 595 OFFCURVE",
"169 511 OFFCURVE",
"146 374 CURVE SMOOTH",
"139 333 OFFCURVE",
"136 306 OFFCURVE",
"136 293 CURVE SMOOTH",
"136 274 OFFCURVE",
"144 240 OFFCURVE",
"160 193 CURVE SMOOTH",
"196 92 OFFCURVE",
"245 42 OFFCURVE",
"307 42 CURVE SMOOTH",
"324 42 OFFCURVE",
"343 46 OFFCURVE",
"363 54 CURVE SMOOTH",
"410 71 OFFCURVE",
"496 200 OFFCURVE",
"507 265 CURVE",
"510 292 OFFCURVE",
"519 334 OFFCURVE",
"532 389 CURVE SMOOTH",
"545 444 OFFCURVE",
"552 479 OFFCURVE",
"552 492 CURVE SMOOTH"
);
}
);
width = 655;
}
);
note = O;
unicode = 004F;
},
{
glyphname = P;
layers = (
{
layerId = "8BD8650B-A4E1-42AA-8EA8-F95A9955B41A";
name = Regular;
paths = (
{
closed = 1;
nodes = (
"250 795 OFFCURVE",
"277 798 OFFCURVE",
"308 804 CURVE SMOOTH",
"339 809 OFFCURVE",
"364 812 OFFCURVE",
"384 812 CURVE SMOOTH",
"393 812 OFFCURVE",
"399 812 OFFCURVE",
"402 811 CURVE",
"425 808 OFFCURVE",
"442 805 OFFCURVE",
"452 804 CURVE",
"472 801 OFFCURVE",
"516 793 OFFCURVE",
"532 785 CURVE SMOOTH",
"547 777 OFFCURVE",
"573 763 OFFCURVE",
"582 745 CURVE SMOOTH",
"591 727 OFFCURVE",
"599 699 OFFCURVE",
"599 666 CURVE SMOOTH",
"599 637 OFFCURVE",
"595 606 OFFCURVE",
"587 575 CURVE SMOOTH",
"579 543 OFFCURVE",
"571 527 OFFCURVE",
"563 527 CURVE SMOOTH",
"554 527 OFFCURVE",
"550 521 OFFCURVE",
"550 508 CURVE SMOOTH",
"550 477 OFFCURVE",
"441 377 OFFCURVE",
"396 368 CURVE",
"369 361 OFFCURVE",
"353 353 OFFCURVE",
"349 346 CURVE SMOOTH",
"344 337 OFFCURVE",
"323 333 OFFCURVE",
"284 333 CURVE SMOOTH",
"225 333 LINE",
"235 153 LINE SMOOTH",
"238 107 OFFCURVE",
"239 67 OFFCURVE",
"239 32 CURVE SMOOTH",
"239 -11 OFFCURVE",
"235 -37 OFFCURVE",
"228 -48 CURVE",
"217 -61 OFFCURVE",
"207 -68 OFFCURVE",
"199 -68 CURVE SMOOTH",
"184 -68 OFFCURVE",
"175 -53 OFFCURVE",
"171 -23 CURVE SMOOTH",
"158 80 OFFCURVE",
"131 459 OFFCURVE",
"131 558 CURVE SMOOTH",
"131 665 LINE",
"101 644 LINE SMOOTH",
"88 635 OFFCURVE",
"76 630 OFFCURVE",
"66 630 CURVE SMOOTH",
"58 630 OFFCURVE",
"47 641 OFFCURVE",
"47 654 CURVE SMOOTH",
"47 691 OFFCURVE",
"131 772 OFFCURVE",
"152 787 CURVE",
"163 794 OFFCURVE",
"174 798 OFFCURVE",
"185 798 CURVE SMOOTH",
"188 798 OFFCURVE",
"194 798 OFFCURVE",
"202 797 CURVE SMOOTH",
"210 796 OFFCURVE",
"219 795 OFFCURVE",
"229 795 CURVE SMOOTH"
);
},
{
closed = 1;
nodes = (
"412 728 OFFCURVE",
"388 732 OFFCURVE",
"374 732 CURVE SMOOTH",
"347 732 OFFCURVE",
"233 711 OFFCURVE",
"216 690 CURVE SMOOTH",
"207 679 OFFCURVE",
"203 655 OFFCURVE",
"203 617 CURVE SMOOTH",
"203 540 OFFCURVE",
"214 426 OFFCURVE",
"225 414 CURVE",
"228 411 OFFCURVE",
"235 409 OFFCURVE",
"248 409 CURVE SMOOTH",
"291 409 OFFCURVE",
"377 432 OFFCURVE",
"421 456 CURVE SMOOTH",
"448 471 OFFCURVE",
"469 494 OFFCURVE",
"470 510 CURVE",
"472 525 OFFCURVE",
"484 546 OFFCURVE",
"506 575 CURVE SMOOTH",
"527 603 OFFCURVE",
"538 626 OFFCURVE",
"538 644 CURVE SMOOTH",
"538 681 OFFCURVE",
"508 707 OFFCURVE",
"447 720 CURVE SMOOTH"
);
}
);
width = 651;
}
);
note = P;
unicode = 0050;
},
{
glyphname = Q;
layers = (
{
layerId = "8BD8650B-A4E1-42AA-8EA8-F95A9955B41A";
name = Regular;
paths = (
{
closed = 1;
nodes = (
"184 684 OFFCURVE",
"300 743 OFFCURVE",
"528 759 CURVE",
"531 759 LINE SMOOTH",
"566 759 OFFCURVE",
"603 715 OFFCURVE",
"630 643 CURVE SMOOTH",
"640 616 OFFCURVE",
"645 580 OFFCURVE",
"645 536 CURVE SMOOTH",
"645 459 OFFCURVE",
"631 373 OFFCURVE",
"602 279 CURVE SMOOTH",
"571 177 LINE",
"606 151 LINE SMOOTH",
"678 96 OFFCURVE",
"738 23 OFFCURVE",
"738 -6 CURVE SMOOTH",
"738 -14 OFFCURVE",
"733 -18 OFFCURVE",
"724 -18 CURVE SMOOTH",
"709 -18 OFFCURVE",
"664 5 OFFCURVE",
"643 24 CURVE",
"640 26 OFFCURVE",
"619 42 OFFCURVE",
"578 71 CURVE SMOOTH",
"528 106 LINE",
"508 74 LINE SMOOTH",
"457 -7 OFFCURVE",
"374 -55 OFFCURVE",
"289 -55 CURVE SMOOTH",
"188 -55 OFFCURVE",
"131 -7 OFFCURVE",
"85 110 CURVE SMOOTH",
"62 168 OFFCURVE",
"50 218 OFFCURVE",
"50 259 CURVE SMOOTH",
"50 354 OFFCURVE",
"76 467 OFFCURVE",
"116 547 CURVE SMOOTH"
);
},
{
closed = 1;
nodes = (
"525 237 OFFCURVE",
"591 473 OFFCURVE",
"591 532 CURVE SMOOTH",
"591 568 OFFCURVE",
"579 585 OFFCURVE",
"546 620 CURVE SMOOTH",
"529 637 OFFCURVE",
"512 649 OFFCURVE",
"495 654 CURVE SMOOTH",
"477 659 OFFCURVE",
"440 661 OFFCURVE",
"384 661 CURVE SMOOTH",
"349 661 OFFCURVE",
"327 660 OFFCURVE",
"318 657 CURVE SMOOTH",
"273 641 OFFCURVE",
"165 526 OFFCURVE",
"165 494 CURVE SMOOTH",
"165 479 OFFCURVE",
"161 467 OFFCURVE",
"152 457 CURVE",
"143 448 OFFCURVE",
"128 331 OFFCURVE",
"128 252 CURVE SMOOTH",
"128 181 OFFCURVE",
"166 83 OFFCURVE",
"207 49 CURVE SMOOTH",
"228 32 OFFCURVE",
"256 23 OFFCURVE",
"292 23 CURVE SMOOTH",
"369 23 OFFCURVE",
"468 87 OFFCURVE",
"469 138 CURVE SMOOTH",
"469 146 OFFCURVE",
"458 162 OFFCURVE",
"435 186 CURVE SMOOTH",
"412 209 OFFCURVE",
"383 234 OFFCURVE",
"349 260 CURVE SMOOTH",
"329 275 OFFCURVE",
"319 286 OFFCURVE",
"319 292 CURVE SMOOTH",
"319 301 OFFCURVE",
"339 324 OFFCURVE",
"352 324 CURVE SMOOTH",
"362 324 OFFCURVE",
"389 310 OFFCURVE",
"432 281 CURVE SMOOTH",
"475 252 OFFCURVE",
"499 237 OFFCURVE",
"506 237 CURVE SMOOTH"
);
}
);
width = 761;
}
);
note = Q;
unicode = 0051;
},
{
glyphname = R;
layers = (
{
layerId = "8BD8650B-A4E1-42AA-8EA8-F95A9955B41A";
name = Regular;
paths = (
{
closed = 1;
nodes = (
"57 645 OFFCURVE",
"143 741 OFFCURVE",
"159 741 CURVE SMOOTH",
"210 741 OFFCURVE",
"445 712 OFFCURVE",
"478 701 CURVE",
"523 688 OFFCURVE",
"545 658 OFFCURVE",
"545 610 CURVE SMOOTH",
"545 565 OFFCURVE",
"519 513 OFFCURVE",
"492 482 CURVE SMOOTH",
"479 466 OFFCURVE",
"467 451 OFFCURVE",
"456 438 CURVE SMOOTH",
"445 425 OFFCURVE",
"439 416 OFFCURVE",
"439 413 CURVE SMOOTH",
"439 404 OFFCURVE",
"339 339 OFFCURVE",
"280 308 CURVE SMOOTH",
"256 295 OFFCURVE",
"244 286 OFFCURVE",
"244 283 CURVE SMOOTH",
"244 282 OFFCURVE",
"257 277 OFFCURVE",
"282 269 CURVE SMOOTH",
"332 252 OFFCURVE",
"415 221 OFFCURVE",
"454 194 CURVE SMOOTH",
"485 173 OFFCURVE",
"503 162 OFFCURVE",
"510 162 CURVE",
"529 161 OFFCURVE",
"587 101 OFFCURVE",
"587 82 CURVE SMOOTH",
"587 65 OFFCURVE",
"581 57 OFFCURVE",
"569 57 CURVE SMOOTH",
"558 57 OFFCURVE",
"542 63 OFFCURVE",
"519 76 CURVE SMOOTH",
"496 88 OFFCURVE",
"464 105 OFFCURVE",
"424 127 CURVE SMOOTH",
"384 148 OFFCURVE",
"345 167 OFFCURVE",
"306 182 CURVE SMOOTH",
"228 213 LINE",
"232 96 LINE SMOOTH",
"233 79 OFFCURVE",
"233 54 OFFCURVE",
"233 21 CURVE SMOOTH",
"233 -11 OFFCURVE",
"229 -24 OFFCURVE",
"206 -24 CURVE SMOOTH",
"181 -24 OFFCURVE",
"168 17 OFFCURVE",
"168 98 CURVE SMOOTH",
"168 183 OFFCURVE",
"154 232 OFFCURVE",
"127 245 CURVE SMOOTH",
"107 254 OFFCURVE",
"97 266 OFFCURVE",
"97 281 CURVE SMOOTH",
"97 295 OFFCURVE",
"107 307 OFFCURVE",
"126 316 CURVE SMOOTH",
"159 331 LINE",
"151 445 LINE SMOOTH",
"147 506 OFFCURVE",
"143 548 OFFCURVE",
"139 572 CURVE",
"134 595 OFFCURVE",
"128 607 OFFCURVE",
"121 607 CURVE SMOOTH",
"119 607 OFFCURVE",
"115 605 OFFCURVE",
"109 600 CURVE SMOOTH",
"103 595 OFFCURVE",
"96 593 OFFCURVE",
"87 593 CURVE SMOOTH",
"71 593 OFFCURVE",
"57 605 OFFCURVE",
"57 622 CURVE SMOOTH"
);
},
{
closed = 1;
nodes = (
"486 620 OFFCURVE",
"485 622 OFFCURVE",
"483 624 CURVE",
"481 625 OFFCURVE",
"474 628 OFFCURVE",
"463 632 CURVE",
"452 635 OFFCURVE",
"435 640 OFFCURVE",
"412 647 CURVE SMOOTH",
"367 660 OFFCURVE",
"321 666 OFFCURVE",
"274 666 CURVE SMOOTH",
"202 666 LINE",
"209 612 LINE SMOOTH",
"211 599 OFFCURVE",
"214 571 OFFCURVE",
"218 528 CURVE SMOOTH",
"222 485 OFFCURVE",
"226 447 OFFCURVE",
"229 414 CURVE SMOOTH",
"232 381 OFFCURVE",
"235 364 OFFCURVE",
"236 364 CURVE SMOOTH",
"255 364 OFFCURVE",
"362 423 OFFCURVE",
"394 452 CURVE SMOOTH",
"429 483 OFFCURVE",
"486 588 OFFCURVE",
"486 617 CURVE SMOOTH"
);
}
);
width = 636;
}
);
note = R;
unicode = 0052;
},
{
glyphname = S;
layers = (
{
layerId = "8BD8650B-A4E1-42AA-8EA8-F95A9955B41A";
name = Regular;
paths = (
{
closed = 1;
nodes = (
"175 175 OFFCURVE",
"170 163 OFFCURVE",
"160 153 CURVE",
"150 142 OFFCURVE",
"145 134 OFFCURVE",
"145 127 CURVE SMOOTH",
"145 112 OFFCURVE",
"157 81 OFFCURVE",
"178 74 CURVE SMOOTH",
"188 71 OFFCURVE",
"213 69 OFFCURVE",
"254 69 CURVE SMOOTH",
"323 69 OFFCURVE",
"350 75 OFFCURVE",
"382 99 CURVE SMOOTH",
"434 136 OFFCURVE",
"440 147 OFFCURVE",
"440 200 CURVE SMOOTH",
"440 240 OFFCURVE",
"434 248 OFFCURVE",
"370 277 CURVE SMOOTH",
"324 298 OFFCURVE",
"294 309 OFFCURVE",
"281 309 CURVE SMOOTH",
"224 309 OFFCURVE",
"61 447 OFFCURVE",
"61 496 CURVE SMOOTH",
"61 567 OFFCURVE",
"147 675 OFFCURVE",
"236 718 CURVE SMOOTH",
"259 729 OFFCURVE",
"302 735 OFFCURVE",
"365 735 CURVE SMOOTH",
"421 735 OFFCURVE",
"441 730 OFFCURVE",
"473 703 CURVE SMOOTH",
"496 684 OFFCURVE",
"516 655 OFFCURVE",
"516 642 CURVE SMOOTH",
"516 626 OFFCURVE",
"513 618 OFFCURVE",
"508 618 CURVE SMOOTH",
"497 618 OFFCURVE",
"479 634 OFFCURVE",
"460 650 CURVE SMOOTH",
"441 665 OFFCURVE",
"404 681 OFFCURVE",
"363 681 CURVE SMOOTH",
"251 681 OFFCURVE",
"140 583 OFFCURVE",
"140 488 CURVE SMOOTH",
"140 449 OFFCURVE",
"209 408 OFFCURVE",
"346 364 CURVE SMOOTH",
"454 330 OFFCURVE",
"508 277 OFFCURVE",
"508 205 CURVE SMOOTH",
"508 190 OFFCURVE",
"505 173 OFFCURVE",
"500 154 CURVE SMOOTH",
"469 50 OFFCURVE",
"413 19 OFFCURVE",
"230 7 CURVE SMOOTH",
"140 1 LINE",
"113 57 LINE SMOOTH",
"99 84 OFFCURVE",
"92 112 OFFCURVE",
"92 139 CURVE SMOOTH",
"92 184 OFFCURVE",
"114 215 OFFCURVE",
"153 215 CURVE SMOOTH",
"168 215 OFFCURVE",
"175 206 OFFCURVE",
"175 188 CURVE SMOOTH"
);
}
);
width = 579;
}
);
note = S;
unicode = 0053;
},
{
glyphname = T;
lastChange = "2015-11-25 18:45:54 +0000";
layers = (
{
layerId = "8BD8650B-A4E1-42AA-8EA8-F95A9955B41A";
name = Regular;
paths = (
{
closed = 1;
nodes = (
"199 620 OFFCURVE",
"176 617 OFFCURVE",
"152 612 CURVE SMOOTH",
"128 607 OFFCURVE",
"112 604 OFFCURVE",
"105 604 CURVE SMOOTH",
"72 604 OFFCURVE",
"45 617 OFFCURVE",
"45 636 CURVE SMOOTH",
"45 647 OFFCURVE",
"53 655 OFFCURVE",
"68 660 CURVE",
"83 664 OFFCURVE",
"122 671 OFFCURVE",
"187 681 CURVE SMOOTH",
"318 701 OFFCURVE",
"444 723 OFFCURVE",
"564 746 CURVE SMOOTH",
"638 760 OFFCURVE",
"686 767 OFFCURVE",
"708 767 CURVE SMOOTH",
"749 767 OFFCURVE",
"803 746 OFFCURVE",
"803 725 CURVE SMOOTH",
"803 715 OFFCURVE",
"794 707 OFFCURVE",
"777 700 CURVE SMOOTH",
"760 693 OFFCURVE",
"737 689 OFFCURVE",
"708 689 CURVE SMOOTH",
"663 689 OFFCURVE",
"616 683 OFFCURVE",
"565 671 CURVE SMOOTH",
"488 653 LINE",
"503 569 LINE",
"510 517 OFFCURVE",
"519 418 OFFCURVE",
"530 271 CURVE SMOOTH",
"540 124 OFFCURVE",
"546 41 OFFCURVE",
"548 24 CURVE SMOOTH",
"550 7 OFFCURVE",
"551 -6 OFFCURVE",
"551 -15 CURVE SMOOTH",
"551 -36 OFFCURVE",
"542 -46 OFFCURVE",
"524 -46 CURVE SMOOTH",
"507 -46 OFFCURVE",
"494 -24 OFFCURVE",
"486 19 CURVE SMOOTH",
"477 62 OFFCURVE",
"469 147 OFFCURVE",
"462 274 CURVE SMOOTH",
"449 490 OFFCURVE",
"431 609 OFFCURVE",
"410 632 CURVE",
"405 637 OFFCURVE",
"396 640 OFFCURVE",
"384 640 CURVE SMOOTH",
"379 640 OFFCURVE",
"356 637 OFFCURVE",
"316 630 CURVE SMOOTH",
"275 623 OFFCURVE",
"244 620 OFFCURVE",
"221 620 CURVE SMOOTH"
);
}
);
width = 803;
}
);
note = T;
unicode = 0054;
},
{
glyphname = U;
layers = (
{
layerId = "8BD8650B-A4E1-42AA-8EA8-F95A9955B41A";
name = Regular;
paths = (
{
closed = 1;
nodes = (
"627 380 OFFCURVE",
"600 259 OFFCURVE",
"560 186 CURVE SMOOTH",
"520 113 OFFCURVE",
"473 56 OFFCURVE",
"425 29 CURVE SMOOTH",
"377 1 OFFCURVE",
"342 -11 OFFCURVE",
"318 -11 CURVE SMOOTH",
"278 -11 OFFCURVE",
"215 14 OFFCURVE",
"186 42 CURVE SMOOTH",
"129 98 OFFCURVE",
"95 483 OFFCURVE",
"95 663 CURVE SMOOTH",
"95 704 OFFCURVE",
"100 728 OFFCURVE",
"111 737 CURVE SMOOTH",
"120 744 OFFCURVE",
"128 748 OFFCURVE",
"133 748 CURVE SMOOTH",
"141 748 OFFCURVE",
"147 740 OFFCURVE",
"151 723 CURVE SMOOTH",
"155 706 OFFCURVE",
"159 675 OFFCURVE",
"162 630 CURVE SMOOTH",
"178 414 OFFCURVE",
"221 121 OFFCURVE",
"242 90 CURVE",
"255 69 OFFCURVE",
"273 59 OFFCURVE",
"297 59 CURVE SMOOTH",
"346 59 OFFCURVE",
"435 111 OFFCURVE",
"481 187 CURVE SMOOTH",
"527 262 OFFCURVE",
"560 404 OFFCURVE",
"560 489 CURVE SMOOTH",
"560 536 OFFCURVE",
"551 587 OFFCURVE",
"534 644 CURVE SMOOTH",
"516 700 OFFCURVE",
"507 731 OFFCURVE",
"507 736 CURVE SMOOTH",
"507 755 OFFCURVE",
"529 762 OFFCURVE",
"541 762 CURVE SMOOTH",
"568 762 OFFCURVE",
"585 718 OFFCURVE",
"599 668 CURVE SMOOTH",
"606 643 OFFCURVE",
"612 627 OFFCURVE",
"618 620 CURVE",
"625 613 OFFCURVE",
"628 580 OFFCURVE",
"628 519 CURVE SMOOTH"
);
}
);
width = 677;
}
);
note = U;
unicode = 0055;
},
{
glyphname = V;
lastChange = "2015-11-24 17:42:25 +0000";
layers = (
{
layerId = "8BD8650B-A4E1-42AA-8EA8-F95A9955B41A";
name = Regular;
paths = (
{
closed = 1;
nodes = (
"60 746 OFFCURVE",
"84 770 OFFCURVE",
"101 770 CURVE SMOOTH",
"112 770 OFFCURVE",
"123 759 OFFCURVE",
"134 738 CURVE SMOOTH",
"145 716 OFFCURVE",
"154 705 OFFCURVE",
"159 705 CURVE SMOOTH",
"166 705 OFFCURVE",
"169 698 OFFCURVE",
"169 685 CURVE SMOOTH",
"169 677 OFFCURVE",
"173 663 OFFCURVE",
"182 642 CURVE SMOOTH",
"199 600 OFFCURVE",
"245 490 OFFCURVE",
"282 382 CURVE SMOOTH",
"340 213 OFFCURVE",
"375 129 OFFCURVE",
"387 129 CURVE SMOOTH",
"398 129 OFFCURVE",
"481 334 OFFCURVE",
"509 430 CURVE SMOOTH",
"529 500 OFFCURVE",
"555 572 OFFCURVE",
"586 646 CURVE SMOOTH",
"617 720 OFFCURVE",
"640 757 OFFCURVE",
"653 757 CURVE SMOOTH",
"661 757 OFFCURVE",
"672 755 OFFCURVE",
"684 743 CURVE SMOOTH",
"690 737 OFFCURVE",
"693 729 OFFCURVE",
"693 720 CURVE SMOOTH",
"693 706 OFFCURVE",
"687 682 OFFCURVE",
"676 649 CURVE SMOOTH",
"664 616 OFFCURVE",
"647 570 OFFCURVE",
"625 513 CURVE SMOOTH",
"603 455 OFFCURVE",
"585 405 OFFCURVE",
"571 362 CURVE SMOOTH",
"554 312 OFFCURVE",
"523 237 OFFCURVE",
"478 138 CURVE SMOOTH",
"453 85 OFFCURVE",
"435 49 OFFCURVE",
"423 32 CURVE SMOOTH",
"410 14 OFFCURVE",
"398 5 OFFCURVE",
"387 5 CURVE SMOOTH",
"365 5 OFFCURVE",
"348 15 OFFCURVE",
"335 36 CURVE SMOOTH",
"322 56 OFFCURVE",
"301 105 OFFCURVE",
"272 183 CURVE SMOOTH",
"167 464 LINE SMOOTH",
"132 555 OFFCURVE",
"114 605 OFFCURVE",
"114 613 CURVE SMOOTH",
"114 618 OFFCURVE",
"105 634 OFFCURVE",
"87 659 CURVE SMOOTH",
"69 684 OFFCURVE",
"60 705 OFFCURVE",
"60 721 CURVE SMOOTH"
);
}
);
width = 742;
}
);
note = V;
unicode = 0056;
},
{
glyphname = W;
layers = (
{
layerId = "8BD8650B-A4E1-42AA-8EA8-F95A9955B41A";
name = Regular;
paths = (
{
closed = 1;
nodes = (
"693 394 OFFCURVE",
"772 794 OFFCURVE",
"784 794 CURVE SMOOTH",
"819 794 OFFCURVE",
"832 783 OFFCURVE",
"832 744 CURVE SMOOTH",
"832 722 OFFCURVE",
"824 671 OFFCURVE",
"808 591 CURVE SMOOTH",
"756 331 LINE SMOOTH",
"747 284 OFFCURVE",
"738 243 OFFCURVE",
"731 210 CURVE SMOOTH",
"723 176 OFFCURVE",
"718 154 OFFCURVE",
"715 144 CURVE SMOOTH",
"709 123 OFFCURVE",
"706 108 OFFCURVE",
"706 85 CURVE SMOOTH",
"706 53 OFFCURVE",
"692 35 OFFCURVE",
"672 35 CURVE SMOOTH",
"643 35 OFFCURVE",
"621 73 OFFCURVE",
"608 103 CURVE SMOOTH",
"601 118 OFFCURVE",
"595 125 OFFCURVE",
"590 125 CURVE SMOOTH",
"583 125 OFFCURVE",
"577 139 OFFCURVE",
"571 167 CURVE SMOOTH",
"558 230 OFFCURVE",
"494 360 OFFCURVE",
"459 392 CURVE SMOOTH",
"429 421 LINE",
"399 346 LINE SMOOTH",
"360 247 OFFCURVE",
"325 147 OFFCURVE",
"294 48 CURVE SMOOTH",
"281 7 OFFCURVE",
"271 -19 OFFCURVE",
"266 -28 CURVE SMOOTH",
"261 -37 OFFCURVE",
"251 -42 OFFCURVE",
"237 -42 CURVE SMOOTH",
"225 -42 OFFCURVE",
"216 -38 OFFCURVE",
"211 -30 CURVE",
"205 -23 OFFCURVE",
"199 -6 OFFCURVE",
"194 19 CURVE SMOOTH",
"177 96 OFFCURVE",
"160 180 OFFCURVE",
"143 271 CURVE SMOOTH",
"126 361 OFFCURVE",
"112 424 OFFCURVE",
"103 460 CURVE SMOOTH",
"94 492 OFFCURVE",
"89 518 OFFCURVE",
"89 539 CURVE SMOOTH",
"89 564 OFFCURVE",
"82 576 OFFCURVE",
"75 582 CURVE",
"71 585 OFFCURVE",
"68 594 OFFCURVE",
"65 611 CURVE SMOOTH",
"62 628 OFFCURVE",
"60 651 OFFCURVE",
"60 682 CURVE SMOOTH",
"60 710 OFFCURVE",
"66 724 OFFCURVE",
"77 724 CURVE SMOOTH",
"94 724 OFFCURVE",
"112 695 OFFCURVE",
"130 638 CURVE SMOOTH",
"148 581 OFFCURVE",
"172 475 OFFCURVE",
"203 322 CURVE SMOOTH",
"226 211 OFFCURVE",
"241 155 OFFCURVE",
"249 155 CURVE SMOOTH",
"254 155 OFFCURVE",
"264 179 OFFCURVE",
"281 226 CURVE SMOOTH",
"298 273 OFFCURVE",
"316 324 OFFCURVE",
"335 379 CURVE SMOOTH",
"354 434 OFFCURVE",
"366 467 OFFCURVE",
"373 480 CURVE SMOOTH",
"384 501 OFFCURVE",
"399 511 OFFCURVE",
"418 511 CURVE SMOOTH",
"479 511 OFFCURVE",
"566 403 OFFCURVE",
"615 258 CURVE SMOOTH",
"629 215 OFFCURVE",
"640 193 OFFCURVE",
"649 193 CURVE SMOOTH",
"664 193 OFFCURVE",
"693 302 OFFCURVE",
"693 354 CURVE SMOOTH"
);
}
);
width = 878;
}
);
note = W;
unicode = 0057;
},
{
glyphname = X;
layers = (
{
layerId = "8BD8650B-A4E1-42AA-8EA8-F95A9955B41A";
name = Regular;
paths = (
{
closed = 1;
nodes = (
"41 748 OFFCURVE",
"50 760 OFFCURVE",
"61 760 CURVE SMOOTH",
"72 760 OFFCURVE",
"91 749 OFFCURVE",
"118 728 CURVE",
"144 706 OFFCURVE",
"185 667 OFFCURVE",
"242 612 CURVE SMOOTH",
"346 511 OFFCURVE",
"399 461 OFFCURVE",
"400 461 CURVE SMOOTH",
"401 461 OFFCURVE",
"416 485 OFFCURVE",
"445 532 CURVE SMOOTH",
"496 615 OFFCURVE",
"594 721 OFFCURVE",
"619 721 CURVE SMOOTH",
"636 721 OFFCURVE",
"645 714 OFFCURVE",
"645 700 CURVE SMOOTH",
"645 678 OFFCURVE",
"624 645 OFFCURVE",
"583 602 CURVE SMOOTH",
"564 582 OFFCURVE",
"539 539 OFFCURVE",
"507 473 CURVE SMOOTH",
"459 374 LINE",
"503 326 LINE SMOOTH",
"522 305 OFFCURVE",
"552 276 OFFCURVE",
"593 239 CURVE SMOOTH",
"633 202 OFFCURVE",
"664 171 OFFCURVE",
"687 146 CURVE SMOOTH",
"709 121 OFFCURVE",
"720 101 OFFCURVE",
"720 86 CURVE SMOOTH",
"720 65 OFFCURVE",
"690 54 OFFCURVE",
"678 54 CURVE SMOOTH",
"667 54 OFFCURVE",
"652 62 OFFCURVE",
"634 78 CURVE SMOOTH",
"616 93 OFFCURVE",
"584 125 OFFCURVE",
"538 172 CURVE SMOOTH",
"418 297 LINE",
"386 246 LINE SMOOTH",
"371 222 OFFCURVE",
"356 195 OFFCURVE",
"340 164 CURVE SMOOTH",
"323 133 OFFCURVE",
"311 110 OFFCURVE",
"302 93 CURVE SMOOTH",
"293 76 OFFCURVE",
"286 67 OFFCURVE",
"283 65 CURVE",
"280 62 OFFCURVE",
"274 51 OFFCURVE",
"265 34 CURVE SMOOTH",
"247 -2 OFFCURVE",
"223 -30 OFFCURVE",
"192 -30 CURVE SMOOTH",
"173 -30 OFFCURVE",
"164 -15 OFFCURVE",
"164 -7 CURVE SMOOTH",
"164 12 OFFCURVE",
"194 75 OFFCURVE",
"254 183 CURVE SMOOTH",
"314 290 OFFCURVE",
"344 350 OFFCURVE",
"344 361 CURVE SMOOTH",
"344 390 OFFCURVE",
"268 477 OFFCURVE",
"193 553 CURVE SMOOTH",
"117 628 OFFCURVE",
"41 712 OFFCURVE",
"41 739 CURVE SMOOTH"
);
}
);
width = 761;
}
);
note = X;
unicode = 0058;
},
{
glyphname = Y;
layers = (
{
layerId = "8BD8650B-A4E1-42AA-8EA8-F95A9955B41A";
name = Regular;
paths = (
{
closed = 1;
nodes = (
"614 765 OFFCURVE",
"621 784 OFFCURVE",
"635 784 CURVE SMOOTH",
"643 784 OFFCURVE",
"688 764 OFFCURVE",
"688 736 CURVE SMOOTH",
"688 652 OFFCURVE",
"578 443 OFFCURVE",
"523 376 CURVE SMOOTH",
"500 348 OFFCURVE",
"489 329 OFFCURVE",
"481 309 CURVE",
"476 298 OFFCURVE",
"467 275 OFFCURVE",
"452 238 CURVE SMOOTH",
"437 201 OFFCURVE",
"421 163 OFFCURVE",
"404 122 CURVE SMOOTH",
"323 -72 LINE SMOOTH",
"314 -93 OFFCURVE",
"302 -104 OFFCURVE",
"287 -104 CURVE SMOOTH",
"270 -104 OFFCURVE",
"251 -85 OFFCURVE",
"251 -65 CURVE SMOOTH",
"251 -38 OFFCURVE",
"288 54 OFFCURVE",
"362 210 CURVE SMOOTH",
"421 336 LINE",
"256 504 LINE SMOOTH",
"180 581 OFFCURVE",
"130 634 OFFCURVE",
"107 661 CURVE SMOOTH",
"83 688 OFFCURVE",
"71 708 OFFCURVE",
"71 721 CURVE SMOOTH",
"71 733 OFFCURVE",
"80 747 OFFCURVE",
"92 747 CURVE SMOOTH",
"103 747 OFFCURVE",
"122 734 OFFCURVE",
"151 709 CURVE SMOOTH",
"180 683 OFFCURVE",
"233 631 OFFCURVE",
"310 553 CURVE SMOOTH",
"393 471 OFFCURVE",
"441 430 OFFCURVE",
"452 430 CURVE SMOOTH",
"467 430 OFFCURVE",
"480 439 OFFCURVE",
"497 467 CURVE SMOOTH",
"505 481 OFFCURVE",
"513 496 OFFCURVE",
"521 511 CURVE SMOOTH",
"536 541 OFFCURVE",
"570 606 OFFCURVE",
"598 657 CURVE SMOOTH",
"609 678 OFFCURVE",
"614 701 OFFCURVE",
"614 726 CURVE SMOOTH"
);
}
);
width = 730;
}
);
note = Y;
unicode = 0059;
},
{
glyphname = Z;
layers = (
{
layerId = "8BD8650B-A4E1-42AA-8EA8-F95A9955B41A";
name = Regular;
paths = (
{
closed = 1;
nodes = (
"41 601 OFFCURVE",
"68 618 OFFCURVE",
"121 638 CURVE SMOOTH",
"228 677 OFFCURVE",
"409 712 OFFCURVE",
"540 712 CURVE SMOOTH",
"635 712 OFFCURVE",
"669 689 OFFCURVE",
"669 634 CURVE SMOOTH",
"669 590 OFFCURVE",
"620 487 OFFCURVE",
"577 444 CURVE SMOOTH",
"476 341 OFFCURVE",
"323 135 OFFCURVE",
"323 102 CURVE SMOOTH",
"323 92 OFFCURVE",
"334 84 OFFCURVE",
"355 78 CURVE",
"376 71 OFFCURVE",
"402 68 OFFCURVE",
"433 68 CURVE SMOOTH",
"471 68 OFFCURVE",
"512 74 OFFCURVE",
"556 86 CURVE SMOOTH",
"600 98 OFFCURVE",
"645 105 OFFCURVE",
"692 107 CURVE SMOOTH",
"726 108 OFFCURVE",
"748 109 OFFCURVE",
"759 112 CURVE",
"770 114 OFFCURVE",
"780 117 OFFCURVE",
"790 122 CURVE",
"810 131 OFFCURVE",
"857 138 OFFCURVE",
"873 138 CURVE SMOOTH",
"892 138 OFFCURVE",
"902 129 OFFCURVE",
"902 110 CURVE SMOOTH",
"902 86 OFFCURVE",
"877 68 OFFCURVE",
"844 68 CURVE SMOOTH",
"829 68 OFFCURVE",
"810 62 OFFCURVE",
"787 51 CURVE SMOOTH",
"764 39 OFFCURVE",
"735 33 OFFCURVE",
"698 33 CURVE SMOOTH",
"662 32 OFFCURVE",
"614 26 OFFCURVE",
"554 15 CURVE SMOOTH",
"494 3 OFFCURVE",
"436 -3 OFFCURVE",
"379 -3 CURVE SMOOTH",
"337 -3 OFFCURVE",
"304 -1 OFFCURVE",
"281 3 CURVE SMOOTH",
"258 7 OFFCURVE",
"242 12 OFFCURVE",
"235 19 CURVE",
"228 25 OFFCURVE",
"224 33 OFFCURVE",
"224 43 CURVE SMOOTH",
"224 49 OFFCURVE",
"228 59 OFFCURVE",
"236 74 CURVE SMOOTH",
"244 88 OFFCURVE",
"248 98 OFFCURVE",
"248 105 CURVE SMOOTH",
"248 120 OFFCURVE",
"338 264 OFFCURVE",
"351 269 CURVE",
"357 272 OFFCURVE",
"360 279 OFFCURVE",
"360 288 CURVE SMOOTH",
"360 295 OFFCURVE",
"376 316 OFFCURVE",
"407 353 CURVE SMOOTH",
"438 389 OFFCURVE",
"471 425 OFFCURVE",
"506 460 CURVE SMOOTH",
"541 495 OFFCURVE",
"595 591 OFFCURVE",
"595 620 CURVE SMOOTH",
"595 629 OFFCURVE",
"589 635 OFFCURVE",
"577 638 CURVE",
"564 640 OFFCURVE",
"534 641 OFFCURVE",
"485 641 CURVE SMOOTH",
"390 641 OFFCURVE",
"350 633 OFFCURVE",
"290 615 CURVE SMOOTH",
"260 606 OFFCURVE",
"229 598 OFFCURVE",
"196 593 CURVE",
"143 583 OFFCURVE",
"115 574 OFFCURVE",
"111 567 CURVE SMOOTH",
"108 562 OFFCURVE",
"101 559 OFFCURVE",
"91 559 CURVE SMOOTH",
"68 559 OFFCURVE",
"41 573 OFFCURVE",
"41 588 CURVE SMOOTH"
);
}
);
width = 932;
}
);
note = Z;
unicode = 005A;
},
{
glyphname = bracketleft;
lastChange = "2016-04-17 04:35:22 +0000";
layers = (
{
layerId = "8BD8650B-A4E1-42AA-8EA8-F95A9955B41A";
name = Regular;
paths = (
{
closed = 1;
nodes = (
"312 -1 OFFCURVE",
"329 0 OFFCURVE",
"342 0 CURVE SMOOTH",
"369 0 OFFCURVE",
"380 -4 OFFCURVE",
"380 -25 CURVE SMOOTH",
"380 -32 OFFCURVE",
"378 -39 OFFCURVE",
"374 -44 CURVE",
"366 -56 OFFCURVE",
"292 -65 OFFCURVE",
"235 -65 CURVE SMOOTH",
"176 -65 OFFCURVE",
"170 -69 OFFCURVE",
"162 26 CURVE SMOOTH",
"157 73 OFFCURVE",
"153 147 OFFCURVE",
"148 246 CURVE SMOOTH",
"143 345 OFFCURVE",
"137 431 OFFCURVE",
"130 503 CURVE SMOOTH",
"125 554 OFFCURVE",
"123 588 OFFCURVE",
"123 603 CURVE SMOOTH",
"123 655 OFFCURVE",
"135 666 OFFCURVE",
"180 679 CURVE SMOOTH",
"232 694 OFFCURVE",
"269 702 OFFCURVE",
"291 702 CURVE SMOOTH",
"306 702 OFFCURVE",
"335 700 OFFCURVE",
"335 677 CURVE SMOOTH",
"335 666 OFFCURVE",
"331 659 OFFCURVE",
"324 655 CURVE SMOOTH",
"317 651 OFFCURVE",
"301 647 OFFCURVE",
"277 644 CURVE SMOOTH",
"245 640 OFFCURVE",
"224 635 OFFCURVE",
"213 628 CURVE SMOOTH",
"202 621 OFFCURVE",
"191 618 OFFCURVE",
"179 618 CURVE SMOOTH",
"168 618 OFFCURVE",
"163 616 OFFCURVE",
"163 613 CURVE SMOOTH",
"163 612 OFFCURVE",
"164 612 OFFCURVE",
"165 611 CURVE",
"176 603 OFFCURVE",
"190 462 OFFCURVE",
"207 189 CURVE SMOOTH",
"213 90 OFFCURVE",
"218 33 OFFCURVE",
"221 20 CURVE",
"237 -12 OFFCURVE",
"252 -6 OFFCURVE",
"292 -2 CURVE"
);
}
);
width = 380;
}
);
note = bracketleft;
unicode = 005B;
},
{
glyphname = backslash;
lastChange = "2015-11-25 18:44:43 +0000";
layers = (
{
layerId = "8BD8650B-A4E1-42AA-8EA8-F95A9955B41A";
name = Regular;
paths = (
{
closed = 1;
nodes = (
"50 666 OFFCURVE",
"57 671 OFFCURVE",
"72 671 CURVE SMOOTH",
"91 671 OFFCURVE",
"112 661 OFFCURVE",
"115 646 CURVE",
"116 637 OFFCURVE",
"132 612 OFFCURVE",
"165 573 CURVE SMOOTH",
"230 494 OFFCURVE",
"339 365 OFFCURVE",
"384 289 CURVE SMOOTH",
"402 258 OFFCURVE",
"415 238 OFFCURVE",
"424 229 CURVE SMOOTH",
"445 208 OFFCURVE",
"518 108 OFFCURVE",
"539 71 CURVE SMOOTH",
"546 58 OFFCURVE",
"554 45 OFFCURVE",
"563 32 CURVE SMOOTH",
"572 19 OFFCURVE",
"578 10 OFFCURVE",
"583 3 CURVE",
"587 -4 OFFCURVE",
"589 -9 OFFCURVE",
"589 -13 CURVE SMOOTH",
"589 -24 OFFCURVE",
"573 -37 OFFCURVE",
"558 -37 CURVE SMOOTH",
"539 -37 OFFCURVE",
"519 -18 OFFCURVE",
"499 19 CURVE SMOOTH",
"484 46 OFFCURVE",
"450 95 OFFCURVE",
"399 166 CURVE SMOOTH",
"347 237 OFFCURVE",
"319 275 OFFCURVE",
"315 281 CURVE SMOOTH",
"270 352 OFFCURVE",
"187 446 OFFCURVE",
"140 501 CURVE SMOOTH",
"117 528 OFFCURVE",
"104 546 OFFCURVE",
"101 554 CURVE",
"98 565 OFFCURVE",
"93 571 OFFCURVE",
"88 571 CURVE SMOOTH",
"77 571 OFFCURVE",
"50 633 OFFCURVE",
"50 656 CURVE SMOOTH"
);
}
);
width = 589;
}
);
note = backslash;
unicode = 005C;
},
{
glyphname = bracketright;
lastChange = "2016-04-17 04:35:15 +0000";
layers = (
{
layerId = "8BD8650B-A4E1-42AA-8EA8-F95A9955B41A";
name = Regular;
paths = (
{
closed = 1;
nodes = (
"9 609 OFFCURVE",
"0 621 OFFCURVE",
"0 626 CURVE SMOOTH",
"0 637 OFFCURVE",
"34 662 OFFCURVE",
"55 667 CURVE",
"72 670 OFFCURVE",
"95 672 OFFCURVE",
"124 672 CURVE SMOOTH",
"161 672 OFFCURVE",
"183 670 OFFCURVE",
"189 666 CURVE SMOOTH",
"201 658 OFFCURVE",
"212 600 OFFCURVE",
"221 492 CURVE SMOOTH",
"230 383 OFFCURVE",
"234 262 OFFCURVE",
"234 127 CURVE SMOOTH",
"234 -9 LINE",
"211 -20 LINE",
"190 -28 OFFCURVE",
"153 -32 OFFCURVE",
"100 -32 CURVE SMOOTH",
"51 -32 OFFCURVE",
"26 -28 OFFCURVE",
"26 -19 CURVE SMOOTH",
"26 -14 OFFCURVE",
"32 -9 OFFCURVE",
"44 -4 CURVE SMOOTH",
"56 1 OFFCURVE",
"80 8 OFFCURVE",
"116 17 CURVE SMOOTH",
"178 32 LINE",
"180 143 LINE SMOOTH",
"180 148 OFFCURVE",
"180 155 OFFCURVE",
"181 166 CURVE",
"181 176 OFFCURVE",
"181 184 OFFCURVE",
"181 190 CURVE SMOOTH",
"181 335 OFFCURVE",
"167 563 OFFCURVE",
"155 599 CURVE SMOOTH",
"148 618 OFFCURVE",
"135 627 OFFCURVE",
"116 627 CURVE SMOOTH",
"104 627 OFFCURVE",
"87 624 OFFCURVE",
"64 618 CURVE SMOOTH",
"41 612 OFFCURVE",
"27 609 OFFCURVE",
"22 609 CURVE SMOOTH"
);
}
);
width = 348;
}
);
note = bracketright;
unicode = 005D;
},
{
glyphname = asciicircum;
layers = (
{
layerId = "8BD8650B-A4E1-42AA-8EA8-F95A9955B41A";
name = Regular;
paths = (
{
closed = 1;
nodes = (
"228 795 OFFCURVE",
"366 649 OFFCURVE",
"366 616 CURVE SMOOTH",
"366 599 OFFCURVE",
"361 591 OFFCURVE",
"352 591 CURVE SMOOTH",
"340 591 OFFCURVE",
"315 612 OFFCURVE",
"277 655 CURVE SMOOTH",
"239 697 OFFCURVE",
"216 718 OFFCURVE",
"207 718 CURVE SMOOTH",
"201 718 OFFCURVE",
"195 714 OFFCURVE",
"188 705 CURVE SMOOTH",
"181 696 OFFCURVE",
"170 679 OFFCURVE",
"156 656 CURVE SMOOTH",
"153 651 OFFCURVE",
"150 647 OFFCURVE",
"149 644 CURVE",
"133 617 OFFCURVE",
"121 599 OFFCURVE",
"114 591 CURVE SMOOTH",
"107 583 OFFCURVE",
"98 579 OFFCURVE",
"89 579 CURVE SMOOTH",
"76 579 OFFCURVE",
"70 582 OFFCURVE",
"70 587 CURVE SMOOTH",
"70 596 OFFCURVE",
"84 632 OFFCURVE",
"91 640 CURVE SMOOTH",
"96 646 OFFCURVE",
"108 663 OFFCURVE",
"125 690 CURVE SMOOTH",
"142 717 OFFCURVE",
"158 742 OFFCURVE",
"173 763 CURVE SMOOTH",
"188 784 OFFCURVE",
"198 795 OFFCURVE",
"205 795 CURVE SMOOTH"
);
}
);
width = 447;
}
);
note = asciicircum;
unicode = 005E;
},
{
glyphname = underscore;
layers = (
{
layerId = "8BD8650B-A4E1-42AA-8EA8-F95A9955B41A";
name = Regular;
paths = (
{
closed = 1;
nodes = (
"469 54 OFFCURVE",
"486 54 OFFCURVE",
"499 54 CURVE",
"511 53 OFFCURVE",
"520 52 OFFCURVE",
"526 51 CURVE",
"538 47 OFFCURVE",
"539 45 OFFCURVE",
"539 37 CURVE SMOOTH",
"539 27 OFFCURVE",
"537 21 OFFCURVE",
"532 19 CURVE SMOOTH",
"527 17 OFFCURVE",
"509 15 OFFCURVE",
"478 13 CURVE SMOOTH",
"414 9 OFFCURVE",
"350 3 OFFCURVE",
"287 -4 CURVE SMOOTH",
"188 -16 OFFCURVE",
"123 -22 OFFCURVE",
"93 -22 CURVE SMOOTH",
"72 -22 OFFCURVE",
"58 -19 OFFCURVE",
"53 -14 CURVE SMOOTH",
"46 -7 OFFCURVE",
"43 -2 OFFCURVE",
"43 3 CURVE SMOOTH",
"43 10 OFFCURVE",
"51 13 OFFCURVE",
"68 14 CURVE",
"95 14 OFFCURVE",
"394 44 OFFCURVE",
"401 51 CURVE",
"402 53 OFFCURVE",
"417 54 OFFCURVE",
"446 54 CURVE SMOOTH"
);
}
);
width = 598;
}
);
note = underscore;
unicode = 005F;
},
{
glyphname = grave;
lastChange = "2015-11-24 17:41:00 +0000";
layers = (
{
layerId = "8BD8650B-A4E1-42AA-8EA8-F95A9955B41A";
name = Regular;
paths = (
{
closed = 1;
nodes = (
"112 682 OFFCURVE",
"129 697 OFFCURVE",
"137 697 CURVE SMOOTH",
"146 697 OFFCURVE",
"259 588 OFFCURVE",
"259 565 CURVE SMOOTH",
"259 552 OFFCURVE",
"254 545 OFFCURVE",
"245 545 CURVE SMOOTH",
"220 545 OFFCURVE",
"112 657 OFFCURVE",
"112 673 CURVE SMOOTH"
);
}
);
width = 420;
}
);
note = grave;
unicode = 0060;
},
{
glyphname = a;
layers = (
{
layerId = "8BD8650B-A4E1-42AA-8EA8-F95A9955B41A";
name = Regular;
paths = (
{
closed = 1;
nodes = (
"301 498 OFFCURVE",
"226 467 OFFCURVE",
"173 441 CURVE SMOOTH",
"146 428 OFFCURVE",
"127 421 OFFCURVE",
"115 421 CURVE SMOOTH",
"107 421 OFFCURVE",
"103 424 OFFCURVE",
"103 431 CURVE SMOOTH",
"103 450 OFFCURVE",
"110 462 OFFCURVE",
"131 474 CURVE SMOOTH",
"152 486 OFFCURVE",
"165 491 OFFCURVE",
"208 507 CURVE SMOOTH",
"229 514 OFFCURVE",
"248 521 OFFCURVE",
"263 528 CURVE",
"299 542 OFFCURVE",
"329 549 OFFCURVE",
"354 549 CURVE SMOOTH",
"398 549 OFFCURVE",
"432 525 OFFCURVE",
"457 477 CURVE SMOOTH",
"469 454 OFFCURVE",
"476 432 OFFCURVE",
"478 413 CURVE SMOOTH",
"480 393 OFFCURVE",
"482 338 OFFCURVE",
"483 247 CURVE SMOOTH",
"484 196 OFFCURVE",
"485 154 OFFCURVE",
"486 120 CURVE SMOOTH",
"487 85 OFFCURVE",
"489 63 OFFCURVE",
"490 54 CURVE",
"492 41 LINE",
"492 22 OFFCURVE",
"469 -5 OFFCURVE",
"461 -5 CURVE SMOOTH",
"448 -5 OFFCURVE",
"437 16 OFFCURVE",
"430 59 CURVE SMOOTH",
"423 101 OFFCURVE",
"419 122 OFFCURVE",
"418 122 CURVE SMOOTH",
"416 122 OFFCURVE",
"413 118 OFFCURVE",
"409 111 CURVE SMOOTH",
"382 67 OFFCURVE",
"282 -1 OFFCURVE",
"227 -1 CURVE SMOOTH",
"194 -1 OFFCURVE",
"140 14 OFFCURVE",
"120 29 CURVE SMOOTH",
"105 41 OFFCURVE",
"94 83 OFFCURVE",
"94 120 CURVE SMOOTH",
"94 176 OFFCURVE",
"120 212 OFFCURVE",
"197 255 CURVE SMOOTH",
"239 280 OFFCURVE",
"280 292 OFFCURVE",
"319 292 CURVE SMOOTH",
"351 292 OFFCURVE",
"372 279 OFFCURVE",
"383 268 CURVE",
"388 262 OFFCURVE",
"393 259 OFFCURVE",
"396 259 CURVE SMOOTH",
"399 259 OFFCURVE",
"406 256 OFFCURVE",
"416 249 CURVE",
"425 242 OFFCURVE",
"430 238 OFFCURVE",
"431 238 CURVE SMOOTH",
"434 238 OFFCURVE",
"435 245 OFFCURVE",
"435 260 CURVE SMOOTH",
"435 349 OFFCURVE",
"429 411 OFFCURVE",
"417 446 CURVE SMOOTH",
"404 481 OFFCURVE",
"386 498 OFFCURVE",
"362 498 CURVE SMOOTH"
);
},
{
closed = 1;
nodes = (
"407 193 OFFCURVE",
"405 201 OFFCURVE",
"395 211 CURVE SMOOTH",
"385 221 OFFCURVE",
"371 230 OFFCURVE",
"344 236 CURVE SMOOTH",
"331 239 OFFCURVE",
"316 240 OFFCURVE",
"299 240 CURVE SMOOTH",
"242 240 OFFCURVE",
"196 218 OFFCURVE",
"175 187 CURVE SMOOTH",
"154 156 OFFCURVE",
"144 130 OFFCURVE",
"144 110 CURVE SMOOTH",
"144 77 OFFCURVE",
"147 70 OFFCURVE",
"171 57 CURVE",
"186 50 OFFCURVE",
"199 46 OFFCURVE",
"211 46 CURVE SMOOTH",
"256 46 OFFCURVE",
"346 91 OFFCURVE",
"346 106 CURVE SMOOTH",
"346 111 OFFCURVE",
"356 124 OFFCURVE",
"377 145 CURVE SMOOTH",
"397 165 OFFCURVE",
"407 179 OFFCURVE",
"407 188 CURVE SMOOTH"
);
}
);
width = 556;
}
);
note = a;
unicode = 0061;
},
{
glyphname = b;
layers = (
{
layerId = "8BD8650B-A4E1-42AA-8EA8-F95A9955B41A";
name = Regular;
paths = (
{
closed = 1;
nodes = (
"493 542 OFFCURVE",
"518 531 OFFCURVE",
"546 508 CURVE SMOOTH",
"574 484 OFFCURVE",
"595 435 OFFCURVE",
"595 372 CURVE SMOOTH",
"595 279 OFFCURVE",
"551 170 OFFCURVE",
"476 95 CURVE SMOOTH",
"420 39 OFFCURVE",
"308 -23 OFFCURVE",
"264 -23 CURVE SMOOTH",
"220 -23 OFFCURVE",
"151 16 OFFCURVE",
"144 43 CURVE SMOOTH",
"142 50 OFFCURVE",
"138 118 OFFCURVE",
"133 246 CURVE SMOOTH",
"128 373 OFFCURVE",
"121 464 OFFCURVE",
"112 517 CURVE SMOOTH",
"94 630 OFFCURVE",
"85 721 OFFCURVE",
"85 789 CURVE SMOOTH",
"85 814 OFFCURVE",
"90 831 OFFCURVE",
"99 840 CURVE SMOOTH",
"109 850 OFFCURVE",
"117 855 OFFCURVE",
"123 855 CURVE SMOOTH",
"133 855 OFFCURVE",
"140 843 OFFCURVE",
"144 818 CURVE",
"147 793 OFFCURVE",
"151 753 OFFCURVE",
"155 696 CURVE SMOOTH",
"159 639 OFFCURVE",
"164 590 OFFCURVE",
"171 547 CURVE SMOOTH",
"180 491 OFFCURVE",
"186 445 OFFCURVE",
"189 409 CURVE SMOOTH",
"194 354 LINE",
"272 431 LINE SMOOTH",
"324 483 OFFCURVE",
"368 515 OFFCURVE",
"403 526 CURVE SMOOTH",
"437 537 OFFCURVE",
"461 542 OFFCURVE",
"474 542 CURVE SMOOTH"
);
},
{
closed = 1;
nodes = (
"537 441 OFFCURVE",
"515 478 OFFCURVE",
"471 478 CURVE SMOOTH",
"447 478 OFFCURVE",
"417 483 OFFCURVE",
"352 425 CURVE SMOOTH",
"287 367 OFFCURVE",
"243 317 OFFCURVE",
"224 246 CURVE SMOOTH",
"214 211 OFFCURVE",
"209 176 OFFCURVE",
"209 142 CURVE SMOOTH",
"209 104 OFFCURVE",
"215 76 OFFCURVE",
"226 59 CURVE SMOOTH",
"237 41 OFFCURVE",
"250 32 OFFCURVE",
"264 32 CURVE SMOOTH",
"271 32 OFFCURVE",
"288 36 OFFCURVE",
"314 44 CURVE SMOOTH",
"373 63 OFFCURVE",
"443 124 OFFCURVE",
"491 197 CURVE SMOOTH",
"522 244 OFFCURVE",
"537 301 OFFCURVE",
"537 367 CURVE SMOOTH"
);
}
);
width = 655;
}
);
note = b;
unicode = 0062;
},
{
glyphname = c;
layers = (
{
layerId = "8BD8650B-A4E1-42AA-8EA8-F95A9955B41A";
name = Regular;
paths = (
{
closed = 1;
nodes = (
"505 379 OFFCURVE",
"493 363 OFFCURVE",
"480 363 CURVE SMOOTH",
"467 363 OFFCURVE",
"459 373 OFFCURVE",
"456 392 CURVE",
"455 407 OFFCURVE",
"444 427 OFFCURVE",
"423 450 CURVE SMOOTH",
"406 469 OFFCURVE",
"404 474 OFFCURVE",
"365 483 CURVE SMOOTH",
"345 488 OFFCURVE",
"319 490 OFFCURVE",
"287 490 CURVE SMOOTH",
"235 490 OFFCURVE",
"217 476 OFFCURVE",
"177 419 CURVE SMOOTH",
"129 351 OFFCURVE",
"105 290 OFFCURVE",
"105 235 CURVE SMOOTH",
"105 179 OFFCURVE",
"120 139 OFFCURVE",
"132 127 CURVE",
"143 114 OFFCURVE",
"184 72 OFFCURVE",
"205 62 CURVE SMOOTH",
"215 57 OFFCURVE",
"229 54 OFFCURVE",
"248 54 CURVE SMOOTH",
"306 54 OFFCURVE",
"369 93 OFFCURVE",
"438 172 CURVE SMOOTH",
"474 212 OFFCURVE",
"500 232 OFFCURVE",
"516 232 CURVE SMOOTH",
"525 232 OFFCURVE",
"529 226 OFFCURVE",
"529 213 CURVE SMOOTH",
"529 189 OFFCURVE",
"445 85 OFFCURVE",
"400 53 CURVE SMOOTH",
"347 15 OFFCURVE",
"300 -4 OFFCURVE",
"259 -4 CURVE SMOOTH",
"199 -4 OFFCURVE",
"113 35 OFFCURVE",
"81 96 CURVE SMOOTH",
"64 127 OFFCURVE",
"54 171 OFFCURVE",
"51 230 CURVE",
"49 253 OFFCURVE",
"48 271 OFFCURVE",
"48 284 CURVE SMOOTH",
"48 336 OFFCURVE",
"85 410 OFFCURVE",
"157 477 CURVE SMOOTH",
"228 544 OFFCURVE",
"267 545 OFFCURVE",
"314 545 CURVE SMOOTH",
"415 545 OFFCURVE",
"505 463 OFFCURVE",
"505 402 CURVE SMOOTH"
);
}
);
width = 569;
}
);
note = c;
unicode = 0063;
},
{
glyphname = d;
layers = (
{
layerId = "8BD8650B-A4E1-42AA-8EA8-F95A9955B41A";
name = Regular;
paths = (
{
closed = 1;
nodes = (
"641 -39 OFFCURVE",
"626 -56 OFFCURVE",
"618 -59 CURVE SMOOTH",
"613 -61 OFFCURVE",
"609 -62 OFFCURVE",
"606 -62 CURVE SMOOTH",
"589 -62 OFFCURVE",
"577 -52 OFFCURVE",
"570 -23 CURVE SMOOTH",
"563 5 OFFCURVE",
"563 10 OFFCURVE",
"559 50 CURVE SMOOTH",
"554 117 OFFCURVE",
"549 151 OFFCURVE",
"543 151 CURVE SMOOTH",
"536 151 OFFCURVE",
"524 141 OFFCURVE",
"508 122 CURVE SMOOTH",
"433 34 OFFCURVE",
"355 -10 OFFCURVE",
"272 -10 CURVE SMOOTH",
"247 -10 OFFCURVE",
"223 -5 OFFCURVE",
"198 4 CURVE SMOOTH",
"113 36 OFFCURVE",
"70 101 OFFCURVE",
"70 200 CURVE SMOOTH",
"70 285 OFFCURVE",
"102 368 OFFCURVE",
"147 421 CURVE SMOOTH",
"191 474 OFFCURVE",
"238 511 OFFCURVE",
"279 526 CURVE SMOOTH",
"305 536 OFFCURVE",
"323 541 OFFCURVE",
"333 541 CURVE SMOOTH",
"368 541 OFFCURVE",
"474 484 OFFCURVE",
"506 441 CURVE SMOOTH",
"524 417 OFFCURVE",
"538 405 OFFCURVE",
"547 405 CURVE SMOOTH",
"548 405 OFFCURVE",
"548 405 OFFCURVE",
"548 406 CURVE",
"548 406 OFFCURVE",
"548 406 OFFCURVE",
"549 406 CURVE",
"556 411 OFFCURVE",
"560 498 OFFCURVE",
"560 667 CURVE SMOOTH",
"560 834 OFFCURVE",
"564 929 OFFCURVE",
"572 952 CURVE",
"581 973 OFFCURVE",
"594 983 OFFCURVE",
"611 983 CURVE SMOOTH",
"638 983 LINE",
"630 572 LINE SMOOTH",
"628 470 OFFCURVE",
"627 379 OFFCURVE",
"627 299 CURVE SMOOTH",
"627 190 OFFCURVE",
"629 113 OFFCURVE",
"634 66 CURVE SMOOTH",
"639 19 OFFCURVE",
"641 -6 OFFCURVE",
"641 -10 CURVE SMOOTH"
);
},
{
closed = 1;
nodes = (
"368 459 OFFCURVE",
"340 472 OFFCURVE",
"325 472 CURVE SMOOTH",
"298 472 OFFCURVE",
"169 347 OFFCURVE",
"152 304 CURVE",
"145 288 OFFCURVE",
"142 259 OFFCURVE",
"142 217 CURVE SMOOTH",
"142 114 OFFCURVE",
"152 106 OFFCURVE",
"204 78 CURVE SMOOTH",
"229 64 OFFCURVE",
"255 57 OFFCURVE",
"280 57 CURVE SMOOTH",
"371 57 OFFCURVE",
"534 228 OFFCURVE",
"534 260 CURVE SMOOTH",
"534 304 OFFCURVE",
"466 393 OFFCURVE",
"407 433 CURVE SMOOTH"
);
}
);
width = 715;
}
);
note = d;
unicode = 0064;
},
{
glyphname = e;
layers = (
{
layerId = "8BD8650B-A4E1-42AA-8EA8-F95A9955B41A";
name = Regular;
paths = (
{
closed = 1;
nodes = (
"571 215 OFFCURVE",
"573 212 OFFCURVE",
"573 207 CURVE SMOOTH",
"573 183 OFFCURVE",
"530 118 OFFCURVE",
"490 83 CURVE SMOOTH",
"420 21 OFFCURVE",
"350 -10 OFFCURVE",
"280 -10 CURVE SMOOTH",
"227 -10 OFFCURVE",
"172 16 OFFCURVE",
"127 61 CURVE SMOOTH",
"82 106 OFFCURVE",
"51 186 OFFCURVE",
"51 279 CURVE SMOOTH",
"51 308 OFFCURVE",
"54 332 OFFCURVE",
"61 352 CURVE SMOOTH",
"88 433 OFFCURVE",
"193 549 OFFCURVE",
"270 549 CURVE SMOOTH",
"291 549 OFFCURVE",
"360 544 OFFCURVE",
"386 536 CURVE SMOOTH",
"412 528 OFFCURVE",
"454 500 OFFCURVE",
"486 450 CURVE SMOOTH",
"501 425 OFFCURVE",
"509 404 OFFCURVE",
"509 387 CURVE SMOOTH",
"509 366 OFFCURVE",
"501 350 OFFCURVE",
"484 339 CURVE SMOOTH",
"467 328 OFFCURVE",
"435 317 OFFCURVE",
"387 306 CURVE SMOOTH",
"325 292 OFFCURVE",
"264 283 OFFCURVE",
"203 280 CURVE SMOOTH",
"110 275 LINE",
"110 235 LINE SMOOTH",
"110 136 OFFCURVE",
"212 45 OFFCURVE",
"287 45 CURVE SMOOTH",
"344 45 OFFCURVE",
"416 87 OFFCURVE",
"461 130 CURVE SMOOTH",
"484 151 OFFCURVE",
"505 171 OFFCURVE",
"526 189 CURVE SMOOTH",
"547 206 OFFCURVE",
"561 215 OFFCURVE",
"568 215 CURVE SMOOTH"
);
},
{
closed = 1;
nodes = (
"366 496 OFFCURVE",
"353 502 OFFCURVE",
"320 502 CURVE SMOOTH",
"253 502 OFFCURVE",
"229 493 OFFCURVE",
"196 454 CURVE SMOOTH",
"145 396 OFFCURVE",
"120 357 OFFCURVE",
"120 338 CURVE SMOOTH",
"120 329 OFFCURVE",
"128 325 OFFCURVE",
"144 325 CURVE SMOOTH",
"205 325 OFFCURVE",
"291 338 OFFCURVE",
"402 363 CURVE SMOOTH",
"435 371 OFFCURVE",
"452 385 OFFCURVE",
"452 405 CURVE SMOOTH",
"452 414 OFFCURVE",
"437 432 OFFCURVE",
"407 459 CURVE SMOOTH"
);
}
);
width = 617;
}
);
note = e;
unicode = 0065;
},
{
glyphname = f;
layers = (
{
layerId = "8BD8650B-A4E1-42AA-8EA8-F95A9955B41A";
name = Regular;
paths = (
{
closed = 1;
nodes = (
"215 450 OFFCURVE",
"198 447 OFFCURVE",
"173 440 CURVE SMOOTH",
"147 433 OFFCURVE",
"126 429 OFFCURVE",
"111 429 CURVE SMOOTH",
"82 429 OFFCURVE",
"67 438 OFFCURVE",
"67 457 CURVE SMOOTH",
"67 464 OFFCURVE",
"73 471 OFFCURVE",
"84 477 CURVE SMOOTH",
"95 483 OFFCURVE",
"116 491 OFFCURVE",
"148 500 CURVE SMOOTH",
"229 524 LINE",
"231 611 LINE SMOOTH",
"232 673 OFFCURVE",
"237 741 OFFCURVE",
"245 816 CURVE SMOOTH",
"251 871 OFFCURVE",
"256 906 OFFCURVE",
"261 921 CURVE SMOOTH",
"270 950 OFFCURVE",
"308 985 OFFCURVE",
"325 993 CURVE SMOOTH",
"333 997 OFFCURVE",
"345 999 OFFCURVE",
"360 999 CURVE SMOOTH",
"383 999 OFFCURVE",
"468 993 OFFCURVE",
"492 983 CURVE SMOOTH",
"516 973 OFFCURVE",
"567 927 OFFCURVE",
"567 890 CURVE SMOOTH",
"567 863 OFFCURVE",
"539 827 OFFCURVE",
"528 827 CURVE SMOOTH",
"520 827 OFFCURVE",
"516 838 OFFCURVE",
"516 861 CURVE SMOOTH",
"516 904 OFFCURVE",
"498 923 OFFCURVE",
"431 944 CURVE SMOOTH",
"409 951 OFFCURVE",
"392 954 OFFCURVE",
"380 954 CURVE SMOOTH",
"323 954 OFFCURVE",
"307 916 OFFCURVE",
"297 790 CURVE SMOOTH",
"292 727 OFFCURVE",
"289 669 OFFCURVE",
"289 616 CURVE SMOOTH",
"289 578 OFFCURVE",
"291 554 OFFCURVE",
"294 545 CURVE SMOOTH",
"297 535 OFFCURVE",
"305 530 OFFCURVE",
"318 530 CURVE SMOOTH",
"326 530 OFFCURVE",
"343 532 OFFCURVE",
"368 537 CURVE SMOOTH",
"393 542 OFFCURVE",
"414 544 OFFCURVE",
"431 544 CURVE SMOOTH",
"450 544 OFFCURVE",
"463 537 OFFCURVE",
"463 529 CURVE SMOOTH",
"463 518 OFFCURVE",
"434 503 OFFCURVE",
"377 486 CURVE SMOOTH",
"291 461 LINE",
"288 302 LINE SMOOTH",
"288 294 OFFCURVE",
"288 283 OFFCURVE",
"288 270 CURVE",
"287 256 OFFCURVE",
"287 246 OFFCURVE",
"287 241 CURVE SMOOTH",
"287 191 OFFCURVE",
"289 152 OFFCURVE",
"294 125 CURVE SMOOTH",
"299 98 OFFCURVE",
"303 78 OFFCURVE",
"308 66 CURVE SMOOTH",
"313 54 OFFCURVE",
"315 41 OFFCURVE",
"315 27 CURVE SMOOTH",
"315 7 OFFCURVE",
"306 -3 OFFCURVE",
"287 -3 CURVE SMOOTH",
"252 -3 OFFCURVE",
"234 90 OFFCURVE",
"234 276 CURVE SMOOTH",
"234 387 OFFCURVE",
"232 445 OFFCURVE",
"228 449 CURVE SMOOTH",
"227 450 OFFCURVE",
"226 450 OFFCURVE",
"223 450 CURVE SMOOTH"
);
}
);
width = 624;
}
);
note = f;
unicode = 0066;
},
{
glyphname = g;
layers = (
{
layerId = "8BD8650B-A4E1-42AA-8EA8-F95A9955B41A";
name = Regular;
paths = (
{
closed = 1;
nodes = (
"545 -189 OFFCURVE",
"561 -175 OFFCURVE",
"561 -146 CURVE SMOOTH",
"561 -49 OFFCURVE",
"553 25 OFFCURVE",
"543 76 CURVE SMOOTH",
"538 101 OFFCURVE",
"535 120 OFFCURVE",
"534 131 CURVE SMOOTH",
"529 199 OFFCURVE",
"525 233 OFFCURVE",
"520 233 CURVE SMOOTH",
"517 233 OFFCURVE",
"512 227 OFFCURVE",
"505 215 CURVE",
"472 166 OFFCURVE",
"380 91 OFFCURVE",
"331 72 CURVE SMOOTH",
"303 61 OFFCURVE",
"271 55 OFFCURVE",
"236 55 CURVE SMOOTH",
"193 55 OFFCURVE",
"177 62 OFFCURVE",
"137 97 CURVE SMOOTH",
"98 132 OFFCURVE",
"86 151 OFFCURVE",
"77 200 CURVE SMOOTH",
"72 225 OFFCURVE",
"70 246 OFFCURVE",
"70 263 CURVE SMOOTH",
"70 276 OFFCURVE",
"71 285 OFFCURVE",
"73 291 CURVE",
"82 327 OFFCURVE",
"132 421 OFFCURVE",
"165 464 CURVE SMOOTH",
"193 501 OFFCURVE",
"286 562 OFFCURVE",
"345 581 CURVE SMOOTH",
"376 591 OFFCURVE",
"411 596 OFFCURVE",
"450 596 CURVE SMOOTH",
"549 596 OFFCURVE",
"622 563 OFFCURVE",
"622 492 CURVE SMOOTH",
"622 472 OFFCURVE",
"617 447 OFFCURVE",
"608 418 CURVE SMOOTH",
"598 389 OFFCURVE",
"593 363 OFFCURVE",
"593 341 CURVE SMOOTH",
"593 330 OFFCURVE",
"601 219 OFFCURVE",
"616 10 CURVE SMOOTH",
"631 -197 LINE",
"596 -225 LINE SMOOTH",
"577 -240 OFFCURVE",
"558 -248 OFFCURVE",
"539 -248 CURVE SMOOTH",
"468 -248 OFFCURVE",
"352 -206 OFFCURVE",
"279 -160 CURVE SMOOTH",
"242 -137 OFFCURVE",
"224 -119 OFFCURVE",
"224 -104 CURVE SMOOTH",
"224 -69 OFFCURVE",
"273 -2 OFFCURVE",
"298 -2 CURVE SMOOTH",
"313 -2 OFFCURVE",
"320 -7 OFFCURVE",
"320 -17 CURVE SMOOTH",
"320 -23 OFFCURVE",
"317 -32 OFFCURVE",
"311 -44 CURVE SMOOTH",
"305 -56 OFFCURVE",
"302 -68 OFFCURVE",
"302 -79 CURVE SMOOTH",
"302 -116 OFFCURVE",
"367 -149 OFFCURVE",
"402 -149 CURVE SMOOTH",
"412 -149 OFFCURVE",
"429 -156 OFFCURVE",
"452 -169 CURVE SMOOTH",
"475 -182 OFFCURVE",
"495 -189 OFFCURVE",
"512 -189 CURVE SMOOTH"
);
},
{
closed = 1;
nodes = (
"132 188 OFFCURVE",
"177 111 OFFCURVE",
"237 111 CURVE SMOOTH",
"318 111 OFFCURVE",
"424 194 OFFCURVE",
"483 305 CURVE SMOOTH",
"515 368 OFFCURVE",
"542 461 OFFCURVE",
"542 508 CURVE SMOOTH",
"542 521 OFFCURVE",
"540 529 OFFCURVE",
"535 532 CURVE",
"520 540 OFFCURVE",
"496 544 OFFCURVE",
"462 544 CURVE SMOOTH",
"431 544 OFFCURVE",
"405 541 OFFCURVE",
"383 534 CURVE SMOOTH",
"267 501 OFFCURVE",
"132 345 OFFCURVE",
"132 265 CURVE SMOOTH"
);
}
);
width = 704;
}
);
note = g;
unicode = 0067;
},
{
glyphname = h;
layers = (
{
layerId = "8BD8650B-A4E1-42AA-8EA8-F95A9955B41A";
name = Regular;
paths = (
{
closed = 1;
nodes = (
"95 139 OFFCURVE",
"89 247 OFFCURVE",
"76 409 CURVE SMOOTH",
"63 570 OFFCURVE",
"56 682 OFFCURVE",
"56 743 CURVE SMOOTH",
"56 778 OFFCURVE",
"58 800 OFFCURVE",
"62 807 CURVE SMOOTH",
"70 821 OFFCURVE",
"78 828 OFFCURVE",
"85 828 CURVE SMOOTH",
"97 828 OFFCURVE",
"105 816 OFFCURVE",
"109 793 CURVE",
"112 770 OFFCURVE",
"117 711 OFFCURVE",
"124 616 CURVE SMOOTH",
"129 540 OFFCURVE",
"134 476 OFFCURVE",
"138 425 CURVE SMOOTH",
"147 307 LINE",
"165 346 LINE SMOOTH",
"192 406 OFFCURVE",
"332 537 OFFCURVE",
"368 537 CURVE SMOOTH",
"401 537 OFFCURVE",
"450 492 OFFCURVE",
"462 449 CURVE SMOOTH",
"467 431 OFFCURVE",
"470 350 OFFCURVE",
"470 206 CURVE SMOOTH",
"470 102 OFFCURVE",
"469 41 OFFCURVE",
"467 22 CURVE SMOOTH",
"465 3 OFFCURVE",
"459 -7 OFFCURVE",
"448 -7 CURVE SMOOTH",
"437 -7 OFFCURVE",
"431 3 OFFCURVE",
"428 22 CURVE SMOOTH",
"425 41 OFFCURVE",
"422 97 OFFCURVE",
"419 189 CURVE SMOOTH",
"415 318 OFFCURVE",
"407 400 OFFCURVE",
"395 436 CURVE SMOOTH",
"379 486 LINE",
"321 432 LINE SMOOTH",
"260 373 OFFCURVE",
"203 290 OFFCURVE",
"184 233 CURVE",
"178 212 OFFCURVE",
"173 179 OFFCURVE",
"169 134 CURVE SMOOTH",
"165 89 OFFCURVE",
"160 51 OFFCURVE",
"155 22 CURVE SMOOTH",
"149 -7 OFFCURVE",
"141 -22 OFFCURVE",
"130 -22 CURVE SMOOTH",
"125 -22 OFFCURVE",
"120 -19 OFFCURVE",
"113 -14 CURVE",
"101 -4 OFFCURVE",
"95 29 OFFCURVE",
"95 86 CURVE SMOOTH"
);
}
);
width = 538;
}
);
note = h;
unicode = 0068;
},
{
glyphname = i;
layers = (
{
layerId = "8BD8650B-A4E1-42AA-8EA8-F95A9955B41A";
name = Regular;
paths = (
{
closed = 1;
nodes = (
"123 578 OFFCURVE",
"131 582 OFFCURVE",
"138 582 CURVE SMOOTH",
"152 582 OFFCURVE",
"162 560 OFFCURVE",
"169 516 CURVE SMOOTH",
"181 427 OFFCURVE",
"190 196 OFFCURVE",
"190 101 CURVE SMOOTH",
"190 54 OFFCURVE",
"188 28 OFFCURVE",
"184 23 CURVE SMOOTH",
"176 13 OFFCURVE",
"166 8 OFFCURVE",
"154 8 CURVE SMOOTH",
"137 8 OFFCURVE",
"127 15 OFFCURVE",
"123 29 CURVE",
"116 46 OFFCURVE",
"98 396 OFFCURVE",
"98 495 CURVE SMOOTH",
"98 536 OFFCURVE",
"103 561 OFFCURVE",
"114 570 CURVE"
);
},
{
closed = 1;
nodes = (
"108 824 OFFCURVE",
"128 847 OFFCURVE",
"140 847 CURVE SMOOTH",
"153 847 OFFCURVE",
"185 827 OFFCURVE",
"185 799 CURVE SMOOTH",
"185 779 OFFCURVE",
"173 763 OFFCURVE",
"154 763 CURVE SMOOTH",
"133 763 OFFCURVE",
"108 781 OFFCURVE",
"108 805 CURVE SMOOTH"
);
}
);
width = 277;
}
);
note = i;
unicode = 0069;
},
{
glyphname = j;
layers = (
{
layerId = "8BD8650B-A4E1-42AA-8EA8-F95A9955B41A";
name = Regular;
paths = (
{
closed = 1;
nodes = (
"266 370 OFFCURVE",
"253 464 OFFCURVE",
"253 540 CURVE SMOOTH",
"253 561 OFFCURVE",
"257 564 OFFCURVE",
"272 564 CURVE SMOOTH",
"274 564 LINE SMOOTH",
"285 564 OFFCURVE",
"293 559 OFFCURVE",
"297 550 CURVE",
"300 540 OFFCURVE",
"307 507 OFFCURVE",
"318 452 CURVE SMOOTH",
"348 297 OFFCURVE",
"363 169 OFFCURVE",
"363 69 CURVE SMOOTH",
"363 37 OFFCURVE",
"359 -65 OFFCURVE",
"354 -115 CURVE SMOOTH",
"349 -165 OFFCURVE",
"340 -207 OFFCURVE",
"317 -222 CURVE SMOOTH",
"293 -237 OFFCURVE",
"267 -243 OFFCURVE",
"212 -243 CURVE SMOOTH",
"179 -243 OFFCURVE",
"152 -240 OFFCURVE",
"131 -233 CURVE SMOOTH",
"110 -226 OFFCURVE",
"99 -218 OFFCURVE",
"99 -208 CURVE SMOOTH",
"99 -201 OFFCURVE",
"94 -195 OFFCURVE",
"84 -191 CURVE",
"74 -188 OFFCURVE",
"69 -168 OFFCURVE",
"69 -130 CURVE SMOOTH",
"69 -103 OFFCURVE",
"72 -82 OFFCURVE",
"79 -65 CURVE SMOOTH",
"86 -49 OFFCURVE",
"93 -41 OFFCURVE",
"101 -41 CURVE SMOOTH",
"116 -41 OFFCURVE",
"124 -62 OFFCURVE",
"125 -105 CURVE SMOOTH",
"125 -165 OFFCURVE",
"127 -167 OFFCURVE",
"173 -175 CURVE SMOOTH",
"196 -179 OFFCURVE",
"218 -181 OFFCURVE",
"240 -181 CURVE SMOOTH",
"260 -181 OFFCURVE",
"273 -179 OFFCURVE",
"278 -175 CURVE",
"296 -162 OFFCURVE",
"305 -90 OFFCURVE",
"305 43 CURVE SMOOTH",
"305 155 OFFCURVE",
"301 227 OFFCURVE",
"293 259 CURVE SMOOTH"
);
},
{
closed = 1;
nodes = (
"222 770 OFFCURVE",
"218 779 OFFCURVE",
"218 789 CURVE SMOOTH",
"218 809 OFFCURVE",
"240 826 OFFCURVE",
"252 826 CURVE SMOOTH",
"257 826 OFFCURVE",
"266 823 OFFCURVE",
"275 810 CURVE",
"279 803 OFFCURVE",
"281 795 OFFCURVE",
"281 786 CURVE SMOOTH",
"281 766 OFFCURVE",
"273 748 OFFCURVE",
"261 748 CURVE",
"249 749 OFFCURVE",
"239 753 OFFCURVE",
"231 762 CURVE"
);
}
);
width = 466;
}
);
note = j;
unicode = 006A;
},
{
glyphname = k;
layers = (
{
layerId = "8BD8650B-A4E1-42AA-8EA8-F95A9955B41A";
name = Regular;
paths = (
{
closed = 1;
nodes = (
"51 781 OFFCURVE",
"59 793 OFFCURVE",
"74 793 CURVE SMOOTH",
"87 793 OFFCURVE",
"96 785 OFFCURVE",
"102 770 CURVE",
"106 761 OFFCURVE",
"111 732 OFFCURVE",
"116 684 CURVE SMOOTH",
"121 636 OFFCURVE",
"126 582 OFFCURVE",
"132 522 CURVE SMOOTH",
"137 462 OFFCURVE",
"142 419 OFFCURVE",
"146 394 CURVE SMOOTH",
"154 336 LINE",
"268 450 LINE SMOOTH",
"309 491 OFFCURVE",
"337 518 OFFCURVE",
"354 533 CURVE SMOOTH",
"371 547 OFFCURVE",
"383 554 OFFCURVE",
"391 554 CURVE SMOOTH",
"400 554 OFFCURVE",
"415 537 OFFCURVE",
"415 524 CURVE SMOOTH",
"415 515 OFFCURVE",
"410 509 OFFCURVE",
"403 505 CURVE",
"395 500 OFFCURVE",
"378 481 OFFCURVE",
"359 456 CURVE",
"328 411 OFFCURVE",
"275 359 OFFCURVE",
"201 300 CURVE SMOOTH",
"174 279 OFFCURVE",
"161 262 OFFCURVE",
"161 248 CURVE SMOOTH",
"161 239 OFFCURVE",
"167 231 OFFCURVE",
"179 225 CURVE SMOOTH",
"286 175 LINE SMOOTH",
"335 152 OFFCURVE",
"376 128 OFFCURVE",
"409 105 CURVE SMOOTH",
"442 82 OFFCURVE",
"458 64 OFFCURVE",
"458 51 CURVE SMOOTH",
"458 37 OFFCURVE",
"451 30 OFFCURVE",
"438 30 CURVE SMOOTH",
"426 30 OFFCURVE",
"408 38 OFFCURVE",
"385 55 CURVE SMOOTH",
"362 71 OFFCURVE",
"347 79 OFFCURVE",
"341 79 CURVE SMOOTH",
"333 79 OFFCURVE",
"329 82 OFFCURVE",
"329 87 CURVE SMOOTH",
"329 94 OFFCURVE",
"288 113 OFFCURVE",
"207 143 CURVE SMOOTH",
"154 163 LINE",
"161 80 LINE SMOOTH",
"163 58 OFFCURVE",
"164 41 OFFCURVE",
"164 28 CURVE SMOOTH",
"164 0 OFFCURVE",
"157 -14 OFFCURVE",
"143 -14 CURVE SMOOTH",
"122 -14 OFFCURVE",
"108 1 OFFCURVE",
"103 31 CURVE",
"97 60 OFFCURVE",
"92 136 OFFCURVE",
"87 257 CURVE SMOOTH",
"83 364 OFFCURVE",
"78 434 OFFCURVE",
"72 467 CURVE SMOOTH",
"60 531 OFFCURVE",
"51 677 OFFCURVE",
"51 757 CURVE SMOOTH"
);
}
);
width = 519;
}
);
note = k;
unicode = 006B;
},
{
glyphname = l;
layers = (
{
layerId = "8BD8650B-A4E1-42AA-8EA8-F95A9955B41A";
name = Regular;
paths = (
{
closed = 1;
nodes = (
"99 701 OFFCURVE",
"97 748 OFFCURVE",
"97 799 CURVE SMOOTH",
"97 850 OFFCURVE",
"98 890 OFFCURVE",
"101 917 CURVE SMOOTH",
"104 944 OFFCURVE",
"107 961 OFFCURVE",
"111 968 CURVE SMOOTH",
"115 975 OFFCURVE",
"121 979 OFFCURVE",
"128 979 CURVE SMOOTH",
"135 979 OFFCURVE",
"140 976 OFFCURVE",
"144 970 CURVE",
"152 957 OFFCURVE",
"211 60 OFFCURVE",
"211 36 CURVE SMOOTH",
"211 19 OFFCURVE",
"204 14 OFFCURVE",
"185 14 CURVE SMOOTH",
"169 14 OFFCURVE",
"159 26 OFFCURVE",
"154 49 CURVE SMOOTH",
"149 72 OFFCURVE",
"143 144 OFFCURVE",
"134 265 CURVE SMOOTH",
"123 412 OFFCURVE",
"113 543 OFFCURVE",
"103 658 CURVE SMOOTH"
);
}
);
width = 299;
}
);
note = l;
unicode = 006C;
},
{
glyphname = m;
layers = (
{
layerId = "8BD8650B-A4E1-42AA-8EA8-F95A9955B41A";
name = Regular;
paths = (
{
closed = 1;
nodes = (
"144 542 OFFCURVE",
"149 561 OFFCURVE",
"160 561 CURVE SMOOTH",
"169 561 OFFCURVE",
"178 531 OFFCURVE",
"189 470 CURVE SMOOTH",
"199 409 OFFCURVE",
"206 379 OFFCURVE",
"210 379 CURVE SMOOTH",
"211 379 OFFCURVE",
"214 383 OFFCURVE",
"217 392 CURVE",
"220 400 OFFCURVE",
"224 409 OFFCURVE",
"228 420 CURVE SMOOTH",
"232 430 OFFCURVE",
"235 436 OFFCURVE",
"238 439 CURVE",
"245 448 OFFCURVE",
"254 464 OFFCURVE",
"265 488 CURVE SMOOTH",
"293 545 OFFCURVE",
"299 550 OFFCURVE",
"336 550 CURVE SMOOTH",
"377 550 OFFCURVE",
"425 487 OFFCURVE",
"437 456 CURVE",
"442 440 OFFCURVE",
"448 412 OFFCURVE",
"455 371 CURVE SMOOTH",
"471 277 LINE",
"488 337 LINE SMOOTH",
"521 453 OFFCURVE",
"594 550 OFFCURVE",
"647 550 CURVE SMOOTH",
"680 550 OFFCURVE",
"711 508 OFFCURVE",
"723 449 CURVE SMOOTH",
"729 422 OFFCURVE",
"732 361 OFFCURVE",
"732 268 CURVE SMOOTH",
"732 198 OFFCURVE",
"732 144 OFFCURVE",
"731 106 CURVE SMOOTH",
"730 68 OFFCURVE",
"729 41 OFFCURVE",
"727 24 CURVE",
"724 7 OFFCURVE",
"722 -3 OFFCURVE",
"720 -6 CURVE SMOOTH",
"718 -9 OFFCURVE",
"714 -11 OFFCURVE",
"709 -12 CURVE",
"707 -13 OFFCURVE",
"705 -13 OFFCURVE",
"702 -13 CURVE SMOOTH",
"696 -13 OFFCURVE",
"692 -4 OFFCURVE",
"691 15 CURVE SMOOTH",
"690 34 OFFCURVE",
"689 86 OFFCURVE",
"688 172 CURVE",
"688 382 OFFCURVE",
"672 487 OFFCURVE",
"640 487 CURVE SMOOTH",
"605 487 OFFCURVE",
"545 364 OFFCURVE",
"513 228 CURVE SMOOTH",
"497 160 OFFCURVE",
"487 91 OFFCURVE",
"484 22 CURVE SMOOTH",
"483 5 OFFCURVE",
"482 -6 OFFCURVE",
"479 -12 CURVE SMOOTH",
"476 -18 OFFCURVE",
"471 -21 OFFCURVE",
"464 -21 CURVE SMOOTH",
"456 -21 OFFCURVE",
"451 -14 OFFCURVE",
"449 0 CURVE",
"446 13 OFFCURVE",
"444 49 OFFCURVE",
"441 108 CURVE SMOOTH",
"436 216 OFFCURVE",
"430 292 OFFCURVE",
"421 336 CURVE SMOOTH",
"412 379 OFFCURVE",
"396 419 OFFCURVE",
"373 454 CURVE SMOOTH",
"356 479 OFFCURVE",
"343 491 OFFCURVE",
"335 491 CURVE SMOOTH",
"326 491 OFFCURVE",
"315 480 OFFCURVE",
"304 457 CURVE SMOOTH",
"281 411 OFFCURVE",
"230 291 OFFCURVE",
"230 239 CURVE SMOOTH",
"230 224 OFFCURVE",
"227 207 OFFCURVE",
"222 189 CURVE",
"216 170 OFFCURVE",
"212 125 OFFCURVE",
"210 53 CURVE SMOOTH",
"209 -14 OFFCURVE",
"206 -53 OFFCURVE",
"202 -62 CURVE",
"199 -70 OFFCURVE",
"194 -74 OFFCURVE",
"186 -74 CURVE SMOOTH",
"175 -74 OFFCURVE",
"168 -58 OFFCURVE",
"165 -26 CURVE SMOOTH",
"161 6 OFFCURVE",
"159 70 OFFCURVE",
"159 166 CURVE SMOOTH",
"159 243 OFFCURVE",
"157 314 OFFCURVE",
"152 379 CURVE SMOOTH",
"147 444 OFFCURVE",
"144 485 OFFCURVE",
"144 503 CURVE SMOOTH"
);
}
);
width = 844;
}
);
note = m;
unicode = 006D;
},
{
glyphname = n;
layers = (
{
layerId = "8BD8650B-A4E1-42AA-8EA8-F95A9955B41A";
name = Regular;
paths = (
{
closed = 1;
nodes = (
"126 564 OFFCURVE",
"133 575 OFFCURVE",
"146 575 CURVE SMOOTH",
"155 575 OFFCURVE",
"161 565 OFFCURVE",
"165 546 CURVE SMOOTH",
"169 526 OFFCURVE",
"176 468 OFFCURVE",
"187 371 CURVE SMOOTH",
"199 266 OFFCURVE",
"206 212 OFFCURVE",
"208 207 CURVE",
"211 210 OFFCURVE",
"220 237 OFFCURVE",
"237 288 CURVE SMOOTH",
"268 384 OFFCURVE",
"276 401 OFFCURVE",
"321 465 CURVE SMOOTH",
"370 532 OFFCURVE",
"407 566 OFFCURVE",
"434 566 CURVE SMOOTH",
"469 566 OFFCURVE",
"512 500 OFFCURVE",
"521 440 CURVE SMOOTH",
"530 380 OFFCURVE",
"533 126 OFFCURVE",
"533 99 CURVE SMOOTH",
"533 66 OFFCURVE",
"532 42 OFFCURVE",
"530 27 CURVE SMOOTH",
"525 -3 OFFCURVE",
"518 -7 OFFCURVE",
"497 -8 CURVE",
"491 -8 OFFCURVE",
"487 -5 OFFCURVE",
"485 0 CURVE SMOOTH",
"483 5 OFFCURVE",
"482 16 OFFCURVE",
"482 34 CURVE SMOOTH",
"482 44 OFFCURVE",
"483 66 OFFCURVE",
"484 99 CURVE SMOOTH",
"485 132 OFFCURVE",
"486 159 OFFCURVE",
"486 182 CURVE SMOOTH",
"486 295 OFFCURVE",
"476 422 OFFCURVE",
"464 453 CURVE SMOOTH",
"457 470 OFFCURVE",
"440 494 OFFCURVE",
"427 494 CURVE SMOOTH",
"413 494 OFFCURVE",
"391 470 OFFCURVE",
"360 423 CURVE SMOOTH",
"299 327 OFFCURVE",
"254 209 OFFCURVE",
"239 158 CURVE SMOOTH",
"232 133 OFFCURVE",
"226 99 OFFCURVE",
"222 57 CURVE SMOOTH",
"215 -11 OFFCURVE",
"209 -45 OFFCURVE",
"206 -45 CURVE SMOOTH",
"201 -45 OFFCURVE",
"193 -39 OFFCURVE",
"183 -28 CURVE",
"176 -21 OFFCURVE",
"171 -5 OFFCURVE",
"168 20 CURVE SMOOTH",
"165 44 OFFCURVE",
"162 92 OFFCURVE",
"157 165 CURVE SMOOTH",
"152 237 OFFCURVE",
"146 310 OFFCURVE",
"138 384 CURVE SMOOTH",
"130 461 OFFCURVE",
"126 513 OFFCURVE",
"126 541 CURVE SMOOTH"
);
}
);
width = 619;
}
);
note = n;
unicode = 006E;
},
{
glyphname = o;
lastChange = "2015-11-24 17:42:16 +0000";
layers = (
{
layerId = "8BD8650B-A4E1-42AA-8EA8-F95A9955B41A";
name = Regular;
paths = (
{
closed = 1;
nodes = (
"221 546 OFFCURVE",
"275 569 OFFCURVE",
"384 569 CURVE SMOOTH",
"549 569 OFFCURVE",
"558 472 OFFCURVE",
"558 387 CURVE SMOOTH",
"558 246 OFFCURVE",
"487 78 OFFCURVE",
"395 22 CURVE SMOOTH",
"350 -5 OFFCURVE",
"303 -19 OFFCURVE",
"254 -19 CURVE SMOOTH",
"185 -19 OFFCURVE",
"130 5 OFFCURVE",
"89 52 CURVE SMOOTH",
"32 119 OFFCURVE",
"20 150 OFFCURVE",
"20 235 CURVE SMOOTH",
"20 316 OFFCURVE",
"52 387 OFFCURVE",
"117 449 CURVE SMOOTH"
);
},
{
closed = 1;
nodes = (
"390 38 OFFCURVE",
"499 220 OFFCURVE",
"499 415 CURVE SMOOTH",
"499 444 OFFCURVE",
"493 455 OFFCURVE",
"476 470 CURVE SMOOTH",
"451 491 OFFCURVE",
"425 501 OFFCURVE",
"397 501 CURVE SMOOTH",
"392 501 OFFCURVE",
"387 501 OFFCURVE",
"382 500 CURVE SMOOTH",
"370 498 OFFCURVE",
"344 494 OFFCURVE",
"309 490 CURVE SMOOTH",
"262 483 OFFCURVE",
"243 474 OFFCURVE",
"202 435 CURVE SMOOTH",
"123 360 OFFCURVE",
"93 303 OFFCURVE",
"93 228 CURVE SMOOTH",
"93 117 OFFCURVE",
"169 39 OFFCURVE",
"278 38 CURVE SMOOTH"
);
}
);
width = 615;
}
);
note = o;
unicode = 006F;
},
{
glyphname = p;
layers = (
{
layerId = "8BD8650B-A4E1-42AA-8EA8-F95A9955B41A";
name = Regular;
paths = (
{
closed = 1;
nodes = (
"107 486 OFFCURVE",
"116 500 OFFCURVE",
"116 512 CURVE SMOOTH",
"116 536 OFFCURVE",
"132 581 OFFCURVE",
"161 581 CURVE SMOOTH",
"170 581 OFFCURVE",
"179 576 OFFCURVE",
"186 566 CURVE",
"193 555 OFFCURVE",
"200 550 OFFCURVE",
"208 550 CURVE SMOOTH",
"214 550 OFFCURVE",
"239 555 OFFCURVE",
"282 566 CURVE SMOOTH",
"325 576 OFFCURVE",
"363 581 OFFCURVE",
"396 581 CURVE SMOOTH",
"423 581 OFFCURVE",
"454 577 OFFCURVE",
"487 570 CURVE SMOOTH",
"556 554 OFFCURVE",
"591 511 OFFCURVE",
"591 441 CURVE SMOOTH",
"591 334 OFFCURVE",
"508 156 OFFCURVE",
"429 93 CURVE SMOOTH",
"390 61 OFFCURVE",
"348 45 OFFCURVE",
"303 45 CURVE SMOOTH",
"290 45 OFFCURVE",
"281 46 OFFCURVE",
"274 47 CURVE SMOOTH",
"228 54 LINE",
"239 0 LINE SMOOTH",
"263 -113 OFFCURVE",
"275 -184 OFFCURVE",
"275 -213 CURVE SMOOTH",
"275 -240 OFFCURVE",
"267 -246 OFFCURVE",
"244 -246 CURVE SMOOTH",
"220 -246 OFFCURVE",
"214 -238 OFFCURVE",
"203 -202 CURVE SMOOTH",
"177 -109 OFFCURVE",
"156 31 OFFCURVE",
"140 216 CURVE SMOOTH",
"133 307 OFFCURVE",
"127 363 OFFCURVE",
"122 384 CURVE SMOOTH",
"117 404 OFFCURVE",
"107 414 OFFCURVE",
"92 414 CURVE SMOOTH",
"71 414 OFFCURVE",
"60 420 OFFCURVE",
"60 433 CURVE SMOOTH",
"60 440 OFFCURVE",
"69 452 OFFCURVE",
"88 469 CURVE SMOOTH"
);
},
{
closed = 1;
nodes = (
"247 137 OFFCURVE",
"259 133 OFFCURVE",
"272 125 CURVE",
"285 116 OFFCURVE",
"297 112 OFFCURVE",
"306 112 CURVE SMOOTH",
"359 112 OFFCURVE",
"438 191 OFFCURVE",
"487 288 CURVE SMOOTH",
"511 337 OFFCURVE",
"523 380 OFFCURVE",
"523 418 CURVE SMOOTH",
"523 459 OFFCURVE",
"499 498 OFFCURVE",
"486 502 CURVE",
"475 507 OFFCURVE",
"455 509 OFFCURVE",
"427 509 CURVE SMOOTH",
"365 509 OFFCURVE",
"310 501 OFFCURVE",
"262 486 CURVE SMOOTH",
"195 464 LINE",
"197 400 LINE SMOOTH",
"198 357 OFFCURVE",
"202 303 OFFCURVE",
"208 237 CURVE SMOOTH",
"211 198 OFFCURVE",
"215 171 OFFCURVE",
"219 158 CURVE SMOOTH",
"223 145 OFFCURVE",
"229 138 OFFCURVE",
"237 137 CURVE"
);
}
);
width = 655;
}
);
note = p;
unicode = 0070;
},
{
glyphname = q;
layers = (
{
layerId = "8BD8650B-A4E1-42AA-8EA8-F95A9955B41A";
name = Regular;
paths = (
{
closed = 1;
nodes = (
"42 417 OFFCURVE",
"184 574 OFFCURVE",
"349 574 CURVE SMOOTH",
"381 574 OFFCURVE",
"413 562 OFFCURVE",
"425 543 CURVE SMOOTH",
"431 534 OFFCURVE",
"434 519 OFFCURVE",
"434 498 CURVE SMOOTH",
"434 477 OFFCURVE",
"428 429 OFFCURVE",
"417 356 CURVE SMOOTH",
"405 283 OFFCURVE",
"399 231 OFFCURVE",
"399 200 CURVE SMOOTH",
"399 174 OFFCURVE",
"403 161 OFFCURVE",
"411 161 CURVE SMOOTH",
"419 161 OFFCURVE",
"438 175 OFFCURVE",
"467 203 CURVE SMOOTH",
"515 250 OFFCURVE",
"572 285 OFFCURVE",
"599 285 CURVE SMOOTH",
"607 285 OFFCURVE",
"611 281 OFFCURVE",
"611 274 CURVE SMOOTH",
"611 261 OFFCURVE",
"479 130 OFFCURVE",
"466 130 CURVE SMOOTH",
"465 130 LINE",
"472 127 LINE",
"480 123 OFFCURVE",
"495 115 OFFCURVE",
"504 106 CURVE SMOOTH",
"559 50 OFFCURVE",
"561 47 OFFCURVE",
"561 -1 CURVE SMOOTH",
"561 -5 OFFCURVE",
"561 -14 OFFCURVE",
"561 -27 CURVE",
"560 -41 OFFCURVE",
"560 -53 OFFCURVE",
"560 -63 CURVE SMOOTH",
"560 -78 OFFCURVE",
"560 -91 OFFCURVE",
"559 -101 CURVE SMOOTH",
"557 -121 OFFCURVE",
"556 -122 OFFCURVE",
"549 -141 CURVE SMOOTH",
"545 -151 OFFCURVE",
"542 -159 OFFCURVE",
"540 -165 CURVE",
"517 -226 OFFCURVE",
"498 -248 OFFCURVE",
"463 -248 CURVE SMOOTH",
"457 -248 LINE SMOOTH",
"428 -248 OFFCURVE",
"418 -245 OFFCURVE",
"399 -212 CURVE",
"390 -195 OFFCURVE",
"382 -168 OFFCURVE",
"375 -131 CURVE SMOOTH",
"368 -94 OFFCURVE",
"360 -43 OFFCURVE",
"353 22 CURVE SMOOTH",
"334 178 LINE",
"270 124 LINE SMOOTH",
"220 83 OFFCURVE",
"180 62 OFFCURVE",
"150 62 CURVE SMOOTH",
"97 62 OFFCURVE",
"62 107 OFFCURVE",
"51 155 CURVE SMOOTH",
"45 178 OFFCURVE",
"42 204 OFFCURVE",
"42 232 CURVE SMOOTH"
);
},
{
closed = 1;
nodes = (
"385 516 OFFCURVE",
"372 523 OFFCURVE",
"360 523 CURVE",
"212 512 OFFCURVE",
"96 392 OFFCURVE",
"96 248 CURVE SMOOTH",
"96 206 OFFCURVE",
"101 174 OFFCURVE",
"112 151 CURVE",
"122 128 OFFCURVE",
"136 116 OFFCURVE",
"155 116 CURVE SMOOTH",
"200 116 OFFCURVE",
"307 231 OFFCURVE",
"328 282 CURVE",
"338 303 OFFCURVE",
"348 339 OFFCURVE",
"359 389 CURVE SMOOTH",
"369 438 OFFCURVE",
"376 467 OFFCURVE",
"380 474 CURVE",
"383 481 OFFCURVE",
"385 488 OFFCURVE",
"385 496 CURVE SMOOTH"
);
},
{
closed = 1;
nodes = (
"473 70 OFFCURVE",
"455 81 OFFCURVE",
"438 81 CURVE SMOOTH",
"419 81 OFFCURVE",
"409 68 OFFCURVE",
"409 43 CURVE SMOOTH",
"409 -18 OFFCURVE",
"427 -102 OFFCURVE",
"446 -149 CURVE SMOOTH",
"455 -173 OFFCURVE",
"463 -185 OFFCURVE",
"469 -185 CURVE SMOOTH",
"472 -185 OFFCURVE",
"477 -179 OFFCURVE",
"482 -167 CURVE SMOOTH",
"487 -156 OFFCURVE",
"492 -142 OFFCURVE",
"497 -127 CURVE SMOOTH",
"502 -112 OFFCURVE",
"507 -102 OFFCURVE",
"510 -97 CURVE",
"512 -94 OFFCURVE",
"513 -91 OFFCURVE",
"513 -87 CURVE SMOOTH",
"513 -80 OFFCURVE",
"512 -64 OFFCURVE",
"509 -40 CURVE SMOOTH",
"508 -29 OFFCURVE",
"507 -18 OFFCURVE",
"507 -9 CURVE",
"506 0 OFFCURVE",
"506 6 OFFCURVE",
"506 11 CURVE",
"505 15 OFFCURVE",
"505 19 OFFCURVE",
"506 22 CURVE",
"506 28 OFFCURVE",
"502 33 OFFCURVE",
"499 37 CURVE",
"498 38 OFFCURVE",
"495 42 OFFCURVE",
"490 48 CURVE"
);
}
);
width = 662;
}
);
note = q;
unicode = 0071;
},
{
glyphname = r;
layers = (
{
layerId = "8BD8650B-A4E1-42AA-8EA8-F95A9955B41A";
name = Regular;
paths = (
{
closed = 1;
nodes = (
"437 486 OFFCURVE",
"457 467 OFFCURVE",
"457 458 CURVE SMOOTH",
"457 450 OFFCURVE",
"444 441 OFFCURVE",
"419 431 CURVE SMOOTH",
"336 398 OFFCURVE",
"233 245 OFFCURVE",
"214 126 CURVE SMOOTH",
"203 59 OFFCURVE",
"195 15 OFFCURVE",
"188 -6 CURVE SMOOTH",
"181 -27 OFFCURVE",
"173 -38 OFFCURVE",
"162 -38 CURVE SMOOTH",
"143 -38 OFFCURVE",
"134 -22 OFFCURVE",
"131 -6 CURVE",
"129 2 OFFCURVE",
"127 17 OFFCURVE",
"125 38 CURVE",
"124 42 OFFCURVE",
"124 45 OFFCURVE",
"124 47 CURVE",
"108 215 OFFCURVE",
"100 348 OFFCURVE",
"100 445 CURVE SMOOTH",
"100 514 OFFCURVE",
"109 541 OFFCURVE",
"132 541 CURVE SMOOTH",
"143 541 OFFCURVE",
"148 532 OFFCURVE",
"148 514 CURVE SMOOTH",
"148 454 OFFCURVE",
"174 269 OFFCURVE",
"183 269 CURVE SMOOTH",
"189 269 OFFCURVE",
"201 287 OFFCURVE",
"220 324 CURVE SMOOTH",
"267 411 OFFCURVE",
"358 486 OFFCURVE",
"414 486 CURVE SMOOTH"
);
}
);
width = 526;
}
);
note = r;
unicode = 0072;
},
{
glyphname = s;
layers = (
{
layerId = "8BD8650B-A4E1-42AA-8EA8-F95A9955B41A";
name = Regular;
paths = (
{
closed = 1;
nodes = (
"161 235 OFFCURVE",
"68 295 OFFCURVE",
"68 346 CURVE SMOOTH",
"68 394 OFFCURVE",
"146 503 OFFCURVE",
"242 527 CURVE SMOOTH",
"264 533 OFFCURVE",
"293 536 OFFCURVE",
"329 536 CURVE SMOOTH",
"360 536 OFFCURVE",
"368 531 OFFCURVE",
"393 503 CURVE SMOOTH",
"414 480 OFFCURVE",
"424 464 OFFCURVE",
"424 455 CURVE SMOOTH",
"424 447 OFFCURVE",
"420 443 OFFCURVE",
"411 443 CURVE SMOOTH",
"400 443 OFFCURVE",
"391 447 OFFCURVE",
"384 455 CURVE",
"369 470 OFFCURVE",
"350 490 OFFCURVE",
"314 490 CURVE SMOOTH",
"267 490 OFFCURVE",
"209 463 OFFCURVE",
"168 418 CURVE SMOOTH",
"139 387 OFFCURVE",
"124 365 OFFCURVE",
"124 354 CURVE SMOOTH",
"124 343 OFFCURVE",
"133 329 OFFCURVE",
"150 314 CURVE SMOOTH",
"167 298 OFFCURVE",
"196 283 OFFCURVE",
"237 269 CURVE SMOOTH",
"365 225 OFFCURVE",
"401 194 OFFCURVE",
"401 129 CURVE SMOOTH",
"401 68 OFFCURVE",
"386 28 OFFCURVE",
"338 -20 CURVE SMOOTH",
"314 -44 OFFCURVE",
"290 -56 OFFCURVE",
"267 -56 CURVE SMOOTH",
"231 -56 OFFCURVE",
"161 -43 OFFCURVE",
"132 -28 CURVE SMOOTH",
"108 -16 OFFCURVE",
"84 27 OFFCURVE",
"84 55 CURVE SMOOTH",
"84 70 OFFCURVE",
"92 83 OFFCURVE",
"103 83 CURVE SMOOTH",
"113 83 OFFCURVE",
"122 74 OFFCURVE",
"131 55 CURVE SMOOTH",
"147 22 OFFCURVE",
"205 -10 OFFCURVE",
"248 -10 CURVE SMOOTH",
"305 -10 OFFCURVE",
"357 83 OFFCURVE",
"357 122 CURVE SMOOTH",
"357 127 OFFCURVE",
"356 133 OFFCURVE",
"354 140 CURVE",
"349 154 OFFCURVE",
"329 177 OFFCURVE",
"300 188 CURVE",
"272 197 OFFCURVE",
"229 216 OFFCURVE",
"205 227 CURVE",
"192 232 OFFCURVE",
"184 235 OFFCURVE",
"181 235 CURVE SMOOTH"
);
}
);
width = 492;
}
);
note = s;
unicode = 0073;
},
{
glyphname = t;
layers = (
{
layerId = "8BD8650B-A4E1-42AA-8EA8-F95A9955B41A";
name = Regular;
paths = (
{
closed = 1;
nodes = (
"234 720 OFFCURVE",
"232 751 OFFCURVE",
"227 789 CURVE SMOOTH",
"222 827 OFFCURVE",
"220 859 OFFCURVE",
"220 884 CURVE SMOOTH",
"220 909 OFFCURVE",
"221 922 OFFCURVE",
"233 935 CURVE",
"238 941 OFFCURVE",
"244 944 OFFCURVE",
"250 944 CURVE SMOOTH",
"258 944 OFFCURVE",
"264 940 OFFCURVE",
"267 933 CURVE SMOOTH",
"269 928 OFFCURVE",
"272 904 OFFCURVE",
"276 859 CURVE SMOOTH",
"280 814 OFFCURVE",
"284 771 OFFCURVE",
"287 728 CURVE SMOOTH",
"290 685 OFFCURVE",
"293 663 OFFCURVE",
"294 662 CURVE SMOOTH",
"295 661 OFFCURVE",
"296 661 OFFCURVE",
"297 661 CURVE SMOOTH",
"302 661 OFFCURVE",
"318 664 OFFCURVE",
"344 670 CURVE SMOOTH",
"369 675 OFFCURVE",
"390 678 OFFCURVE",
"407 678 CURVE SMOOTH",
"440 678 OFFCURVE",
"457 671 OFFCURVE",
"457 656 CURVE SMOOTH",
"457 641 OFFCURVE",
"420 625 OFFCURVE",
"347 607 CURVE SMOOTH",
"297 595 LINE",
"303 426 LINE SMOOTH",
"306 327 OFFCURVE",
"313 234 OFFCURVE",
"322 148 CURVE SMOOTH",
"331 61 OFFCURVE",
"336 12 OFFCURVE",
"336 1 CURVE SMOOTH",
"336 -20 OFFCURVE",
"328 -30 OFFCURVE",
"313 -30 CURVE SMOOTH",
"301 -30 OFFCURVE",
"291 -19 OFFCURVE",
"284 2 CURVE",
"276 23 OFFCURVE",
"272 51 OFFCURVE",
"272 85 CURVE SMOOTH",
"272 134 OFFCURVE",
"269 172 OFFCURVE",
"259 281 CURVE SMOOTH",
"254 335 OFFCURVE",
"249 391 OFFCURVE",
"244 448 CURVE SMOOTH",
"242 479 OFFCURVE",
"241 502 OFFCURVE",
"240 519 CURVE SMOOTH",
"239 536 OFFCURVE",
"237 548 OFFCURVE",
"236 556 CURVE SMOOTH",
"235 564 OFFCURVE",
"234 569 OFFCURVE",
"233 571 CURVE",
"232 572 OFFCURVE",
"231 573 OFFCURVE",
"229 573 CURVE SMOOTH",
"218 573 OFFCURVE",
"193 569 OFFCURVE",
"152 562 CURVE SMOOTH",
"111 555 OFFCURVE",
"86 551 OFFCURVE",
"76 551 CURVE SMOOTH",
"57 551 OFFCURVE",
"47 559 OFFCURVE",
"47 575 CURVE SMOOTH",
"47 586 OFFCURVE",
"59 596 OFFCURVE",
"84 604 CURVE SMOOTH",
"108 612 OFFCURVE",
"135 619 OFFCURVE",
"166 626 CURVE SMOOTH",
"227 638 OFFCURVE",
"234 635 OFFCURVE",
"234 695 CURVE SMOOTH"
);
}
);
width = 519;
}
);
note = t;
unicode = 0074;
},
{
glyphname = u;
layers = (
{
layerId = "8BD8650B-A4E1-42AA-8EA8-F95A9955B41A";
name = Regular;
paths = (
{
closed = 1;
nodes = (
"76 477 OFFCURVE",
"85 539 OFFCURVE",
"104 539 CURVE SMOOTH",
"107 539 OFFCURVE",
"111 538 OFFCURVE",
"115 537 CURVE",
"118 536 OFFCURVE",
"123 531 OFFCURVE",
"128 523 CURVE",
"133 514 OFFCURVE",
"136 503 OFFCURVE",
"136 488 CURVE SMOOTH",
"136 481 OFFCURVE",
"135 470 OFFCURVE",
"134 455 CURVE SMOOTH",
"133 439 OFFCURVE",
"132 421 OFFCURVE",
"132 402 CURVE SMOOTH",
"132 294 OFFCURVE",
"147 101 OFFCURVE",
"160 53 CURVE SMOOTH",
"167 27 OFFCURVE",
"178 14 OFFCURVE",
"194 14 CURVE SMOOTH",
"209 14 OFFCURVE",
"233 28 OFFCURVE",
"264 55 CURVE SMOOTH",
"341 123 OFFCURVE",
"422 286 OFFCURVE",
"450 430 CURVE SMOOTH",
"463 501 OFFCURVE",
"474 538 OFFCURVE",
"483 543 CURVE",
"490 548 OFFCURVE",
"497 550 OFFCURVE",
"504 550 CURVE SMOOTH",
"520 550 OFFCURVE",
"528 541 OFFCURVE",
"528 522 CURVE SMOOTH",
"528 512 OFFCURVE",
"523 473 OFFCURVE",
"514 405 CURVE SMOOTH",
"504 336 OFFCURVE",
"499 287 OFFCURVE",
"499 257 CURVE SMOOTH",
"499 215 OFFCURVE",
"508 163 OFFCURVE",
"525 101 CURVE SMOOTH",
"542 38 OFFCURVE",
"550 3 OFFCURVE",
"550 -6 CURVE SMOOTH",
"550 -19 OFFCURVE",
"536 -27 OFFCURVE",
"529 -29 CURVE SMOOTH",
"525 -30 OFFCURVE",
"522 -31 OFFCURVE",
"520 -31 CURVE SMOOTH",
"496 -31 OFFCURVE",
"472 54 OFFCURVE",
"454 122 CURVE SMOOTH",
"445 156 OFFCURVE",
"437 173 OFFCURVE",
"430 173 CURVE SMOOTH",
"427 173 OFFCURVE",
"425 172 OFFCURVE",
"422 169 CURVE SMOOTH",
"420 167 OFFCURVE",
"418 165 OFFCURVE",
"417 163 CURVE SMOOTH",
"416 161 OFFCURVE",
"414 158 OFFCURVE",
"412 155 CURVE",
"409 152 OFFCURVE",
"407 149 OFFCURVE",
"406 146 CURVE",
"404 143 OFFCURVE",
"401 139 OFFCURVE",
"398 134 CURVE SMOOTH",
"395 129 OFFCURVE",
"392 124 OFFCURVE",
"390 121 CURVE SMOOTH",
"331 29 OFFCURVE",
"251 -40 OFFCURVE",
"202 -40 CURVE SMOOTH",
"146 -40 OFFCURVE",
"122 -19 OFFCURVE",
"106 45 CURVE SMOOTH",
"89 109 OFFCURVE",
"76 233 OFFCURVE",
"76 352 CURVE SMOOTH"
);
}
);
width = 606;
}
);
note = u;
unicode = 0075;
},
{
glyphname = v;
layers = (
{
layerId = "8BD8650B-A4E1-42AA-8EA8-F95A9955B41A";
name = Regular;
paths = (
{
closed = 1;
nodes = (
"468 518 OFFCURVE",
"491 556 OFFCURVE",
"516 556 CURVE SMOOTH",
"531 556 OFFCURVE",
"538 547 OFFCURVE",
"538 530 CURVE SMOOTH",
"538 499 OFFCURVE",
"497 370 OFFCURVE",
"414 145 CURVE SMOOTH",
"381 53 OFFCURVE",
"318 -40 OFFCURVE",
"290 -40 CURVE SMOOTH",
"279 -40 OFFCURVE",
"269 -34 OFFCURVE",
"260 -22 CURVE",
"240 2 OFFCURVE",
"219 64 OFFCURVE",
"204 112 CURVE SMOOTH",
"197 136 OFFCURVE",
"187 170 OFFCURVE",
"175 214 CURVE SMOOTH",
"162 257 OFFCURVE",
"152 292 OFFCURVE",
"144 317 CURVE SMOOTH",
"105 448 OFFCURVE",
"85 521 OFFCURVE",
"85 538 CURVE SMOOTH",
"85 544 OFFCURVE",
"88 547 OFFCURVE",
"93 547 CURVE SMOOTH",
"97 547 OFFCURVE",
"100 547 OFFCURVE",
"103 546 CURVE",
"122 543 OFFCURVE",
"147 500 OFFCURVE",
"176 417 CURVE SMOOTH",
"205 334 OFFCURVE",
"230 252 OFFCURVE",
"253 171 CURVE SMOOTH",
"276 90 OFFCURVE",
"289 49 OFFCURVE",
"292 49 CURVE SMOOTH",
"307 49 OFFCURVE",
"370 176 OFFCURVE",
"395 259 CURVE SMOOTH",
"404 288 OFFCURVE",
"416 322 OFFCURVE",
"429 359 CURVE SMOOTH",
"442 396 OFFCURVE",
"452 424 OFFCURVE",
"459 443 CURVE",
"465 462 OFFCURVE",
"468 477 OFFCURVE",
"468 487 CURVE SMOOTH"
);
}
);
width = 590;
}
);
note = v;
unicode = 0076;
},
{
glyphname = w;
layers = (
{
layerId = "8BD8650B-A4E1-42AA-8EA8-F95A9955B41A";
name = Regular;
paths = (
{
closed = 1;
nodes = (
"47 529 OFFCURVE",
"60 553 OFFCURVE",
"71 553 CURVE SMOOTH",
"78 553 OFFCURVE",
"87 546 OFFCURVE",
"98 533 CURVE",
"109 521 OFFCURVE",
"117 492 OFFCURVE",
"122 447 CURVE SMOOTH",
"127 401 OFFCURVE",
"132 373 OFFCURVE",
"137 363 CURVE",
"142 355 OFFCURVE",
"150 327 OFFCURVE",
"161 279 CURVE SMOOTH",
"172 230 OFFCURVE",
"183 184 OFFCURVE",
"194 141 CURVE SMOOTH",
"204 97 OFFCURVE",
"211 75 OFFCURVE",
"214 75 CURVE SMOOTH",
"215 75 OFFCURVE",
"219 84 OFFCURVE",
"226 103 CURVE SMOOTH",
"240 140 OFFCURVE",
"262 200 OFFCURVE",
"271 233 CURVE SMOOTH",
"288 291 OFFCURVE",
"308 320 OFFCURVE",
"331 320 CURVE SMOOTH",
"355 320 OFFCURVE",
"431 243 OFFCURVE",
"452 198 CURVE SMOOTH",
"463 173 OFFCURVE",
"475 153 OFFCURVE",
"488 138 CURVE SMOOTH",
"505 118 LINE",
"515 147 LINE SMOOTH",
"518 155 OFFCURVE",
"532 219 OFFCURVE",
"557 340 CURVE SMOOTH",
"581 461 OFFCURVE",
"599 529 OFFCURVE",
"612 544 CURVE",
"616 549 OFFCURVE",
"621 551 OFFCURVE",
"628 551 CURVE SMOOTH",
"641 551 OFFCURVE",
"655 538 OFFCURVE",
"655 525 CURVE SMOOTH",
"655 523 OFFCURVE",
"653 515 OFFCURVE",
"649 502 CURVE SMOOTH",
"640 474 OFFCURVE",
"621 404 OFFCURVE",
"608 323 CURVE SMOOTH",
"591 223 OFFCURVE",
"541 42 OFFCURVE",
"528 29 CURVE SMOOTH",
"523 24 OFFCURVE",
"514 22 OFFCURVE",
"502 25 CURVE",
"495 26 OFFCURVE",
"483 40 OFFCURVE",
"467 65 CURVE SMOOTH",
"451 90 OFFCURVE",
"425 135 OFFCURVE",
"390 202 CURVE SMOOTH",
"382 217 OFFCURVE",
"349 254 OFFCURVE",
"341 254 CURVE SMOOTH",
"338 254 OFFCURVE",
"335 252 OFFCURVE",
"332 248 CURVE",
"327 240 OFFCURVE",
"316 213 OFFCURVE",
"305 182 CURVE SMOOTH",
"294 151 OFFCURVE",
"269 85 OFFCURVE",
"244 22 CURVE",
"233 -11 OFFCURVE",
"219 -27 OFFCURVE",
"203 -27 CURVE SMOOTH",
"198 -27 OFFCURVE",
"194 -25 OFFCURVE",
"189 -21 CURVE SMOOTH",
"180 -14 OFFCURVE",
"170 13 OFFCURVE",
"158 58 CURVE SMOOTH",
"146 103 OFFCURVE",
"133 156 OFFCURVE",
"120 218 CURVE SMOOTH",
"107 279 OFFCURVE",
"97 321 OFFCURVE",
"91 342 CURVE",
"78 381 OFFCURVE",
"72 411 OFFCURVE",
"72 431 CURVE SMOOTH",
"72 446 OFFCURVE",
"68 462 OFFCURVE",
"60 481 CURVE",
"51 500 OFFCURVE",
"47 512 OFFCURVE",
"47 517 CURVE SMOOTH"
);
}
);
width = 696;
}
);
note = w;
unicode = 0077;
},
{
glyphname = x;
layers = (
{
layerId = "8BD8650B-A4E1-42AA-8EA8-F95A9955B41A";
name = Regular;
paths = (
{
closed = 1;
nodes = (
"65 497 OFFCURVE",
"80 526 OFFCURVE",
"97 526 CURVE SMOOTH",
"108 526 OFFCURVE",
"117 517 OFFCURVE",
"124 499 CURVE SMOOTH",
"133 474 OFFCURVE",
"290 302 OFFCURVE",
"305 302 CURVE SMOOTH",
"308 302 OFFCURVE",
"325 326 OFFCURVE",
"355 374 CURVE SMOOTH",
"424 488 LINE SMOOTH",
"439 512 OFFCURVE",
"452 524 OFFCURVE",
"464 524 CURVE SMOOTH",
"476 524 OFFCURVE",
"492 505 OFFCURVE",
"492 493 CURVE SMOOTH",
"492 486 OFFCURVE",
"484 472 OFFCURVE",
"468 452 CURVE SMOOTH",
"452 432 OFFCURVE",
"442 415 OFFCURVE",
"438 402 CURVE SMOOTH",
"435 391 OFFCURVE",
"421 364 OFFCURVE",
"394 322 CURVE SMOOTH",
"367 280 OFFCURVE",
"354 257 OFFCURVE",
"354 253 CURVE SMOOTH",
"354 249 OFFCURVE",
"383 221 OFFCURVE",
"440 168 CURVE SMOOTH",
"497 115 OFFCURVE",
"527 84 OFFCURVE",
"530 75 CURVE SMOOTH",
"532 69 OFFCURVE",
"533 63 OFFCURVE",
"533 58 CURVE SMOOTH",
"533 42 OFFCURVE",
"526 34 OFFCURVE",
"511 34 CURVE SMOOTH",
"496 34 OFFCURVE",
"480 43 OFFCURVE",
"464 61 CURVE SMOOTH",
"428 100 OFFCURVE",
"324 189 OFFCURVE",
"315 189 CURVE SMOOTH",
"308 189 OFFCURVE",
"284 157 OFFCURVE",
"242 92 CURVE SMOOTH",
"219 57 OFFCURVE",
"201 32 OFFCURVE",
"188 17 CURVE SMOOTH",
"175 2 OFFCURVE",
"163 -5 OFFCURVE",
"154 -5 CURVE SMOOTH",
"145 -5 OFFCURVE",
"130 7 OFFCURVE",
"130 16 CURVE SMOOTH",
"130 29 OFFCURVE",
"151 67 OFFCURVE",
"194 132 CURVE SMOOTH",
"266 241 LINE",
"222 288 LINE",
"220 291 OFFCURVE",
"202 309 OFFCURVE",
"167 344 CURVE SMOOTH",
"132 379 OFFCURVE",
"106 407 OFFCURVE",
"90 429 CURVE",
"73 450 OFFCURVE",
"65 468 OFFCURVE",
"65 481 CURVE SMOOTH"
);
}
);
width = 583;
}
);
note = x;
unicode = 0078;
},
{
glyphname = y;
layers = (
{
layerId = "8BD8650B-A4E1-42AA-8EA8-F95A9955B41A";
name = Regular;
paths = (
{
closed = 1;
nodes = (
"128 236 OFFCURVE",
"130 198 OFFCURVE",
"135 173 CURVE SMOOTH",
"140 148 OFFCURVE",
"149 135 OFFCURVE",
"162 135 CURVE SMOOTH",
"187 135 OFFCURVE",
"262 215 OFFCURVE",
"286 270 CURVE SMOOTH",
"301 303 OFFCURVE",
"314 344 OFFCURVE",
"323 391 CURVE SMOOTH",
"332 438 OFFCURVE",
"341 473 OFFCURVE",
"348 498 CURVE SMOOTH",
"355 523 OFFCURVE",
"366 535 OFFCURVE",
"381 535 CURVE SMOOTH",
"396 535 OFFCURVE",
"410 522 OFFCURVE",
"410 503 CURVE SMOOTH",
"410 492 OFFCURVE",
"403 457 OFFCURVE",
"388 398 CURVE SMOOTH",
"373 339 OFFCURVE",
"365 276 OFFCURVE",
"365 211 CURVE SMOOTH",
"365 189 OFFCURVE",
"366 169 OFFCURVE",
"368 150 CURVE",
"375 121 LINE",
"407 137 LINE",
"424 144 OFFCURVE",
"437 148 OFFCURVE",
"446 148 CURVE SMOOTH",
"463 148 OFFCURVE",
"472 142 OFFCURVE",
"472 129 CURVE SMOOTH",
"472 113 OFFCURVE",
"458 98 OFFCURVE",
"430 83 CURVE SMOOTH",
"389 62 LINE",
"394 -50 LINE",
"390 -168 OFFCURVE",
"386 -230 OFFCURVE",
"381 -237 CURVE",
"376 -245 OFFCURVE",
"368 -249 OFFCURVE",
"356 -249 CURVE SMOOTH",
"328 -249 OFFCURVE",
"274 -224 OFFCURVE",
"256 -207 CURVE SMOOTH",
"247 -198 OFFCURVE",
"238 -186 OFFCURVE",
"230 -169 CURVE SMOOTH",
"211 -131 OFFCURVE",
"202 -97 OFFCURVE",
"202 -67 CURVE SMOOTH",
"202 -46 OFFCURVE",
"204 -40 OFFCURVE",
"220 -15 CURVE SMOOTH",
"228 -3 OFFCURVE",
"235 9 OFFCURVE",
"242 21 CURVE SMOOTH",
"248 32 OFFCURVE",
"258 42 OFFCURVE",
"272 50 CURVE SMOOTH",
"285 57 OFFCURVE",
"294 63 OFFCURVE",
"297 67 CURVE",
"302 72 OFFCURVE",
"308 77 OFFCURVE",
"313 80 CURVE",
"323 87 OFFCURVE",
"324 87 OFFCURVE",
"324 94 CURVE SMOOTH",
"324 110 OFFCURVE",
"315 173 OFFCURVE",
"303 173 CURVE SMOOTH",
"299 173 OFFCURVE",
"290 165 OFFCURVE",
"276 149 CURVE SMOOTH",
"248 116 OFFCURVE",
"202 75 OFFCURVE",
"159 75 CURVE SMOOTH",
"106 75 OFFCURVE",
"81 136 OFFCURVE",
"77 177 CURVE SMOOTH",
"72 218 OFFCURVE",
"72 407 OFFCURVE",
"82 463 CURVE SMOOTH",
"87 490 OFFCURVE",
"96 504 OFFCURVE",
"110 504 CURVE SMOOTH",
"118 504 OFFCURVE",
"123 500 OFFCURVE",
"126 491 CURVE SMOOTH",
"129 482 OFFCURVE",
"130 461 OFFCURVE",
"130 429 CURVE SMOOTH",
"130 416 OFFCURVE",
"130 395 OFFCURVE",
"129 364 CURVE SMOOTH",
"128 333 OFFCURVE",
"128 308 OFFCURVE",
"128 288 CURVE SMOOTH"
);
},
{
closed = 1;
nodes = (
"260 -133 OFFCURVE",
"310 -186 OFFCURVE",
"329 -186 CURVE SMOOTH",
"349 -186 OFFCURVE",
"345 -106 OFFCURVE",
"338 -69 CURVE SMOOTH",
"334 -50 OFFCURVE",
"332 -37 OFFCURVE",
"331 -30 CURVE",
"325 30 LINE",
"297 -13 LINE SMOOTH",
"272 -52 OFFCURVE",
"260 -84 OFFCURVE",
"260 -109 CURVE SMOOTH"
);
}
);
width = 526;
}
);
note = y;
unicode = 0079;
},
{
glyphname = z;
layers = (
{
layerId = "8BD8650B-A4E1-42AA-8EA8-F95A9955B41A";
name = Regular;
paths = (
{
closed = 1;
nodes = (
"72 394 OFFCURVE",
"52 401 OFFCURVE",
"52 412 CURVE SMOOTH",
"52 449 OFFCURVE",
"243 514 OFFCURVE",
"307 529 CURVE SMOOTH",
"316 531 OFFCURVE",
"326 532 OFFCURVE",
"336 532 CURVE SMOOTH",
"372 532 OFFCURVE",
"412 521 OFFCURVE",
"425 506 CURVE",
"434 497 OFFCURVE",
"438 480 OFFCURVE",
"438 457 CURVE SMOOTH",
"438 422 OFFCURVE",
"428 383 OFFCURVE",
"409 341 CURVE SMOOTH",
"387 295 LINE",
"424 290 LINE",
"454 288 OFFCURVE",
"469 283 OFFCURVE",
"469 276 CURVE SMOOTH",
"469 271 OFFCURVE",
"462 265 OFFCURVE",
"447 258 CURVE SMOOTH",
"432 251 OFFCURVE",
"415 247 OFFCURVE",
"396 244 CURVE SMOOTH",
"360 239 OFFCURVE",
"346 230 OFFCURVE",
"314 197 CURVE SMOOTH",
"281 162 OFFCURVE",
"229 76 OFFCURVE",
"229 59 CURVE SMOOTH",
"229 56 OFFCURVE",
"231 55 OFFCURVE",
"234 55 CURVE SMOOTH",
"237 55 OFFCURVE",
"267 61 OFFCURVE",
"324 72 CURVE SMOOTH",
"381 83 OFFCURVE",
"427 88 OFFCURVE",
"461 88 CURVE SMOOTH",
"496 88 OFFCURVE",
"514 82 OFFCURVE",
"514 70 CURVE SMOOTH",
"514 63 OFFCURVE",
"507 57 OFFCURVE",
"494 52 CURVE SMOOTH",
"481 47 OFFCURVE",
"454 40 OFFCURVE",
"413 32 CURVE SMOOTH",
"288 7 OFFCURVE",
"211 -5 OFFCURVE",
"184 -5 CURVE SMOOTH",
"162 -5 OFFCURVE",
"151 1 OFFCURVE",
"151 13 CURVE SMOOTH",
"151 38 OFFCURVE",
"212 154 OFFCURVE",
"239 186 CURVE SMOOTH",
"256 207 OFFCURVE",
"265 220 OFFCURVE",
"265 224 CURVE SMOOTH",
"265 229 OFFCURVE",
"251 231 OFFCURVE",
"224 231 CURVE SMOOTH",
"191 231 OFFCURVE",
"174 236 OFFCURVE",
"174 247 CURVE SMOOTH",
"174 255 OFFCURVE",
"182 262 OFFCURVE",
"198 267 CURVE SMOOTH",
"213 272 OFFCURVE",
"233 275 OFFCURVE",
"257 275 CURVE SMOOTH",
"305 275 OFFCURVE",
"312 277 OFFCURVE",
"328 300 CURVE SMOOTH",
"360 348 OFFCURVE",
"385 415 OFFCURVE",
"385 456 CURVE SMOOTH",
"385 479 OFFCURVE",
"382 481 OFFCURVE",
"355 481 CURVE SMOOTH",
"291 480 OFFCURVE",
"141 435 OFFCURVE",
"116 408 CURVE",
"109 399 OFFCURVE",
"99 394 OFFCURVE",
"88 394 CURVE SMOOTH"
);
}
);
width = 553;
}
);
note = z;
unicode = 007A;
},
{
glyphname = braceleft;
lastChange = "2015-11-24 16:39:49 +0000";
layers = (
{
layerId = "8BD8650B-A4E1-42AA-8EA8-F95A9955B41A";
name = Regular;
paths = (
{
closed = 1;
nodes = (
"128 495 OFFCURVE",
"127 541 OFFCURVE",
"124 596 CURVE SMOOTH",
"119 651 OFFCURVE",
"118 681 OFFCURVE",
"118 682 CURVE SMOOTH",
"118 701 OFFCURVE",
"122 724 OFFCURVE",
"131 747 CURVE",
"147 796 LINE",
"180 790 LINE",
"208 787 OFFCURVE",
"223 776 OFFCURVE",
"223 756 CURVE SMOOTH",
"223 747 OFFCURVE",
"219 743 OFFCURVE",
"208 743 CURVE SMOOTH",
"199 743 OFFCURVE",
"195 746 OFFCURVE",
"195 752 CURVE SMOOTH",
"195 758 OFFCURVE",
"193 761 OFFCURVE",
"190 761 CURVE SMOOTH",
"189 761 OFFCURVE",
"186 758 OFFCURVE",
"181 750 CURVE",
"173 737 OFFCURVE",
"161 704 OFFCURVE",
"161 673 CURVE SMOOTH",
"161 664 OFFCURVE",
"162 637 OFFCURVE",
"167 591 CURVE SMOOTH",
"171 545 OFFCURVE",
"173 502 OFFCURVE",
"173 461 CURVE SMOOTH",
"173 394 OFFCURVE",
"168 345 OFFCURVE",
"161 317 CURVE",
"152 289 OFFCURVE",
"147 274 OFFCURVE",
"147 272 CURVE SMOOTH",
"147 271 OFFCURVE",
"147 269 OFFCURVE",
"149 265 CURVE",
"149 260 OFFCURVE",
"150 254 OFFCURVE",
"152 246 CURVE SMOOTH",
"153 237 OFFCURVE",
"153 225 OFFCURVE",
"155 210 CURVE",
"156 180 OFFCURVE",
"158 124 OFFCURVE",
"158 57 CURVE SMOOTH",
"158 -43 OFFCURVE",
"161 -100 OFFCURVE",
"165 -118 CURVE",
"176 -138 OFFCURVE",
"195 -148 OFFCURVE",
"223 -148 CURVE SMOOTH",
"230 -148 OFFCURVE",
"236 -146 OFFCURVE",
"242 -142 CURVE",
"248 -139 OFFCURVE",
"254 -138 OFFCURVE",
"259 -138 CURVE SMOOTH",
"266 -138 OFFCURVE",
"271 -142 OFFCURVE",
"271 -152 CURVE SMOOTH",
"271 -181 OFFCURVE",
"256 -195 OFFCURVE",
"227 -195 CURVE SMOOTH",
"132 -195 OFFCURVE",
"122 -185 OFFCURVE",
"115 54 CURVE SMOOTH",
"112 231 LINE",
"89 234 LINE",
"73 237 OFFCURVE",
"66 243 OFFCURVE",
"66 253 CURVE SMOOTH",
"66 271 OFFCURVE",
"80 284 OFFCURVE",
"97 297 CURVE SMOOTH",
"104 303 OFFCURVE",
"112 321 OFFCURVE",
"119 349 CURVE",
"125 378 OFFCURVE",
"128 415 OFFCURVE",
"128 461 CURVE SMOOTH"
);
}
);
width = 315;
}
);
note = braceleft;
unicode = 007B;
},
{
glyphname = bar;
lastChange = "2015-11-24 17:54:25 +0000";
layers = (
{
layerId = "8BD8650B-A4E1-42AA-8EA8-F95A9955B41A";
name = Regular;
paths = (
{
closed = 1;
nodes = (
"193 730 OFFCURVE",
"200 732 OFFCURVE",
"202 732 CURVE SMOOTH",
"204 732 OFFCURVE",
"205 732 OFFCURVE",
"205 731 CURVE",
"208 721 OFFCURVE",
"210 526 OFFCURVE",
"210 145 CURVE SMOOTH",
"210 12 OFFCURVE",
"209 -60 OFFCURVE",
"208 -71 CURVE",
"203 -98 OFFCURVE",
"195 -112 OFFCURVE",
"184 -112 CURVE SMOOTH",
"181 -112 OFFCURVE",
"177 -110 OFFCURVE",
"174 -107 CURVE",
"171 -102 OFFCURVE",
"167 13 OFFCURVE",
"164 238 CURVE SMOOTH",
"160 463 OFFCURVE",
"158 577 OFFCURVE",
"157 580 CURVE",
"157 585 OFFCURVE",
"164 723 OFFCURVE",
"181 727 CURVE SMOOTH"
);
}
);
width = 364;
}
);
note = bar;
unicode = 007C;
},
{
glyphname = braceright;
lastChange = "2015-11-24 17:51:41 +0000";
layers = (
{
layerId = "8BD8650B-A4E1-42AA-8EA8-F95A9955B41A";
name = Regular;
paths = (
{
closed = 1;
nodes = (
"83 810 OFFCURVE",
"89 814 OFFCURVE",
"101 814 CURVE SMOOTH",
"105 814 OFFCURVE",
"112 813 OFFCURVE",
"122 810 CURVE",
"139 805 OFFCURVE",
"167 780 OFFCURVE",
"167 741 CURVE SMOOTH",
"167 713 OFFCURVE",
"164 670 OFFCURVE",
"158 610 CURVE SMOOTH",
"153 550 OFFCURVE",
"150 514 OFFCURVE",
"150 504 CURVE SMOOTH",
"150 444 OFFCURVE",
"158 405 OFFCURVE",
"176 390 CURVE",
"186 379 OFFCURVE",
"203 373 OFFCURVE",
"225 373 CURVE SMOOTH",
"252 373 OFFCURVE",
"265 366 OFFCURVE",
"265 354 CURVE SMOOTH",
"265 337 OFFCURVE",
"252 322 OFFCURVE",
"236 304 CURVE",
"229 294 OFFCURVE",
"222 271 OFFCURVE",
"217 237 CURVE",
"210 202 OFFCURVE",
"207 156 OFFCURVE",
"207 99 CURVE SMOOTH",
"207 74 OFFCURVE",
"207 47 OFFCURVE",
"208 18 CURVE SMOOTH",
"210 -11 OFFCURVE",
"210 -29 OFFCURVE",
"210 -36 CURVE SMOOTH",
"210 -103 OFFCURVE",
"190 -162 OFFCURVE",
"174 -178 CURVE SMOOTH",
"164 -188 OFFCURVE",
"151 -192 OFFCURVE",
"133 -192 CURVE SMOOTH",
"98 -192 OFFCURVE",
"90 -182 OFFCURVE",
"90 -164 CURVE SMOOTH",
"90 -146 OFFCURVE",
"96 -136 OFFCURVE",
"107 -136 CURVE SMOOTH",
"109 -136 OFFCURVE",
"114 -139 OFFCURVE",
"119 -143 CURVE",
"125 -149 OFFCURVE",
"129 -152 OFFCURVE",
"133 -152 CURVE SMOOTH",
"146 -152 OFFCURVE",
"153 -120 OFFCURVE",
"157 -57 CURVE SMOOTH",
"161 6 OFFCURVE",
"164 75 OFFCURVE",
"165 152 CURVE SMOOTH",
"167 227 OFFCURVE",
"171 274 OFFCURVE",
"178 292 CURVE SMOOTH",
"190 326 LINE",
"165 338 LINE",
"136 351 OFFCURVE",
"103 391 OFFCURVE",
"103 476 CURVE SMOOTH",
"103 503 OFFCURVE",
"105 549 OFFCURVE",
"109 611 CURVE SMOOTH",
"114 674 OFFCURVE",
"115 711 OFFCURVE",
"115 727 CURVE SMOOTH",
"115 748 OFFCURVE",
"109 764 OFFCURVE",
"100 776 CURVE",
"89 787 OFFCURVE",
"83 795 OFFCURVE",
"83 802 CURVE SMOOTH"
);
}
);
width = 337;
}
);
note = braceright;
unicode = 007D;
},
{
glyphname = asciitilde;
layers = (
{
layerId = "8BD8650B-A4E1-42AA-8EA8-F95A9955B41A";
name = Regular;
paths = (
{
closed = 1;
nodes = (
"114 667 OFFCURVE",
"189 737 OFFCURVE",
"236 737 CURVE SMOOTH",
"271 737 OFFCURVE",
"310 716 OFFCURVE",
"346 692 CURVE",
"364 679 OFFCURVE",
"376 672 OFFCURVE",
"382 669 CURVE",
"404 659 LINE",
"430 683 LINE",
"442 692 OFFCURVE",
"452 703 OFFCURVE",
"460 716 CURVE SMOOTH",
"467 728 OFFCURVE",
"473 737 OFFCURVE",
"478 744 CURVE",
"482 751 OFFCURVE",
"487 754 OFFCURVE",
"493 754 CURVE SMOOTH",
"504 754 OFFCURVE",
"510 749 OFFCURVE",
"510 740 CURVE SMOOTH",
"510 708 OFFCURVE",
"446 628 OFFCURVE",
"403 628 CURVE SMOOTH",
"388 628 OFFCURVE",
"360 640 OFFCURVE",
"319 665 CURVE SMOOTH",
"278 690 OFFCURVE",
"250 702 OFFCURVE",
"234 702 CURVE SMOOTH",
"224 702 OFFCURVE",
"213 697 OFFCURVE",
"200 688 CURVE",
"187 678 OFFCURVE",
"180 673 OFFCURVE",
"177 673 CURVE SMOOTH",
"174 673 OFFCURVE",
"167 666 OFFCURVE",
"155 651 CURVE",
"142 636 OFFCURVE",
"132 628 OFFCURVE",
"125 628 CURVE SMOOTH",
"118 628 OFFCURVE",
"114 633 OFFCURVE",
"114 644 CURVE SMOOTH"
);
}
);
width = 613;
}
);
note = asciitilde;
unicode = 007E;
},
{
glyphname = exclamdown;
layers = (
{
layerId = "8BD8650B-A4E1-42AA-8EA8-F95A9955B41A";
name = Regular;
paths = (
{
closed = 1;
nodes = (
"296 525 OFFCURVE",
"314 475 OFFCURVE",
"314 444 CURVE SMOOTH",
"314 417 OFFCURVE",
"297 404 OFFCURVE",
"262 404 CURVE SMOOTH",
"252 404 OFFCURVE",
"244 405 OFFCURVE",
"239 408 CURVE",
"223 415 OFFCURVE",
"196 458 OFFCURVE",
"196 477 CURVE SMOOTH",
"196 492 OFFCURVE",
"212 510 OFFCURVE",
"224 510 CURVE SMOOTH",
"227 510 OFFCURVE",
"234 513 OFFCURVE",
"245 518 CURVE SMOOTH",
"256 523 OFFCURVE",
"264 525 OFFCURVE",
"269 525 CURVE SMOOTH"
);
},
{
closed = 1;
nodes = (
"219 31 OFFCURVE",
"219 37 OFFCURVE",
"218 44 CURVE SMOOTH",
"217 51 OFFCURVE",
"217 56 OFFCURVE",
"217 59 CURVE SMOOTH",
"217 74 OFFCURVE",
"218 87 OFFCURVE",
"220 98 CURVE",
"225 146 OFFCURVE",
"231 208 OFFCURVE",
"233 234 CURVE SMOOTH",
"235 260 OFFCURVE",
"239 288 OFFCURVE",
"245 297 CURVE",
"248 301 OFFCURVE",
"252 303 OFFCURVE",
"257 303 CURVE SMOOTH",
"266 303 OFFCURVE",
"271 294 OFFCURVE",
"274 276 CURVE SMOOTH",
"282 233 OFFCURVE",
"294 184 OFFCURVE",
"310 131 CURVE SMOOTH",
"326 77 OFFCURVE",
"335 41 OFFCURVE",
"336 24 CURVE SMOOTH",
"339 -13 LINE",
"304 -17 LINE SMOOTH",
"293 -18 OFFCURVE",
"279 -19 OFFCURVE",
"261 -21 CURVE",
"243 -24 OFFCURVE",
"232 -25 OFFCURVE",
"227 -25 CURVE SMOOTH",
"216 -25 OFFCURVE",
"213 -25 OFFCURVE",
"210 -20 CURVE",
"208 -17 OFFCURVE",
"207 -13 OFFCURVE",
"207 -7 CURVE SMOOTH",
"207 0 OFFCURVE",
"209 6 OFFCURVE",
"213 10 CURVE",
"217 13 OFFCURVE",
"219 19 OFFCURVE",
"219 28 CURVE SMOOTH"
);
}
);
width = 514;
}
);
note = exclamdown;
unicode = 00A1;
},
{
glyphname = cent;
layers = (
{
layerId = "8BD8650B-A4E1-42AA-8EA8-F95A9955B41A";
name = Regular;
paths = (
{
closed = 1;
nodes = (
"377 105 OFFCURVE",
"436 169 OFFCURVE",
"472 205 CURVE SMOOTH",
"490 223 OFFCURVE",
"505 232 OFFCURVE",
"516 232 CURVE SMOOTH",
"525 232 OFFCURVE",
"529 226 OFFCURVE",
"529 213 CURVE SMOOTH",
"529 189 OFFCURVE",
"445 85 OFFCURVE",
"400 53 CURVE SMOOTH",
"374 34 OFFCURVE",
"350 20 OFFCURVE",
"327 10 CURVE",
"327 2 LINE SMOOTH",
"327 -10 OFFCURVE",
"327 -24 OFFCURVE",
"327 -40 CURVE",
"326 -57 OFFCURVE",
"326 -67 OFFCURVE",
"326 -72 CURVE SMOOTH",
"326 -93 OFFCURVE",
"323 -107 OFFCURVE",
"318 -112 CURVE SMOOTH",
"311 -119 OFFCURVE",
"306 -122 OFFCURVE",
"301 -122 CURVE SMOOTH",
"294 -122 OFFCURVE",
"291 -114 OFFCURVE",
"290 -97 CURVE",
"290 -88 OFFCURVE",
"289 -56 OFFCURVE",
"287 -2 CURVE",
"274 -3 OFFCURVE",
"264 -4 OFFCURVE",
"259 -4 CURVE SMOOTH",
"199 -4 OFFCURVE",
"113 35 OFFCURVE",
"81 96 CURVE SMOOTH",
"64 127 OFFCURVE",
"54 171 OFFCURVE",
"51 230 CURVE",
"49 253 OFFCURVE",
"48 271 OFFCURVE",
"48 284 CURVE SMOOTH",
"48 341 OFFCURVE",
"83 399 OFFCURVE",
"135 442 CURVE SMOOTH",
"187 485 OFFCURVE",
"219 506 OFFCURVE",
"258 526 CURVE",
"257 531 OFFCURVE",
"257 544 OFFCURVE",
"257 563 CURVE SMOOTH",
"257 586 OFFCURVE",
"257 603 OFFCURVE",
"258 616 CURVE",
"258 628 OFFCURVE",
"259 637 OFFCURVE",
"261 643 CURVE",
"264 655 OFFCURVE",
"266 656 OFFCURVE",
"274 656 CURVE SMOOTH",
"277 656 LINE SMOOTH",
"288 656 OFFCURVE",
"296 619 OFFCURVE",
"303 545 CURVE",
"314 545 LINE SMOOTH",
"415 545 OFFCURVE",
"505 463 OFFCURVE",
"505 402 CURVE SMOOTH",
"505 379 OFFCURVE",
"493 363 OFFCURVE",
"480 363 CURVE SMOOTH",
"467 363 OFFCURVE",
"459 373 OFFCURVE",
"456 392 CURVE",
"455 407 OFFCURVE",
"444 427 OFFCURVE",
"423 450 CURVE SMOOTH",
"407 467 OFFCURVE",
"405 473 OFFCURVE",
"373 482 CURVE SMOOTH",
"356 487 OFFCURVE",
"335 489 OFFCURVE",
"308 490 CURVE",
"311 441 OFFCURVE",
"317 298 OFFCURVE",
"322 178 CURVE SMOOTH",
"324 118 OFFCURVE",
"325 84 OFFCURVE",
"326 76 CURVE"
);
},
{
closed = 1;
nodes = (
"277 264 OFFCURVE",
"270 407 OFFCURVE",
"264 488 CURVE",
"251 485 OFFCURVE",
"242 482 OFFCURVE",
"230 474 CURVE",
"218 465 OFFCURVE",
"215 461 OFFCURVE",
"197 445 CURVE",
"188 436 OFFCURVE",
"180 429 OFFCURVE",
"174 424 CURVE SMOOTH",
"133 388 OFFCURVE",
"112 333 OFFCURVE",
"108 299 CURVE SMOOTH",
"106 282 OFFCURVE",
"105 260 OFFCURVE",
"105 235 CURVE SMOOTH",
"105 179 OFFCURVE",
"120 139 OFFCURVE",
"132 127 CURVE",
"143 114 OFFCURVE",
"184 72 OFFCURVE",
"205 62 CURVE SMOOTH",
"215 57 OFFCURVE",
"229 54 OFFCURVE",
"248 54 CURVE SMOOTH",
"259 54 OFFCURVE",
"271 56 OFFCURVE",
"284 59 CURVE"
);
}
);
width = 569;
}
);
note = cent;
unicode = 00A2;
},
{
glyphname = sterling;
layers = (
{
layerId = "8BD8650B-A4E1-42AA-8EA8-F95A9955B41A";
name = Regular;
paths = (
{
closed = 1;
nodes = (
"125 -12 OFFCURVE",
"110 -5 OFFCURVE",
"110 8 CURVE SMOOTH",
"110 24 OFFCURVE",
"119 44 OFFCURVE",
"127 55 CURVE",
"131 60 OFFCURVE",
"135 65 OFFCURVE",
"140 70 CURVE",
"144 75 OFFCURVE",
"146 77 OFFCURVE",
"146 78 CURVE",
"148 83 OFFCURVE",
"150 87 OFFCURVE",
"153 91 CURVE",
"157 98 OFFCURVE",
"158 98 OFFCURVE",
"161 109 CURVE",
"162 114 OFFCURVE",
"164 122 OFFCURVE",
"166 132 CURVE SMOOTH",
"174 174 OFFCURVE",
"178 199 OFFCURVE",
"178 206 CURVE SMOOTH",
"178 284 LINE",
"179 379 LINE",
"157 376 OFFCURVE",
"143 374 OFFCURVE",
"137 374 CURVE SMOOTH",
"114 374 OFFCURVE",
"74 387 OFFCURVE",
"74 399 CURVE SMOOTH",
"74 403 OFFCURVE",
"78 407 OFFCURVE",
"87 411 CURVE",
"152 430 LINE",
"161 433 OFFCURVE",
"170 435 OFFCURVE",
"179 436 CURVE",
"178 445 OFFCURVE",
"177 461 OFFCURVE",
"174 484 CURVE SMOOTH",
"171 507 OFFCURVE",
"170 524 OFFCURVE",
"170 535 CURVE SMOOTH",
"170 604 OFFCURVE",
"248 669 OFFCURVE",
"305 694 CURVE SMOOTH",
"334 706 OFFCURVE",
"370 712 OFFCURVE",
"414 712 CURVE SMOOTH",
"480 712 OFFCURVE",
"521 692 OFFCURVE",
"538 653 CURVE SMOOTH",
"549 628 OFFCURVE",
"554 604 OFFCURVE",
"554 580 CURVE SMOOTH",
"554 568 OFFCURVE",
"555 563 OFFCURVE",
"547 555 CURVE SMOOTH",
"543 551 OFFCURVE",
"539 548 OFFCURVE",
"536 546 CURVE SMOOTH",
"533 544 OFFCURVE",
"531 543 OFFCURVE",
"530 543 CURVE SMOOTH",
"524 543 OFFCURVE",
"519 549 OFFCURVE",
"515 562 CURVE",
"510 575 OFFCURVE",
"506 589 OFFCURVE",
"502 604 CURVE",
"497 619 OFFCURVE",
"493 629 OFFCURVE",
"488 633 CURVE SMOOTH",
"467 650 OFFCURVE",
"446 658 OFFCURVE",
"424 658 CURVE SMOOTH",
"421 658 OFFCURVE",
"417 658 OFFCURVE",
"413 657 CURVE",
"408 656 OFFCURVE",
"401 655 OFFCURVE",
"391 654 CURVE",
"380 652 OFFCURVE",
"368 650 OFFCURVE",
"354 649 CURVE",
"317 644 OFFCURVE",
"301 636 OFFCURVE",
"268 605 CURVE SMOOTH",
"243 580 OFFCURVE",
"230 552 OFFCURVE",
"230 519 CURVE SMOOTH",
"230 503 OFFCURVE",
"232 486 OFFCURVE",
"236 465 CURVE",
"237 454 OFFCURVE",
"238 446 OFFCURVE",
"239 440 CURVE",
"254 440 LINE SMOOTH",
"266 440 OFFCURVE",
"277 440 OFFCURVE",
"286 441 CURVE SMOOTH",
"295 442 OFFCURVE",
"308 442 OFFCURVE",
"326 442 CURVE SMOOTH",
"343 442 OFFCURVE",
"356 440 OFFCURVE",
"364 435 CURVE SMOOTH",
"372 430 OFFCURVE",
"376 424 OFFCURVE",
"376 419 CURVE SMOOTH",
"376 414 OFFCURVE",
"372 409 OFFCURVE",
"365 404 CURVE",
"357 399 OFFCURVE",
"346 396 OFFCURVE",
"331 396 CURVE SMOOTH",
"324 396 OFFCURVE",
"316 395 OFFCURVE",
"306 394 CURVE SMOOTH",
"295 393 OFFCURVE",
"288 392 OFFCURVE",
"285 392 CURVE",
"263 391 OFFCURVE",
"248 389 OFFCURVE",
"241 387 CURVE",
"241 341 LINE SMOOTH",
"241 178 OFFCURVE",
"231 105 OFFCURVE",
"200 52 CURVE",
"211 52 OFFCURVE",
"226 56 OFFCURVE",
"243 64 CURVE SMOOTH",
"277 79 OFFCURVE",
"288 77 OFFCURVE",
"299 77 CURVE SMOOTH",
"340 77 OFFCURVE",
"380 72 OFFCURVE",
"417 61 CURVE SMOOTH",
"454 50 OFFCURVE",
"489 45 OFFCURVE",
"520 45 CURVE",
"552 48 LINE",
"552 44 OFFCURVE",
"551 39 OFFCURVE",
"550 33 CURVE",
"546 21 OFFCURVE",
"522 -5 OFFCURVE",
"482 -5 CURVE SMOOTH",
"453 -5 OFFCURVE",
"394 3 OFFCURVE",
"306 20 CURVE",
"269 19 OFFCURVE",
"237 14 OFFCURVE",
"208 4 CURVE SMOOTH",
"179 -7 OFFCURVE",
"161 -12 OFFCURVE",
"156 -12 CURVE SMOOTH"
);
}
);
width = 660;
}
);
note = sterling;
unicode = 00A3;
},
{
glyphname = currency;
layers = (
{
layerId = "8BD8650B-A4E1-42AA-8EA8-F95A9955B41A";
name = Regular;
paths = (
{
closed = 1;
nodes = (
"310 332 OFFCURVE",
"259 352 OFFCURVE",
"226 379 CURVE",
"205 355 OFFCURVE",
"171 323 OFFCURVE",
"152 307 CURVE SMOOTH",
"142 298 OFFCURVE",
"136 294 OFFCURVE",
"135 294 CURVE SMOOTH",
"127 294 OFFCURVE",
"110 309 OFFCURVE",
"110 318 CURVE SMOOTH",
"110 323 OFFCURVE",
"119 335 OFFCURVE",
"138 356 CURVE SMOOTH",
"157 377 OFFCURVE",
"176 396 OFFCURVE",
"196 414 CURVE",
"173 457 OFFCURVE",
"161 497 OFFCURVE",
"161 536 CURVE SMOOTH",
"161 560 OFFCURVE",
"168 584 OFFCURVE",
"182 608 CURVE",
"143 643 OFFCURVE",
"99 695 OFFCURVE",
"99 704 CURVE SMOOTH",
"99 713 OFFCURVE",
"116 728 OFFCURVE",
"124 728 CURVE SMOOTH",
"125 728 OFFCURVE",
"131 724 OFFCURVE",
"140 716 CURVE SMOOTH",
"159 700 OFFCURVE",
"191 670 OFFCURVE",
"212 646 CURVE",
"223 659 OFFCURVE",
"237 670 OFFCURVE",
"246 678 CURVE",
"255 685 OFFCURVE",
"273 693 OFFCURVE",
"281 697 CURVE",
"288 700 OFFCURVE",
"311 707 OFFCURVE",
"316 708 CURVE",
"320 709 OFFCURVE",
"348 716 OFFCURVE",
"351 716 CURVE SMOOTH",
"352 716 LINE SMOOTH",
"368 716 OFFCURVE",
"419 686 OFFCURVE",
"452 657 CURVE",
"473 681 OFFCURVE",
"505 711 OFFCURVE",
"524 727 CURVE SMOOTH",
"533 735 OFFCURVE",
"539 739 OFFCURVE",
"540 739 CURVE SMOOTH",
"548 739 OFFCURVE",
"565 724 OFFCURVE",
"565 715 CURVE SMOOTH",
"565 706 OFFCURVE",
"521 655 OFFCURVE",
"482 620 CURVE",
"497 597 OFFCURVE",
"504 566 OFFCURVE",
"504 526 CURVE SMOOTH",
"504 479 OFFCURVE",
"495 440 OFFCURVE",
"476 407 CURVE",
"513 374 OFFCURVE",
"559 321 OFFCURVE",
"559 312 CURVE SMOOTH",
"559 303 OFFCURVE",
"542 288 OFFCURVE",
"534 288 CURVE SMOOTH",
"533 288 OFFCURVE",
"527 292 OFFCURVE",
"518 301 CURVE",
"498 317 OFFCURVE",
"465 348 OFFCURVE",
"444 372 CURVE",
"412 345 OFFCURVE",
"379 332 OFFCURVE",
"346 332 CURVE SMOOTH"
);
},
{
closed = 1;
nodes = (
"351 664 OFFCURVE",
"349 664 OFFCURVE",
"344 663 CURVE SMOOTH",
"339 662 OFFCURVE",
"336 662 OFFCURVE",
"333 663 CURVE",
"330 663 OFFCURVE",
"329 664 OFFCURVE",
"329 667 CURVE SMOOTH",
"329 672 OFFCURVE",
"327 674 OFFCURVE",
"323 674 CURVE SMOOTH",
"320 674 OFFCURVE",
"315 673 OFFCURVE",
"308 671 CURVE SMOOTH",
"293 667 OFFCURVE",
"267 653 OFFCURVE",
"247 634 CURVE SMOOTH",
"227 615 OFFCURVE",
"209 579 OFFCURVE",
"209 536 CURVE SMOOTH",
"209 428 OFFCURVE",
"267 379 OFFCURVE",
"355 379 CURVE SMOOTH",
"379 379 OFFCURVE",
"397 384 OFFCURVE",
"409 393 CURVE",
"444 423 OFFCURVE",
"462 467 OFFCURVE",
"462 526 CURVE SMOOTH",
"462 562 OFFCURVE",
"456 592 OFFCURVE",
"449 605 CURVE SMOOTH",
"442 618 OFFCURVE",
"432 627 OFFCURVE",
"428 628 CURVE",
"426 629 OFFCURVE",
"424 629 OFFCURVE",
"423 629 CURVE",
"407 638 OFFCURVE",
"399 644 OFFCURVE",
"399 647 CURVE SMOOTH",
"399 654 OFFCURVE",
"371 664 OFFCURVE",
"352 664 CURVE SMOOTH"
);
}
);
width = 679;
}
);
note = currency;
unicode = 00A4;
},
{
glyphname = yen;
layers = (
{
layerId = "8BD8650B-A4E1-42AA-8EA8-F95A9955B41A";
name = Regular;
paths = (
{
closed = 1;
nodes = (
"376 239 LINE",
"351 238 OFFCURVE",
"330 238 OFFCURVE",
"313 237 CURVE SMOOTH",
"296 236 OFFCURVE",
"284 235 OFFCURVE",
"278 234 CURVE SMOOTH",
"272 233 OFFCURVE",
"268 233 OFFCURVE",
"266 233 CURVE SMOOTH",
"263 233 OFFCURVE",
"201 247 OFFCURVE",
"201 250 CURVE SMOOTH",
"201 251 OFFCURVE",
"202 254 OFFCURVE",
"203 259 CURVE SMOOTH",
"204 264 OFFCURVE",
"204 268 OFFCURVE",
"204 272 CURVE SMOOTH",
"204 277 OFFCURVE",
"203 282 OFFCURVE",
"202 285 CURVE",
"233 285 LINE SMOOTH",
"259 285 OFFCURVE",
"283 284 OFFCURVE",
"305 283 CURVE",
"327 281 OFFCURVE",
"342 280 OFFCURVE",
"350 280 CURVE SMOOTH",
"358 280 OFFCURVE",
"373 279 OFFCURVE",
"394 278 CURVE",
"421 336 LINE",
"256 504 LINE SMOOTH",
"180 581 OFFCURVE",
"130 634 OFFCURVE",
"107 661 CURVE SMOOTH",
"83 688 OFFCURVE",
"71 708 OFFCURVE",
"71 721 CURVE SMOOTH",
"71 733 OFFCURVE",
"80 747 OFFCURVE",
"92 747 CURVE SMOOTH",
"103 747 OFFCURVE",
"122 734 OFFCURVE",
"151 709 CURVE SMOOTH",
"180 683 OFFCURVE",
"233 631 OFFCURVE",
"310 553 CURVE SMOOTH",
"393 471 OFFCURVE",
"441 430 OFFCURVE",
"452 430 CURVE SMOOTH",
"467 430 OFFCURVE",
"480 439 OFFCURVE",
"497 467 CURVE SMOOTH",
"505 481 OFFCURVE",
"513 496 OFFCURVE",
"521 511 CURVE SMOOTH",
"536 541 OFFCURVE",
"570 606 OFFCURVE",
"598 657 CURVE SMOOTH",
"609 678 OFFCURVE",
"614 701 OFFCURVE",
"614 726 CURVE SMOOTH",
"614 765 OFFCURVE",
"621 784 OFFCURVE",
"635 784 CURVE SMOOTH",
"643 784 OFFCURVE",
"688 764 OFFCURVE",
"688 736 CURVE SMOOTH",
"688 652 OFFCURVE",
"578 443 OFFCURVE",
"523 376 CURVE SMOOTH",
"495 343 OFFCURVE",
"491 335 OFFCURVE",
"467 275 CURVE",
"479 275 OFFCURVE",
"499 277 OFFCURVE",
"526 282 CURVE",
"553 286 OFFCURVE",
"575 288 OFFCURVE",
"592 288 CURVE SMOOTH",
"616 288 OFFCURVE",
"633 282 OFFCURVE",
"638 276 CURVE",
"641 273 OFFCURVE",
"642 269 OFFCURVE",
"642 266 CURVE SMOOTH",
"642 254 OFFCURVE",
"627 242 OFFCURVE",
"598 242 CURVE SMOOTH",
"591 242 OFFCURVE",
"581 243 OFFCURVE",
"569 244 CURVE SMOOTH",
"557 245 OFFCURVE",
"549 246 OFFCURVE",
"546 246 CURVE SMOOTH",
"533 246 OFFCURVE",
"479 243 OFFCURVE",
"454 242 CURVE",
"433 190 LINE",
"447 190 LINE SMOOTH",
"459 190 OFFCURVE",
"479 192 OFFCURVE",
"507 197 CURVE SMOOTH",
"534 202 OFFCURVE",
"557 204 OFFCURVE",
"575 204 CURVE SMOOTH",
"593 204 OFFCURVE",
"609 202 OFFCURVE",
"622 197 CURVE SMOOTH",
"635 192 OFFCURVE",
"642 187 OFFCURVE",
"642 182 CURVE SMOOTH",
"642 177 OFFCURVE",
"636 172 OFFCURVE",
"623 167 CURVE",
"610 161 OFFCURVE",
"595 158 OFFCURVE",
"580 158 CURVE SMOOTH",
"573 158 OFFCURVE",
"560 158 OFFCURVE",
"539 157 CURVE SMOOTH",
"518 156 OFFCURVE",
"505 155 OFFCURVE",
"502 155 CURVE SMOOTH",
"499 155 OFFCURVE",
"471 154 OFFCURVE",
"417 152 CURVE",
"323 -72 LINE SMOOTH",
"314 -93 OFFCURVE",
"302 -104 OFFCURVE",
"287 -104 CURVE SMOOTH",
"270 -104 OFFCURVE",
"251 -85 OFFCURVE",
"251 -65 CURVE SMOOTH",
"251 -40 OFFCURVE",
"279 32 OFFCURVE",
"335 152 CURVE",
"288 151 OFFCURVE",
"253 149 OFFCURVE",
"232 146 CURVE",
"211 142 OFFCURVE",
"197 140 OFFCURVE",
"191 140 CURVE SMOOTH",
"178 140 OFFCURVE",
"175 144 OFFCURVE",
"175 163 CURVE SMOOTH",
"175 172 OFFCURVE",
"174 181 OFFCURVE",
"172 188 CURVE",
"207 189 OFFCURVE",
"240 190 OFFCURVE",
"271 192 CURVE SMOOTH",
"302 193 OFFCURVE",
"322 194 OFFCURVE",
"333 194 CURVE SMOOTH",
"355 194 LINE"
);
}
);
width = 730;
}
);
note = yen;
unicode = 00A5;
},
{
glyphname = brokenbar;
layers = (
{
layerId = "8BD8650B-A4E1-42AA-8EA8-F95A9955B41A";
name = Regular;
paths = (
{
closed = 1;
nodes = (
"210 145 LINE SMOOTH",
"210 12 OFFCURVE",
"209 -60 OFFCURVE",
"208 -71 CURVE",
"203 -98 OFFCURVE",
"195 -112 OFFCURVE",
"184 -112 CURVE SMOOTH",
"181 -112 OFFCURVE",
"177 -110 OFFCURVE",
"174 -107 CURVE",
"170 -102 OFFCURVE",
"164 116 OFFCURVE",
"164 213 CURVE SMOOTH",
"164 221 OFFCURVE",
"181 231 OFFCURVE",
"194 231 CURVE SMOOTH",
"201 231 OFFCURVE",
"205 229 OFFCURVE",
"207 224 CURVE SMOOTH",
"209 219 OFFCURVE",
"210 208 OFFCURVE",
"210 193 CURVE SMOOTH"
);
},
{
closed = 1;
nodes = (
"161 401 LINE",
"158 519 OFFCURVE",
"157 579 OFFCURVE",
"157 580 CURVE SMOOTH",
"157 585 OFFCURVE",
"164 723 OFFCURVE",
"181 727 CURVE SMOOTH",
"193 730 OFFCURVE",
"200 732 OFFCURVE",
"202 732 CURVE SMOOTH",
"204 732 OFFCURVE",
"205 732 OFFCURVE",
"205 731 CURVE",
"208 723 OFFCURVE",
"209 612 OFFCURVE",
"209 399 CURVE"
);
}
);
width = 364;
}
);
note = brokenbar;
unicode = 00A6;
},
{
glyphname = section;
layers = (
{
layerId = "8BD8650B-A4E1-42AA-8EA8-F95A9955B41A";
name = Regular;
paths = (
{
closed = 1;
nodes = (
"310 486 LINE",
"258 486 OFFCURVE",
"211 463 OFFCURVE",
"168 418 CURVE SMOOTH",
"163 413 OFFCURVE",
"158 407 OFFCURVE",
"152 402 CURVE",
"140 391 OFFCURVE",
"136 388 OFFCURVE",
"131 381 CURVE",
"126 373 OFFCURVE",
"124 366 OFFCURVE",
"124 354 CURVE SMOOTH",
"124 326 OFFCURVE",
"157 302 OFFCURVE",
"184 294 CURVE SMOOTH",
"204 288 LINE",
"254 274 LINE",
"342 274 OFFCURVE",
"433 380 OFFCURVE",
"433 423 CURVE",
"424 444 OFFCURVE",
"393 465 OFFCURVE",
"372 472 CURVE",
"356 478 LINE"
);
},
{
closed = 1;
nodes = (
"183 754 OFFCURVE",
"239 816 OFFCURVE",
"286 816 CURVE SMOOTH",
"323 816 OFFCURVE",
"392 803 OFFCURVE",
"421 788 CURVE SMOOTH",
"445 776 OFFCURVE",
"469 733 OFFCURVE",
"469 705 CURVE SMOOTH",
"469 690 OFFCURVE",
"461 677 OFFCURVE",
"450 677 CURVE SMOOTH",
"440 677 OFFCURVE",
"431 686 OFFCURVE",
"422 705 CURVE SMOOTH",
"406 738 OFFCURVE",
"348 770 OFFCURVE",
"305 770 CURVE SMOOTH",
"248 770 OFFCURVE",
"196 677 OFFCURVE",
"196 638 CURVE SMOOTH",
"196 633 OFFCURVE",
"197 628 OFFCURVE",
"200 621 CURVE",
"204 607 OFFCURVE",
"224 583 OFFCURVE",
"253 572 CURVE",
"281 563 OFFCURVE",
"324 544 OFFCURVE",
"349 533 CURVE SMOOTH",
"361 528 OFFCURVE",
"369 525 OFFCURVE",
"372 525 CURVE SMOOTH",
"392 525 OFFCURVE",
"485 465 OFFCURVE",
"485 414 CURVE SMOOTH",
"485 373 OFFCURVE",
"391 264 OFFCURVE",
"310 244 CURVE",
"307 243 OFFCURVE",
"306 242 OFFCURVE",
"306 241 CURVE SMOOTH",
"306 240 OFFCURVE",
"309 238 OFFCURVE",
"315 235 CURVE SMOOTH",
"321 232 OFFCURVE",
"328 229 OFFCURVE",
"336 226 CURVE SMOOTH",
"344 223 OFFCURVE",
"349 220 OFFCURVE",
"352 218 CURVE",
"388 178 LINE",
"401 129 LINE",
"400 118 LINE SMOOTH",
"399 102 OFFCURVE",
"397 90 OFFCURVE",
"393 71 CURVE",
"390 61 OFFCURVE",
"388 52 OFFCURVE",
"385 45 CURVE",
"370 6 OFFCURVE",
"314 -56 OFFCURVE",
"267 -56 CURVE SMOOTH",
"231 -56 OFFCURVE",
"161 -43 OFFCURVE",
"132 -28 CURVE SMOOTH",
"108 -16 OFFCURVE",
"84 27 OFFCURVE",
"84 55 CURVE SMOOTH",
"84 70 OFFCURVE",
"92 83 OFFCURVE",
"103 83 CURVE SMOOTH",
"113 83 OFFCURVE",
"122 74 OFFCURVE",
"131 55 CURVE SMOOTH",
"147 22 OFFCURVE",
"205 -10 OFFCURVE",
"248 -10 CURVE SMOOTH",
"305 -10 OFFCURVE",
"357 83 OFFCURVE",
"357 122 CURVE SMOOTH",
"357 127 OFFCURVE",
"356 133 OFFCURVE",
"354 140 CURVE",
"349 154 OFFCURVE",
"329 177 OFFCURVE",
"300 188 CURVE",
"272 197 OFFCURVE",
"229 216 OFFCURVE",
"205 227 CURVE",
"192 232 OFFCURVE",
"184 235 OFFCURVE",
"181 235 CURVE SMOOTH",
"161 235 OFFCURVE",
"68 295 OFFCURVE",
"68 346 CURVE SMOOTH",
"68 395 OFFCURVE",
"136 498 OFFCURVE",
"232 522 CURVE",
"208 536 LINE",
"176 562 LINE",
"169 571 OFFCURVE",
"152 613 OFFCURVE",
"152 629 CURVE SMOOTH",
"152 661 OFFCURVE",
"157 690 OFFCURVE",
"168 715 CURVE"
);
}
);
width = 562;
}
);
note = section;
unicode = 00A7;
},
{
glyphname = dieresis;
layers = (
{
layerId = "8BD8650B-A4E1-42AA-8EA8-F95A9955B41A";
name = Regular;
paths = (
{
closed = 1;
nodes = (
"288 672 OFFCURVE",
"270 648 OFFCURVE",
"258 642 CURVE SMOOTH",
"252 639 OFFCURVE",
"247 637 OFFCURVE",
"242 637 CURVE SMOOTH",
"221 637 OFFCURVE",
"207 664 OFFCURVE",
"207 695 CURVE SMOOTH",
"207 720 OFFCURVE",
"219 740 OFFCURVE",
"240 740 CURVE SMOOTH",
"252 740 OFFCURVE",
"272 730 OFFCURVE",
"299 711 CURVE"
);
},
{
closed = 1;
nodes = (
"138 677 OFFCURVE",
"120 653 OFFCURVE",
"108 647 CURVE SMOOTH",
"102 644 OFFCURVE",
"97 642 OFFCURVE",
"92 642 CURVE SMOOTH",
"71 642 OFFCURVE",
"57 669 OFFCURVE",
"57 700 CURVE SMOOTH",
"57 725 OFFCURVE",
"69 745 OFFCURVE",
"90 745 CURVE SMOOTH",
"101 745 OFFCURVE",
"120 735 OFFCURVE",
"149 716 CURVE"
);
}
);
width = 355;
}
);
note = dieresis;
unicode = 00A8;
},
{
glyphname = copyright;
layers = (
{
layerId = "8BD8650B-A4E1-42AA-8EA8-F95A9955B41A";
name = Regular;
paths = (
{
closed = 1;
nodes = (
"291 549 OFFCURVE",
"345 572 OFFCURVE",
"454 572 CURVE SMOOTH",
"619 572 OFFCURVE",
"628 475 OFFCURVE",
"628 390 CURVE SMOOTH",
"628 249 OFFCURVE",
"557 81 OFFCURVE",
"465 25 CURVE SMOOTH",
"420 -2 OFFCURVE",
"373 -16 OFFCURVE",
"324 -16 CURVE SMOOTH",
"255 -16 OFFCURVE",
"200 8 OFFCURVE",
"159 55 CURVE SMOOTH",
"102 122 OFFCURVE",
"90 153 OFFCURVE",
"90 238 CURVE SMOOTH",
"90 319 OFFCURVE",
"122 390 OFFCURVE",
"187 452 CURVE SMOOTH"
);
},
{
closed = 1;
nodes = (
"130 121 OFFCURVE",
"239 28 OFFCURVE",
"351 28 CURVE SMOOTH",
"463 28 OFFCURVE",
"582 190 OFFCURVE",
"582 373 CURVE SMOOTH",
"582 387 OFFCURVE",
"582 398 OFFCURVE",
"581 405 CURVE",
"581 486 OFFCURVE",
"553 495 OFFCURVE",
"515 512 CURVE SMOOTH",
"496 521 OFFCURVE",
"480 525 OFFCURVE",
"467 525 CURVE SMOOTH",
"464 525 OFFCURVE",
"459 526 OFFCURVE",
"452 527 CURVE SMOOTH",
"444 528 OFFCURVE",
"437 529 OFFCURVE",
"430 529 CURVE SMOOTH",
"370 529 OFFCURVE",
"310 500 OFFCURVE",
"250 441 CURVE SMOOTH",
"167 364 OFFCURVE",
"130 302 OFFCURVE",
"130 230 CURVE SMOOTH"
);
},
{
closed = 1;
nodes = (
"209 289 OFFCURVE",
"224 324 OFFCURVE",
"249 363 CURVE SMOOTH",
"274 402 OFFCURVE",
"327 435 OFFCURVE",
"384 435 CURVE SMOOTH",
"444 435 OFFCURVE",
"498 386 OFFCURVE",
"498 349 CURVE SMOOTH",
"498 336 OFFCURVE",
"491 326 OFFCURVE",
"483 326 CURVE SMOOTH",
"482 326 OFFCURVE",
"479 325 OFFCURVE",
"472 324 CURVE",
"465 322 OFFCURVE",
"461 321 OFFCURVE",
"458 321 CURVE SMOOTH",
"453 321 OFFCURVE",
"450 325 OFFCURVE",
"450 330 CURVE",
"449 334 OFFCURVE",
"443 346 OFFCURVE",
"434 357 CURVE",
"432 359 OFFCURVE",
"431 363 OFFCURVE",
"430 370 CURVE SMOOTH",
"429 376 OFFCURVE",
"426 381 OFFCURVE",
"420 384 CURVE",
"413 387 OFFCURVE",
"401 388 OFFCURVE",
"382 388 CURVE SMOOTH",
"349 388 OFFCURVE",
"334 380 OFFCURVE",
"311 348 CURVE SMOOTH",
"283 309 OFFCURVE",
"280 293 OFFCURVE",
"280 250 CURVE SMOOTH",
"280 237 OFFCURVE",
"281 227 OFFCURVE",
"283 220 CURVE",
"286 204 OFFCURVE",
"284 204 OFFCURVE",
"295 196 CURVE",
"300 191 OFFCURVE",
"304 188 OFFCURVE",
"306 186 CURVE SMOOTH",
"327 166 OFFCURVE",
"327 166 OFFCURVE",
"348 166 CURVE SMOOTH",
"355 166 OFFCURVE",
"363 165 OFFCURVE",
"370 164 CURVE SMOOTH",
"377 163 OFFCURVE",
"381 162 OFFCURVE",
"384 162 CURVE SMOOTH",
"394 162 OFFCURVE",
"409 172 OFFCURVE",
"428 193 CURVE SMOOTH",
"447 214 OFFCURVE",
"463 224 OFFCURVE",
"476 224 CURVE SMOOTH",
"480 224 OFFCURVE",
"482 215 OFFCURVE",
"482 196 CURVE SMOOTH",
"482 168 OFFCURVE",
"403 106 OFFCURVE",
"351 106 CURVE SMOOTH",
"314 106 OFFCURVE",
"257 133 OFFCURVE",
"230 174 CURVE SMOOTH",
"216 194 OFFCURVE",
"209 227 OFFCURVE",
"209 274 CURVE SMOOTH"
);
}
);
width = 731;
}
);
note = copyright;
unicode = 00A9;
},
{
glyphname = ordfeminine;
layers = (
{
layerId = "8BD8650B-A4E1-42AA-8EA8-F95A9955B41A";
name = Regular;
paths = (
{
closed = 1;
nodes = (
"158 267 OFFCURVE",
"134 265 OFFCURVE",
"117 262 CURVE SMOOTH",
"100 259 OFFCURVE",
"86 257 OFFCURVE",
"77 257 CURVE SMOOTH",
"50 257 OFFCURVE",
"33 269 OFFCURVE",
"27 294 CURVE",
"63 295 OFFCURVE",
"102 298 OFFCURVE",
"143 303 CURVE SMOOTH",
"184 308 OFFCURVE",
"210 311 OFFCURVE",
"219 311 CURVE SMOOTH",
"230 311 OFFCURVE",
"250 310 OFFCURVE",
"277 309 CURVE",
"304 307 OFFCURVE",
"322 306 OFFCURVE",
"333 306 CURVE SMOOTH",
"440 306 LINE SMOOTH",
"457 306 OFFCURVE",
"470 304 OFFCURVE",
"478 299 CURVE SMOOTH",
"486 294 OFFCURVE",
"490 288 OFFCURVE",
"490 283 CURVE SMOOTH",
"490 278 OFFCURVE",
"486 273 OFFCURVE",
"479 268 CURVE",
"471 263 OFFCURVE",
"460 260 OFFCURVE",
"445 260 CURVE SMOOTH",
"438 260 OFFCURVE",
"429 261 OFFCURVE",
"417 262 CURVE SMOOTH",
"404 263 OFFCURVE",
"396 264 OFFCURVE",
"393 264 CURVE",
"384 263 OFFCURVE",
"369 263 OFFCURVE",
"350 263 CURVE SMOOTH",
"333 263 OFFCURVE",
"306 264 OFFCURVE",
"270 265 CURVE SMOOTH",
"233 266 OFFCURVE",
"206 267 OFFCURVE",
"189 267 CURVE SMOOTH"
);
},
{
closed = 1;
nodes = (
"290 789 OFFCURVE",
"251 779 OFFCURVE",
"206 759 CURVE SMOOTH",
"161 738 OFFCURVE",
"134 728 OFFCURVE",
"125 728 CURVE SMOOTH",
"119 728 OFFCURVE",
"116 731 OFFCURVE",
"116 736 CURVE SMOOTH",
"116 751 OFFCURVE",
"121 761 OFFCURVE",
"138 770 CURVE SMOOTH",
"155 779 OFFCURVE",
"166 783 OFFCURVE",
"200 796 CURVE SMOOTH",
"217 802 OFFCURVE",
"231 808 OFFCURVE",
"244 813 CURVE SMOOTH",
"271 824 OFFCURVE",
"295 830 OFFCURVE",
"316 830 CURVE SMOOTH",
"352 830 OFFCURVE",
"380 811 OFFCURVE",
"399 773 CURVE SMOOTH",
"408 754 OFFCURVE",
"414 737 OFFCURVE",
"416 722 CURVE",
"417 706 OFFCURVE",
"419 662 OFFCURVE",
"420 589 CURVE SMOOTH",
"420 548 OFFCURVE",
"421 514 OFFCURVE",
"422 487 CURVE SMOOTH",
"423 460 OFFCURVE",
"425 442 OFFCURVE",
"426 435 CURVE",
"427 424 LINE",
"427 409 OFFCURVE",
"409 387 OFFCURVE",
"402 387 CURVE SMOOTH",
"391 387 OFFCURVE",
"383 404 OFFCURVE",
"377 438 CURVE SMOOTH",
"368 489 LINE",
"367 489 OFFCURVE",
"365 486 OFFCURVE",
"360 480 CURVE",
"339 444 OFFCURVE",
"259 390 OFFCURVE",
"215 390 CURVE SMOOTH",
"188 390 OFFCURVE",
"145 402 OFFCURVE",
"129 414 CURVE",
"115 426 OFFCURVE",
"108 450 OFFCURVE",
"108 487 CURVE SMOOTH",
"108 531 OFFCURVE",
"130 560 OFFCURVE",
"191 595 CURVE SMOOTH",
"226 615 OFFCURVE",
"258 625 OFFCURVE",
"288 625 CURVE SMOOTH",
"305 625 OFFCURVE",
"320 621 OFFCURVE",
"331 612 CURVE SMOOTH",
"342 603 OFFCURVE",
"349 598 OFFCURVE",
"350 598 CURVE SMOOTH",
"352 598 OFFCURVE",
"357 595 OFFCURVE",
"365 590 CURVE",
"373 584 OFFCURVE",
"377 581 OFFCURVE",
"378 581 CURVE SMOOTH",
"380 581 OFFCURVE",
"381 587 OFFCURVE",
"381 599 CURVE SMOOTH",
"381 670 OFFCURVE",
"376 720 OFFCURVE",
"367 748 CURVE",
"357 775 OFFCURVE",
"342 789 OFFCURVE",
"323 789 CURVE SMOOTH"
);
},
{
closed = 1;
nodes = (
"359 545 OFFCURVE",
"357 550 OFFCURVE",
"353 556 CURVE",
"345 567 OFFCURVE",
"316 583 OFFCURVE",
"272 583 CURVE SMOOTH",
"187 583 OFFCURVE",
"148 520 OFFCURVE",
"148 479 CURVE SMOOTH",
"148 452 OFFCURVE",
"151 446 OFFCURVE",
"170 437 CURVE",
"181 431 OFFCURVE",
"192 428 OFFCURVE",
"202 428 CURVE SMOOTH",
"239 428 OFFCURVE",
"310 464 OFFCURVE",
"310 476 CURVE SMOOTH",
"310 480 OFFCURVE",
"318 490 OFFCURVE",
"335 507 CURVE SMOOTH",
"351 523 OFFCURVE",
"359 534 OFFCURVE",
"359 541 CURVE SMOOTH"
);
}
);
width = 556;
}
);
note = ordfeminine;
unicode = 00AA;
},
{
glyphname = guillemotleft;
layers = (
{
layerId = "8BD8650B-A4E1-42AA-8EA8-F95A9955B41A";
name = Regular;
paths = (
{
closed = 1;
nodes = (
"395 549 OFFCURVE",
"379 533 OFFCURVE",
"347 511 CURVE SMOOTH",
"314 488 OFFCURVE",
"232 393 OFFCURVE",
"232 377 CURVE SMOOTH",
"232 368 OFFCURVE",
"243 353 OFFCURVE",
"266 333 CURVE",
"331 272 LINE SMOOTH",
"339 265 OFFCURVE",
"347 257 OFFCURVE",
"356 250 CURVE",
"373 234 OFFCURVE",
"381 227 OFFCURVE",
"390 219 CURVE",
"398 210 OFFCURVE",
"401 204 OFFCURVE",
"401 199 CURVE SMOOTH",
"401 188 OFFCURVE",
"397 182 OFFCURVE",
"388 182 CURVE SMOOTH",
"379 182 OFFCURVE",
"360 195 OFFCURVE",
"332 220 CURVE SMOOTH",
"239 305 LINE",
"200 338 OFFCURVE",
"181 361 OFFCURVE",
"181 373 CURVE SMOOTH",
"181 404 OFFCURVE",
"256 496 OFFCURVE",
"319 540 CURVE SMOOTH",
"334 551 OFFCURVE",
"346 560 OFFCURVE",
"352 565 CURVE SMOOTH",
"358 570 OFFCURVE",
"362 576 OFFCURVE",
"363 578 CURVE SMOOTH",
"364 580 OFFCURVE",
"366 581 OFFCURVE",
"367 582 CURVE",
"368 582 OFFCURVE",
"369 582 OFFCURVE",
"370 582 CURVE SMOOTH",
"378 582 OFFCURVE",
"395 566 OFFCURVE",
"395 559 CURVE SMOOTH"
);
},
{
closed = 1;
nodes = (
"286 200 OFFCURVE",
"270 184 OFFCURVE",
"262 184 CURVE SMOOTH",
"261 184 OFFCURVE",
"261 184 OFFCURVE",
"260 184 CURVE SMOOTH",
"259 184 OFFCURVE",
"258 185 OFFCURVE",
"258 186 CURVE",
"257 187 OFFCURVE",
"257 187 OFFCURVE",
"256 188 CURVE SMOOTH",
"255 189 OFFCURVE",
"255 190 OFFCURVE",
"254 191 CURVE",
"252 194 OFFCURVE",
"249 196 OFFCURVE",
"245 200 CURVE",
"242 202 OFFCURVE",
"240 204 OFFCURVE",
"237 207 CURVE",
"231 212 OFFCURVE",
"222 219 OFFCURVE",
"211 226 CURVE",
"147 271 OFFCURVE",
"73 362 OFFCURVE",
"73 394 CURVE SMOOTH",
"73 405 OFFCURVE",
"92 427 OFFCURVE",
"130 461 CURVE SMOOTH",
"224 546 LINE SMOOTH",
"251 571 OFFCURVE",
"270 584 OFFCURVE",
"279 584 CURVE SMOOTH",
"288 584 OFFCURVE",
"292 579 OFFCURVE",
"292 568 CURVE SMOOTH",
"292 563 OFFCURVE",
"290 559 OFFCURVE",
"286 554 CURVE",
"281 549 OFFCURVE",
"272 540 OFFCURVE",
"259 528 CURVE",
"245 516 OFFCURVE",
"233 505 OFFCURVE",
"222 494 CURVE SMOOTH",
"157 433 LINE SMOOTH",
"134 412 OFFCURVE",
"123 397 OFFCURVE",
"123 389 CURVE SMOOTH",
"123 373 OFFCURVE",
"206 277 OFFCURVE",
"239 256 CURVE SMOOTH",
"262 241 OFFCURVE",
"286 217 OFFCURVE",
"286 208 CURVE SMOOTH"
);
}
);
width = 476;
}
);
note = guillemotleft;
unicode = 00AB;
},
{
glyphname = logicalnot;
layers = (
{
layerId = "8BD8650B-A4E1-42AA-8EA8-F95A9955B41A";
name = Regular;
paths = (
{
closed = 1;
nodes = (
"261 183 LINE",
"191 191 LINE",
"123 196 LINE SMOOTH",
"111 197 OFFCURVE",
"96 198 OFFCURVE",
"89 198 CURVE SMOOTH",
"82 198 OFFCURVE",
"77 199 OFFCURVE",
"75 202 CURVE",
"74 203 OFFCURVE",
"73 205 OFFCURVE",
"73 208 CURVE SMOOTH",
"73 214 OFFCURVE",
"75 226 OFFCURVE",
"80 245 CURVE",
"82 259 OFFCURVE",
"84 283 OFFCURVE",
"86 317 CURVE SMOOTH",
"88 350 OFFCURVE",
"90 372 OFFCURVE",
"91 383 CURVE",
"91 385 OFFCURVE",
"91 389 OFFCURVE",
"90 395 CURVE SMOOTH",
"89 401 OFFCURVE",
"88 406 OFFCURVE",
"88 409 CURVE SMOOTH",
"88 425 OFFCURVE",
"99 432 OFFCURVE",
"108 432 CURVE SMOOTH",
"122 432 OFFCURVE",
"129 423 OFFCURVE",
"129 406 CURVE SMOOTH",
"129 397 OFFCURVE",
"127 386 OFFCURVE",
"123 372 CURVE SMOOTH",
"119 358 OFFCURVE",
"117 348 OFFCURVE",
"117 342 CURVE",
"111 235 LINE",
"120 235 OFFCURVE",
"134 233 OFFCURVE",
"153 230 CURVE SMOOTH",
"172 227 OFFCURVE",
"183 225 OFFCURVE",
"184 225 CURVE",
"211 223 OFFCURVE",
"259 221 OFFCURVE",
"326 218 CURVE SMOOTH",
"393 215 OFFCURVE",
"437 213 OFFCURVE",
"460 212 CURVE",
"463 212 OFFCURVE",
"471 213 OFFCURVE",
"484 214 CURVE SMOOTH",
"496 215 OFFCURVE",
"505 216 OFFCURVE",
"512 216 CURVE SMOOTH",
"527 216 OFFCURVE",
"538 214 OFFCURVE",
"546 209 CURVE",
"553 204 OFFCURVE",
"557 198 OFFCURVE",
"557 193 CURVE SMOOTH",
"557 188 OFFCURVE",
"553 183 OFFCURVE",
"545 178 CURVE SMOOTH",
"537 173 OFFCURVE",
"524 170 OFFCURVE",
"507 170 CURVE SMOOTH",
"489 170 OFFCURVE",
"466 173 OFFCURVE",
"437 179 CURVE SMOOTH",
"408 185 OFFCURVE",
"387 188 OFFCURVE",
"375 188 CURVE"
);
}
);
width = 624;
}
);
note = logicalnot;
unicode = 00AC;
},
